<svg xmlns="http://www.w3.org/2000/svg" xmlns:xlink="http://www.w3.org/1999/xlink" width="277.5" height="189.258" viewBox="0 0 277.5 189.258">
  <defs>
    <filter id="Ellipse_3" x="80.598" y="12.258" width="114" height="177" filterUnits="userSpaceOnUse">
      <feOffset input="SourceAlpha"/>
      <feGaussianBlur stdDeviation="11.5" result="blur"/>
      <feFlood flood-color="#0f8600"/>
      <feComposite operator="in" in2="blur"/>
      <feComposite in="SourceGraphic"/>
    </filter>
    <linearGradient id="linear-gradient" x1="0.841" y1="0.597" x2="0" y2="0.623" gradientUnits="objectBoundingBox">
      <stop offset="0" stop-color="#f8f8f8"/>
      <stop offset="1" stop-color="#fff" stop-opacity="0"/>
    </linearGradient>
    <linearGradient id="linear-gradient-2" x1="0.159" y1="0.597" x2="1" y2="0.623" xlink:href="#linear-gradient"/>
  </defs>
  <g id="Group_39" data-name="Group 39" transform="translate(-206 -263)">
    <g id="Car" transform="translate(-235.902 -34.242)">
      <g transform="matrix(1, 0, 0, 1, 441.9, 297.24)" filter="url(#Ellipse_3)">
        <g id="Ellipse_3-2" data-name="Ellipse 3" transform="translate(115.1 46.76)" fill="#fff" stroke="#707070" stroke-width="1">
          <ellipse cx="22.5" cy="54" rx="22.5" ry="54" stroke="none"/>
          <ellipse cx="22.5" cy="54" rx="22" ry="53.5" fill="none"/>
        </g>
      </g>
      <g id="ic-car-red" transform="translate(552.771 341)">
        <g id="Group_21" data-name="Group 21" transform="translate(0 0)">
          <g id="Group_20" data-name="Group 20">
            <g id="Group_19" data-name="Group 19">
              <path id="Path_50" data-name="Path 50" d="M12.03,50.195l-1.1,43.092c0,7.31,5.926,27.539,13.236,27.539H45.845c7.31,0,13.235-20.23,13.235-27.539l-1.1-43.092,3.323.818s.676-2.78-3.387-3.363l-.056-2.179a22.5,22.5,0,0,1,.09-2.56l.932-10.06c.605-6.541-1.62-14.933-6.265-19.578-3.993-3.993-10.2-4.611-16.295-4.611H33.688c-6.092,0-12.3.618-16.295,4.611-4.645,4.645-6.87,13.037-6.265,19.578l.931,10.06a22.348,22.348,0,0,1,.09,2.56l-.055,2.179c-4.063.583-3.387,3.363-3.387,3.363l3.323-.818" transform="translate(-3.085 -3.084)" fill="#f2f4f8" fill-rule="evenodd" opacity="0.29"/>
              <path id="Path_51" data-name="Path 51" d="M4.739,36.808a22.348,22.348,0,0,0-.09-2.56l-.931-10.06C3.113,17.647,5.338,9.255,9.983,4.61,13.975.618,20.185,0,26.278,0h2.635c6.093,0,12.3.618,16.295,4.61,4.645,4.645,6.871,13.037,6.266,19.578l-.932,10.06a22.5,22.5,0,0,0-.09,2.56L51.67,84.624c0,7.31-5.926,27.539-13.235,27.539H16.756c-7.309,0-13.235-20.23-13.235-27.539L4.739,36.808" transform="translate(-1.253 0)" fill="#e0e0e0" fill-rule="evenodd"/>
              <path id="Path_52" data-name="Path 52" d="M47.626,42.064c-.018-.814,2.441-4.534,2.516-5.345l.889-9.589C51.608,20.9,49.486,12.9,45.058,8.468c-3.805-3.806-9.725-4.4-15.532-4.4H27.014c-5.808,0-11.727.589-15.532,4.4C7.054,12.9,4.933,20.9,5.51,27.13L6.4,36.72c.074.811,2.533,4.531,2.515,5.345V86.536c0,6.968,2.057,24.454,9.025,24.454H38.6c6.968,0,9.025-17.486,9.025-24.454V42.064" transform="translate(-1.928 -1.45)" fill="#e0e0e0" fill-rule="evenodd"/>
              <path id="Path_53" data-name="Path 53" d="M5.056,60.374v2.237L.042,63.846s-.849-3.472,5.014-3.472" transform="translate(0 -21.495)" fill="#e0e0e0" fill-rule="evenodd"/>
              <path id="Path_54" data-name="Path 54" d="M9.77,84.884v.421c0,11.128.694,22.236.694,22.236s2.777-8.1,2.777-11.108v-10.9c-1.146-.272-2.307-.5-3.47-.653m3.471-.633V74.1c0-1.735-2.777-11.031-2.777-11.031s-.61,9.764-.686,20.154c1.17.287,2.321.642,3.463,1.028m36.629.633v.421c0,11.128-.694,22.236-.694,22.236S46.4,99.442,46.4,96.433v-10.9c1.147-.272,2.307-.5,3.471-.653M46.4,84.251V74.1c0-1.735,2.777-11.031,2.777-11.031s.61,9.764.686,20.154c-1.171.287-2.321.642-3.463,1.028" transform="translate(-3.478 -22.455)" fill="#3f4040" fill-rule="evenodd"/>
              <path id="Path_55" data-name="Path 55" d="M73.958,60.374v2.237l5.014,1.234s.849-3.472-5.014-3.472" transform="translate(-26.331 -21.495)" fill="#e0e0e0" fill-rule="evenodd"/>
              <path id="Path_56" data-name="Path 56" d="M44.141,98.853a73.333,73.333,0,0,1-14,1.766,73.333,73.333,0,0,1-14-1.766,1.1,1.1,0,0,0-1.352,1.037l-.509,14.67a1.1,1.1,0,0,0,.539.989c5.888,3.488,15.323,3,15.323,3s9.435.483,15.323-3a1.1,1.1,0,0,0,.54-.989l-.509-14.67a1.1,1.1,0,0,0-1.352-1.037ZM14.833,63.244,10.667,47.16s4.4-6.132,19.472-6.132S49.612,47.16,49.612,47.16L45.446,63.244a80.347,80.347,0,0,0-15.306-1.967A80.356,80.356,0,0,0,14.833,63.244Z" transform="translate(-3.798 -14.607)" fill="#393939" fill-rule="evenodd"/>
              <path id="Path_57" data-name="Path 57" d="M10.667,9.887c3.449-.86,5.68-4.79,5.541-5.814a11.994,11.994,0,0,0-2.737,2.036,17.235,17.235,0,0,0-2.8,3.778m38.945,0c-3.449-.86-5.68-4.79-5.541-5.814a11.994,11.994,0,0,1,2.737,2.036,17.235,17.235,0,0,1,2.8,3.778" transform="translate(-3.798 -1.45)" fill="#e8e7d2" fill-rule="evenodd"/>
            </g>
          </g>
        </g>
      </g>
    </g>
    <g id="Group_31" data-name="Group 31" transform="translate(0.5)">
      <line id="Line_28" data-name="Line 28" y2="145" transform="translate(293.5 270.258)" fill="none" stroke="#484848" stroke-width="2" stroke-dasharray="15 10"/>
      <line id="Line_29" data-name="Line 29" y2="145" transform="translate(393.5 270.258)" fill="none" stroke="#484848" stroke-width="2" stroke-dasharray="15 10"/>
      <line id="Line_27" data-name="Line 27" x2="272" transform="translate(211 270.5)" fill="none" stroke="#484848" stroke-width="2" stroke-dasharray="15 10"/>
    </g>
    <rect id="Rectangle_10" data-name="Rectangle 10" width="136" height="162" transform="translate(347 263)" fill="url(#linear-gradient)"/>
    <rect id="Rectangle_18" data-name="Rectangle 18" width="138" height="162" transform="translate(206 263)" fill="url(#linear-gradient-2)"/>
  </g>
</svg>
