<svg xmlns="http://www.w3.org/2000/svg" width="71.308" height="15.925" viewBox="0 0 71.308 15.925">
  <g id="Group_29" data-name="Group 29" transform="translate(-162.527 -453.349)">
    <g id="Group_28" data-name="Group 28" transform="translate(164.676 456.553)">
      <g id="Group_27" data-name="Group 27" transform="translate(0 0.047)">
        <path id="Path_66" data-name="Path 66" d="M194.414,495.818a4.282,4.282,0,0,0-1.838-1.607,6.307,6.307,0,0,0-2.731-.562h-4.562v9.257h4.562c.2,0,.389-.007.577-.021a5.989,5.989,0,0,0,2.154-.541,4.271,4.271,0,0,0,1.838-1.607,4.949,4.949,0,0,0,0-4.919ZM191.32,499.9a2.229,2.229,0,0,1-1.607.575h-1.822a.432.432,0,0,1-.432-.432v-3.527a.432.432,0,0,1,.432-.432h1.822a2.229,2.229,0,0,1,1.607.575,2.484,2.484,0,0,1,0,3.24Z" transform="translate(-185.283 -493.094)" fill="#141834"/>
        <path id="Path_67" data-name="Path 67" d="M305.121,513.671v2.645a4.555,4.555,0,0,0-.661-.053,1.368,1.368,0,0,0-1.534,1.56v3.213h-2.989V513.8h2.843v.78A2.934,2.934,0,0,1,305.121,513.671Z" transform="translate(-289.107 -511.225)" fill="#141834"/>
        <path id="Path_68" data-name="Path 68" d="M367.057,518.114h-5.025a1.216,1.216,0,0,0,.529.628,1.8,1.8,0,0,0,.926.218,2.337,2.337,0,0,0,.8-.119,2.8,2.8,0,0,0,.708-.41l1.56,1.574a4.059,4.059,0,0,1-3.161,1.164,5.2,5.2,0,0,1-2.3-.483,3.652,3.652,0,0,1-1.534-1.342,3.74,3.74,0,0,1-.007-3.868,3.661,3.661,0,0,1,1.468-1.329,4.835,4.835,0,0,1,4.1-.04,3.441,3.441,0,0,1,1.441,1.283,3.7,3.7,0,0,1,.535,2.023Q367.1,517.48,367.057,518.114Zm-4.681-2.155a1.191,1.191,0,0,0-.4.714h2.327a1.215,1.215,0,0,0-.4-.707,1.146,1.146,0,0,0-.767-.258A1.164,1.164,0,0,0,362.376,515.959Z" transform="translate(-342.607 -511.225)" fill="#141834"/>
        <path id="Path_69" data-name="Path 69" d="M455.124,514.524a3.254,3.254,0,0,1,1.005,2.625v3.888h-2.777v-.952a2.042,2.042,0,0,1-2.05,1.084,3.271,3.271,0,0,1-1.461-.3,2.1,2.1,0,0,1-1.223-1.951,1.84,1.84,0,0,1,.82-1.626,4.474,4.474,0,0,1,2.486-.555h1.2q-.146-.846-1.362-.846a3.417,3.417,0,0,0-.992.152,2.791,2.791,0,0,0-.86.417l-.952-1.97a5.26,5.26,0,0,1,1.5-.6,7.253,7.253,0,0,1,1.752-.218A4.38,4.38,0,0,1,455.124,514.524ZM452.77,519.2a.993.993,0,0,0,.37-.516v-.5H452.4q-.912,0-.912.608a.526.526,0,0,0,.192.416.772.772,0,0,0,.522.165A.983.983,0,0,0,452.77,519.2Z" transform="translate(-423.745 -511.225)" fill="#141834"/>
        <path id="Path_70" data-name="Path 70" d="M553.527,514.478a3.359,3.359,0,0,1,.787,2.433v4.126h-2.989v-3.61q0-1.243-.807-1.243a.834.834,0,0,0-.681.317,1.588,1.588,0,0,0-.258,1.005v3.531h-2.989v-3.61q0-1.243-.807-1.243a.834.834,0,0,0-.681.317,1.588,1.588,0,0,0-.258,1.005v3.531h-2.989V513.8H544.7v.674a2.778,2.778,0,0,1,2.05-.807,3.065,3.065,0,0,1,1.309.271,2.294,2.294,0,0,1,.952.826,2.942,2.942,0,0,1,1.058-.813,3.235,3.235,0,0,1,1.362-.284A2.8,2.8,0,0,1,553.527,514.478Z" transform="translate(-508.177 -511.225)" fill="#141834"/>
        <path id="Path_71" data-name="Path 71" d="M687.456,515.071h2.989V522.3h-2.989Z" transform="translate(-640.023 -512.492)" fill="#141834"/>
        <path id="Path_72" data-name="Path 72" d="M740.269,514.478a3.29,3.29,0,0,1,.813,2.433v4.126h-2.989v-3.61q0-1.243-.886-1.243a1.035,1.035,0,0,0-.813.35,1.636,1.636,0,0,0-.311,1.1v3.4h-2.988V513.8h2.843v.714a2.761,2.761,0,0,1,.979-.635,3.355,3.355,0,0,1,1.2-.212A2.919,2.919,0,0,1,740.269,514.478Z" transform="translate(-681.352 -511.225)" fill="#141834"/>
        <path id="Path_73" data-name="Path 73" d="M837.731,487.772v9.812h-2.843v-.595a2.523,2.523,0,0,1-1.984.727,3.476,3.476,0,0,1-1.752-.456,3.289,3.289,0,0,1-1.269-1.316,4.412,4.412,0,0,1,0-3.961,3.3,3.3,0,0,1,1.269-1.309,3.476,3.476,0,0,1,1.752-.456,2.521,2.521,0,0,1,1.838.622v-3.068Zm-3.266,7.24a1.542,1.542,0,0,0,.331-1.051,1.517,1.517,0,0,0-.331-1.045,1.153,1.153,0,0,0-1.693,0,1.516,1.516,0,0,0-.331,1.045,1.541,1.541,0,0,0,.331,1.051,1.139,1.139,0,0,0,1.693,0Z" transform="translate(-768.572 -487.772)" fill="#141834"/>
      </g>
      <rect id="Rectangle_16" data-name="Rectangle 16" width="2.989" height="1.732" transform="translate(47.433 0)" fill="#008fd3"/>
    </g>
    <path id="Path_74" data-name="Path 74" d="M175.393,467.629a8,8,0,1,1-6.033-14.28,8.014,8.014,0,0,0-2.511,9.476l0,.007v.716a.432.432,0,0,0,.432.432h.167a8.009,8.009,0,0,0,7.942,3.65Z" fill="#008fd3"/>
  </g>
</svg>
