<svg xmlns="http://www.w3.org/2000/svg" xmlns:xlink="http://www.w3.org/1999/xlink" width="1442" height="202.5" viewBox="0 0 1442 202.5">
  <defs>
    <filter id="Ellipse_1" x="513.5" y="0" width="114" height="177" filterUnits="userSpaceOnUse">
      <feOffset input="SourceAlpha"/>
      <feGaussianBlur stdDeviation="11.5" result="blur"/>
      <feFlood flood-color="#00a827"/>
      <feComposite operator="in" in2="blur"/>
      <feComposite in="SourceGraphic"/>
    </filter>
    <filter id="Ellipse_2" x="1014.5" y="1" width="114" height="174" filterUnits="userSpaceOnUse">
      <feOffset input="SourceAlpha"/>
      <feGaussianBlur stdDeviation="11.5" result="blur-2"/>
      <feFlood flood-color="#00a827"/>
      <feComposite operator="in" in2="blur-2"/>
      <feComposite in="SourceGraphic"/>
    </filter>
    <linearGradient id="linear-gradient" x1="0.841" y1="0.597" x2="0" y2="0.623" gradientUnits="objectBoundingBox">
      <stop offset="0" stop-color="#fff"/>
      <stop offset="1" stop-color="#fff" stop-opacity="0"/>
    </linearGradient>
    <linearGradient id="linear-gradient-2" x1="0.159" y1="0.597" x2="1" y2="0.623" xlink:href="#linear-gradient"/>
  </defs>
  <g id="Group_41" data-name="Group 41" transform="translate(0 -1624.5)">
    <g id="parking_lot">
      <line id="Line_11" data-name="Line 11" x2="1440" transform="translate(0.5 1640.5)" fill="none" stroke="#484848" stroke-width="2" stroke-dasharray="15 10"/>
      <line id="Line_12" data-name="Line 12" y2="145" transform="translate(720.5 1640.5)" fill="none" stroke="#484848" stroke-width="2" stroke-dasharray="15 10"/>
      <line id="Line_14" data-name="Line 14" y2="145" transform="translate(820.5 1640.5)" fill="none" stroke="#484848" stroke-width="2" stroke-dasharray="15 10"/>
      <line id="Line_15" data-name="Line 15" y2="145" transform="translate(920.5 1640.5)" fill="none" stroke="#484848" stroke-width="2" stroke-dasharray="15 10"/>
      <line id="Line_16" data-name="Line 16" y2="145" transform="translate(1020.5 1640.5)" fill="none" stroke="#484848" stroke-width="2" stroke-dasharray="15 10"/>
      <line id="Line_17" data-name="Line 17" y2="145" transform="translate(1120.5 1640.5)" fill="none" stroke="#484848" stroke-width="2" stroke-dasharray="15 10"/>
      <line id="Line_18" data-name="Line 18" y2="145" transform="translate(1220.5 1640.5)" fill="none" stroke="#484848" stroke-width="2" stroke-dasharray="15 10"/>
      <line id="Line_19" data-name="Line 19" y2="145" transform="translate(1320.5 1640.5)" fill="none" stroke="#484848" stroke-width="2" stroke-dasharray="15 10"/>
      <line id="Line_20" data-name="Line 20" y2="145" transform="translate(1420.5 1640.5)" fill="none" stroke="#484848" stroke-width="2" stroke-dasharray="15 10"/>
      <line id="Line_13" data-name="Line 13" y2="145" transform="translate(620.5 1640.5)" fill="none" stroke="#484848" stroke-width="2" stroke-dasharray="15 10"/>
      <line id="Line_21" data-name="Line 21" y2="145" transform="translate(520.5 1640.5)" fill="none" stroke="#484848" stroke-width="2" stroke-dasharray="15 10"/>
      <line id="Line_22" data-name="Line 22" y2="145" transform="translate(420.5 1640.5)" fill="none" stroke="#484848" stroke-width="2" stroke-dasharray="15 10"/>
      <line id="Line_23" data-name="Line 23" y2="145" transform="translate(320.5 1640.5)" fill="none" stroke="#484848" stroke-width="2" stroke-dasharray="15 10"/>
      <line id="Line_24" data-name="Line 24" y2="145" transform="translate(220.5 1640.5)" fill="none" stroke="#484848" stroke-width="2" stroke-dasharray="15 10"/>
      <line id="Line_25" data-name="Line 25" y2="145" transform="translate(120.5 1640.5)" fill="none" stroke="#484848" stroke-width="2" stroke-dasharray="15 10"/>
      <line id="Line_26" data-name="Line 26" y2="145" transform="translate(20.5 1640.5)" fill="none" stroke="#484848" stroke-width="2" stroke-dasharray="15 10"/>
    </g>
    <g id="cars">
      <g id="Group_26" data-name="Group 26" opacity="0.345">
        <g id="ic-car-red" transform="translate(343.771 1656)">
          <g id="Group_21" data-name="Group 21" transform="translate(0 0)">
            <g id="Group_20" data-name="Group 20">
              <g id="Group_19" data-name="Group 19">
                <path id="Path_50" data-name="Path 50" d="M12.03,50.195l-1.1,43.092c0,7.31,5.926,27.539,13.236,27.539H45.845c7.31,0,13.235-20.23,13.235-27.539l-1.1-43.092,3.323.818s.676-2.78-3.387-3.363l-.056-2.179a22.5,22.5,0,0,1,.09-2.56l.932-10.06c.605-6.541-1.62-14.933-6.265-19.578-3.993-3.993-10.2-4.611-16.295-4.611H33.688c-6.092,0-12.3.618-16.295,4.611-4.645,4.645-6.87,13.037-6.265,19.578l.931,10.06a22.348,22.348,0,0,1,.09,2.56l-.055,2.179c-4.063.583-3.387,3.363-3.387,3.363l3.323-.818" transform="translate(-3.085 -3.084)" fill="#f2f4f8" fill-rule="evenodd" opacity="0.29"/>
                <path id="Path_51" data-name="Path 51" d="M4.739,36.808a22.348,22.348,0,0,0-.09-2.56l-.931-10.06C3.113,17.647,5.338,9.255,9.983,4.61,13.975.618,20.185,0,26.278,0h2.635c6.093,0,12.3.618,16.295,4.61,4.645,4.645,6.871,13.037,6.266,19.578l-.932,10.06a22.5,22.5,0,0,0-.09,2.56L51.67,84.624c0,7.31-5.926,27.539-13.235,27.539H16.756c-7.309,0-13.235-20.23-13.235-27.539L4.739,36.808" transform="translate(-1.253 0)" fill="#e0e0e0" fill-rule="evenodd"/>
                <path id="Path_52" data-name="Path 52" d="M47.626,42.064c-.018-.814,2.441-4.534,2.516-5.345l.889-9.589C51.608,20.9,49.486,12.9,45.058,8.468c-3.805-3.806-9.725-4.4-15.532-4.4H27.014c-5.808,0-11.727.589-15.532,4.4C7.054,12.9,4.933,20.9,5.51,27.13L6.4,36.72c.074.811,2.533,4.531,2.515,5.345V86.536c0,6.968,2.057,24.454,9.025,24.454H38.6c6.968,0,9.025-17.486,9.025-24.454V42.064" transform="translate(-1.928 -1.45)" fill="#e0e0e0" fill-rule="evenodd"/>
                <path id="Path_53" data-name="Path 53" d="M5.056,60.374v2.237L.042,63.846s-.849-3.472,5.014-3.472" transform="translate(0 -21.495)" fill="#e0e0e0" fill-rule="evenodd"/>
                <path id="Path_54" data-name="Path 54" d="M9.77,84.884v.421c0,11.128.694,22.236.694,22.236s2.777-8.1,2.777-11.108v-10.9c-1.146-.272-2.307-.5-3.47-.653m3.471-.633V74.1c0-1.735-2.777-11.031-2.777-11.031s-.61,9.764-.686,20.154c1.17.287,2.321.642,3.463,1.028m36.629.633v.421c0,11.128-.694,22.236-.694,22.236S46.4,99.442,46.4,96.433v-10.9c1.147-.272,2.307-.5,3.471-.653M46.4,84.251V74.1c0-1.735,2.777-11.031,2.777-11.031s.61,9.764.686,20.154c-1.171.287-2.321.642-3.463,1.028" transform="translate(-3.478 -22.455)" fill="#3f4040" fill-rule="evenodd"/>
                <path id="Path_55" data-name="Path 55" d="M73.958,60.374v2.237l5.014,1.234s.849-3.472-5.014-3.472" transform="translate(-26.331 -21.495)" fill="#e0e0e0" fill-rule="evenodd"/>
                <path id="Path_56" data-name="Path 56" d="M44.141,98.853a73.333,73.333,0,0,1-14,1.766,73.333,73.333,0,0,1-14-1.766,1.1,1.1,0,0,0-1.352,1.037l-.509,14.67a1.1,1.1,0,0,0,.539.989c5.888,3.488,15.323,3,15.323,3s9.435.483,15.323-3a1.1,1.1,0,0,0,.54-.989l-.509-14.67a1.1,1.1,0,0,0-1.352-1.037ZM14.833,63.244,10.667,47.16s4.4-6.132,19.472-6.132S49.612,47.16,49.612,47.16L45.446,63.244a80.347,80.347,0,0,0-15.306-1.967A80.356,80.356,0,0,0,14.833,63.244Z" transform="translate(-3.798 -14.607)" fill="#393939" fill-rule="evenodd"/>
                <path id="Path_57" data-name="Path 57" d="M10.667,9.887c3.449-.86,5.68-4.79,5.541-5.814a11.994,11.994,0,0,0-2.737,2.036,17.235,17.235,0,0,0-2.8,3.778m38.945,0c-3.449-.86-5.68-4.79-5.541-5.814a11.994,11.994,0,0,1,2.737,2.036,17.235,17.235,0,0,1,2.8,3.778" transform="translate(-3.798 -1.45)" fill="#e8e7d2" fill-rule="evenodd"/>
              </g>
            </g>
          </g>
        </g>
        <g id="ic-car-red-2" data-name="ic-car-red" transform="translate(143.771 1656)">
          <g id="Group_21-2" data-name="Group 21" transform="translate(0 0)">
            <g id="Group_20-2" data-name="Group 20">
              <g id="Group_19-2" data-name="Group 19">
                <path id="Path_50-2" data-name="Path 50" d="M12.03,50.195l-1.1,43.092c0,7.31,5.926,27.539,13.236,27.539H45.845c7.31,0,13.235-20.23,13.235-27.539l-1.1-43.092,3.323.818s.676-2.78-3.387-3.363l-.056-2.179a22.5,22.5,0,0,1,.09-2.56l.932-10.06c.605-6.541-1.62-14.933-6.265-19.578-3.993-3.993-10.2-4.611-16.295-4.611H33.688c-6.092,0-12.3.618-16.295,4.611-4.645,4.645-6.87,13.037-6.265,19.578l.931,10.06a22.348,22.348,0,0,1,.09,2.56l-.055,2.179c-4.063.583-3.387,3.363-3.387,3.363l3.323-.818" transform="translate(-3.085 -3.084)" fill="#f2f4f8" fill-rule="evenodd" opacity="0.29"/>
                <path id="Path_51-2" data-name="Path 51" d="M4.739,36.808a22.348,22.348,0,0,0-.09-2.56l-.931-10.06C3.113,17.647,5.338,9.255,9.983,4.61,13.975.618,20.185,0,26.278,0h2.635c6.093,0,12.3.618,16.295,4.61,4.645,4.645,6.871,13.037,6.266,19.578l-.932,10.06a22.5,22.5,0,0,0-.09,2.56L51.67,84.624c0,7.31-5.926,27.539-13.235,27.539H16.756c-7.309,0-13.235-20.23-13.235-27.539L4.739,36.808" transform="translate(-1.253 0)" fill="#e0e0e0" fill-rule="evenodd"/>
                <path id="Path_52-2" data-name="Path 52" d="M47.626,42.064c-.018-.814,2.441-4.534,2.516-5.345l.889-9.589C51.608,20.9,49.486,12.9,45.058,8.468c-3.805-3.806-9.725-4.4-15.532-4.4H27.014c-5.808,0-11.727.589-15.532,4.4C7.054,12.9,4.933,20.9,5.51,27.13L6.4,36.72c.074.811,2.533,4.531,2.515,5.345V86.536c0,6.968,2.057,24.454,9.025,24.454H38.6c6.968,0,9.025-17.486,9.025-24.454V42.064" transform="translate(-1.928 -1.45)" fill="#e0e0e0" fill-rule="evenodd"/>
                <path id="Path_53-2" data-name="Path 53" d="M5.056,60.374v2.237L.042,63.846s-.849-3.472,5.014-3.472" transform="translate(0 -21.495)" fill="#e0e0e0" fill-rule="evenodd"/>
                <path id="Path_54-2" data-name="Path 54" d="M9.77,84.884v.421c0,11.128.694,22.236.694,22.236s2.777-8.1,2.777-11.108v-10.9c-1.146-.272-2.307-.5-3.47-.653m3.471-.633V74.1c0-1.735-2.777-11.031-2.777-11.031s-.61,9.764-.686,20.154c1.17.287,2.321.642,3.463,1.028m36.629.633v.421c0,11.128-.694,22.236-.694,22.236S46.4,99.442,46.4,96.433v-10.9c1.147-.272,2.307-.5,3.471-.653M46.4,84.251V74.1c0-1.735,2.777-11.031,2.777-11.031s.61,9.764.686,20.154c-1.171.287-2.321.642-3.463,1.028" transform="translate(-3.478 -22.455)" fill="#3f4040" fill-rule="evenodd"/>
                <path id="Path_55-2" data-name="Path 55" d="M73.958,60.374v2.237l5.014,1.234s.849-3.472-5.014-3.472" transform="translate(-26.331 -21.495)" fill="#e0e0e0" fill-rule="evenodd"/>
                <path id="Path_56-2" data-name="Path 56" d="M44.141,98.853a73.333,73.333,0,0,1-14,1.766,73.333,73.333,0,0,1-14-1.766,1.1,1.1,0,0,0-1.352,1.037l-.509,14.67a1.1,1.1,0,0,0,.539.989c5.888,3.488,15.323,3,15.323,3s9.435.483,15.323-3a1.1,1.1,0,0,0,.54-.989l-.509-14.67a1.1,1.1,0,0,0-1.352-1.037ZM14.833,63.244,10.667,47.16s4.4-6.132,19.472-6.132S49.612,47.16,49.612,47.16L45.446,63.244a80.347,80.347,0,0,0-15.306-1.967A80.356,80.356,0,0,0,14.833,63.244Z" transform="translate(-3.798 -14.607)" fill="#393939" fill-rule="evenodd"/>
                <path id="Path_57-2" data-name="Path 57" d="M10.667,9.887c3.449-.86,5.68-4.79,5.541-5.814a11.994,11.994,0,0,0-2.737,2.036,17.235,17.235,0,0,0-2.8,3.778m38.945,0c-3.449-.86-5.68-4.79-5.541-5.814a11.994,11.994,0,0,1,2.737,2.036,17.235,17.235,0,0,1,2.8,3.778" transform="translate(-3.798 -1.45)" fill="#e8e7d2" fill-rule="evenodd"/>
              </g>
            </g>
          </g>
        </g>
        <g id="ic-car-red-3" data-name="ic-car-red" transform="translate(643.771 1656)">
          <g id="Group_21-3" data-name="Group 21" transform="translate(0 0)">
            <g id="Group_20-3" data-name="Group 20">
              <g id="Group_19-3" data-name="Group 19">
                <path id="Path_50-3" data-name="Path 50" d="M12.03,50.195l-1.1,43.092c0,7.31,5.926,27.539,13.236,27.539H45.845c7.31,0,13.235-20.23,13.235-27.539l-1.1-43.092,3.323.818s.676-2.78-3.387-3.363l-.056-2.179a22.5,22.5,0,0,1,.09-2.56l.932-10.06c.605-6.541-1.62-14.933-6.265-19.578-3.993-3.993-10.2-4.611-16.295-4.611H33.688c-6.092,0-12.3.618-16.295,4.611-4.645,4.645-6.87,13.037-6.265,19.578l.931,10.06a22.348,22.348,0,0,1,.09,2.56l-.055,2.179c-4.063.583-3.387,3.363-3.387,3.363l3.323-.818" transform="translate(-3.085 -3.084)" fill="#f2f4f8" fill-rule="evenodd" opacity="0.29"/>
                <path id="Path_51-3" data-name="Path 51" d="M4.739,36.808a22.348,22.348,0,0,0-.09-2.56l-.931-10.06C3.113,17.647,5.338,9.255,9.983,4.61,13.975.618,20.185,0,26.278,0h2.635c6.093,0,12.3.618,16.295,4.61,4.645,4.645,6.871,13.037,6.266,19.578l-.932,10.06a22.5,22.5,0,0,0-.09,2.56L51.67,84.624c0,7.31-5.926,27.539-13.235,27.539H16.756c-7.309,0-13.235-20.23-13.235-27.539L4.739,36.808" transform="translate(-1.253 0)" fill="#e0e0e0" fill-rule="evenodd"/>
                <path id="Path_52-3" data-name="Path 52" d="M47.626,42.064c-.018-.814,2.441-4.534,2.516-5.345l.889-9.589C51.608,20.9,49.486,12.9,45.058,8.468c-3.805-3.806-9.725-4.4-15.532-4.4H27.014c-5.808,0-11.727.589-15.532,4.4C7.054,12.9,4.933,20.9,5.51,27.13L6.4,36.72c.074.811,2.533,4.531,2.515,5.345V86.536c0,6.968,2.057,24.454,9.025,24.454H38.6c6.968,0,9.025-17.486,9.025-24.454V42.064" transform="translate(-1.928 -1.45)" fill="#e0e0e0" fill-rule="evenodd"/>
                <path id="Path_53-3" data-name="Path 53" d="M5.056,60.374v2.237L.042,63.846s-.849-3.472,5.014-3.472" transform="translate(0 -21.495)" fill="#e0e0e0" fill-rule="evenodd"/>
                <path id="Path_54-3" data-name="Path 54" d="M9.77,84.884v.421c0,11.128.694,22.236.694,22.236s2.777-8.1,2.777-11.108v-10.9c-1.146-.272-2.307-.5-3.47-.653m3.471-.633V74.1c0-1.735-2.777-11.031-2.777-11.031s-.61,9.764-.686,20.154c1.17.287,2.321.642,3.463,1.028m36.629.633v.421c0,11.128-.694,22.236-.694,22.236S46.4,99.442,46.4,96.433v-10.9c1.147-.272,2.307-.5,3.471-.653M46.4,84.251V74.1c0-1.735,2.777-11.031,2.777-11.031s.61,9.764.686,20.154c-1.171.287-2.321.642-3.463,1.028" transform="translate(-3.478 -22.455)" fill="#3f4040" fill-rule="evenodd"/>
                <path id="Path_55-3" data-name="Path 55" d="M73.958,60.374v2.237l5.014,1.234s.849-3.472-5.014-3.472" transform="translate(-26.331 -21.495)" fill="#e0e0e0" fill-rule="evenodd"/>
                <path id="Path_56-3" data-name="Path 56" d="M44.141,98.853a73.333,73.333,0,0,1-14,1.766,73.333,73.333,0,0,1-14-1.766,1.1,1.1,0,0,0-1.352,1.037l-.509,14.67a1.1,1.1,0,0,0,.539.989c5.888,3.488,15.323,3,15.323,3s9.435.483,15.323-3a1.1,1.1,0,0,0,.54-.989l-.509-14.67a1.1,1.1,0,0,0-1.352-1.037ZM14.833,63.244,10.667,47.16s4.4-6.132,19.472-6.132S49.612,47.16,49.612,47.16L45.446,63.244a80.347,80.347,0,0,0-15.306-1.967A80.356,80.356,0,0,0,14.833,63.244Z" transform="translate(-3.798 -14.607)" fill="#393939" fill-rule="evenodd"/>
                <path id="Path_57-3" data-name="Path 57" d="M10.667,9.887c3.449-.86,5.68-4.79,5.541-5.814a11.994,11.994,0,0,0-2.737,2.036,17.235,17.235,0,0,0-2.8,3.778m38.945,0c-3.449-.86-5.68-4.79-5.541-5.814a11.994,11.994,0,0,1,2.737,2.036,17.235,17.235,0,0,1,2.8,3.778" transform="translate(-3.798 -1.45)" fill="#e8e7d2" fill-rule="evenodd"/>
              </g>
            </g>
          </g>
        </g>
        <g id="ic-car-red-4" data-name="ic-car-red" transform="translate(844.771 1656)">
          <g id="Group_21-4" data-name="Group 21" transform="translate(0 0)">
            <g id="Group_20-4" data-name="Group 20">
              <g id="Group_19-4" data-name="Group 19">
                <path id="Path_50-4" data-name="Path 50" d="M12.03,50.195l-1.1,43.092c0,7.31,5.926,27.539,13.236,27.539H45.845c7.31,0,13.235-20.23,13.235-27.539l-1.1-43.092,3.323.818s.676-2.78-3.387-3.363l-.056-2.179a22.5,22.5,0,0,1,.09-2.56l.932-10.06c.605-6.541-1.62-14.933-6.265-19.578-3.993-3.993-10.2-4.611-16.295-4.611H33.688c-6.092,0-12.3.618-16.295,4.611-4.645,4.645-6.87,13.037-6.265,19.578l.931,10.06a22.348,22.348,0,0,1,.09,2.56l-.055,2.179c-4.063.583-3.387,3.363-3.387,3.363l3.323-.818" transform="translate(-3.085 -3.084)" fill="#f2f4f8" fill-rule="evenodd" opacity="0.29"/>
                <path id="Path_51-4" data-name="Path 51" d="M4.739,36.808a22.348,22.348,0,0,0-.09-2.56l-.931-10.06C3.113,17.647,5.338,9.255,9.983,4.61,13.975.618,20.185,0,26.278,0h2.635c6.093,0,12.3.618,16.295,4.61,4.645,4.645,6.871,13.037,6.266,19.578l-.932,10.06a22.5,22.5,0,0,0-.09,2.56L51.67,84.624c0,7.31-5.926,27.539-13.235,27.539H16.756c-7.309,0-13.235-20.23-13.235-27.539L4.739,36.808" transform="translate(-1.253 0)" fill="#e0e0e0" fill-rule="evenodd"/>
                <path id="Path_52-4" data-name="Path 52" d="M47.626,42.064c-.018-.814,2.441-4.534,2.516-5.345l.889-9.589C51.608,20.9,49.486,12.9,45.058,8.468c-3.805-3.806-9.725-4.4-15.532-4.4H27.014c-5.808,0-11.727.589-15.532,4.4C7.054,12.9,4.933,20.9,5.51,27.13L6.4,36.72c.074.811,2.533,4.531,2.515,5.345V86.536c0,6.968,2.057,24.454,9.025,24.454H38.6c6.968,0,9.025-17.486,9.025-24.454V42.064" transform="translate(-1.928 -1.45)" fill="#e0e0e0" fill-rule="evenodd"/>
                <path id="Path_53-4" data-name="Path 53" d="M5.056,60.374v2.237L.042,63.846s-.849-3.472,5.014-3.472" transform="translate(0 -21.495)" fill="#e0e0e0" fill-rule="evenodd"/>
                <path id="Path_54-4" data-name="Path 54" d="M9.77,84.884v.421c0,11.128.694,22.236.694,22.236s2.777-8.1,2.777-11.108v-10.9c-1.146-.272-2.307-.5-3.47-.653m3.471-.633V74.1c0-1.735-2.777-11.031-2.777-11.031s-.61,9.764-.686,20.154c1.17.287,2.321.642,3.463,1.028m36.629.633v.421c0,11.128-.694,22.236-.694,22.236S46.4,99.442,46.4,96.433v-10.9c1.147-.272,2.307-.5,3.471-.653M46.4,84.251V74.1c0-1.735,2.777-11.031,2.777-11.031s.61,9.764.686,20.154c-1.171.287-2.321.642-3.463,1.028" transform="translate(-3.478 -22.455)" fill="#3f4040" fill-rule="evenodd"/>
                <path id="Path_55-4" data-name="Path 55" d="M73.958,60.374v2.237l5.014,1.234s.849-3.472-5.014-3.472" transform="translate(-26.331 -21.495)" fill="#e0e0e0" fill-rule="evenodd"/>
                <path id="Path_56-4" data-name="Path 56" d="M44.141,98.853a73.333,73.333,0,0,1-14,1.766,73.333,73.333,0,0,1-14-1.766,1.1,1.1,0,0,0-1.352,1.037l-.509,14.67a1.1,1.1,0,0,0,.539.989c5.888,3.488,15.323,3,15.323,3s9.435.483,15.323-3a1.1,1.1,0,0,0,.54-.989l-.509-14.67a1.1,1.1,0,0,0-1.352-1.037ZM14.833,63.244,10.667,47.16s4.4-6.132,19.472-6.132S49.612,47.16,49.612,47.16L45.446,63.244a80.347,80.347,0,0,0-15.306-1.967A80.356,80.356,0,0,0,14.833,63.244Z" transform="translate(-3.798 -14.607)" fill="#393939" fill-rule="evenodd"/>
                <path id="Path_57-4" data-name="Path 57" d="M10.667,9.887c3.449-.86,5.68-4.79,5.541-5.814a11.994,11.994,0,0,0-2.737,2.036,17.235,17.235,0,0,0-2.8,3.778m38.945,0c-3.449-.86-5.68-4.79-5.541-5.814a11.994,11.994,0,0,1,2.737,2.036,17.235,17.235,0,0,1,2.8,3.778" transform="translate(-3.798 -1.45)" fill="#e8e7d2" fill-rule="evenodd"/>
              </g>
            </g>
          </g>
        </g>
        <g id="ic-car-red-5" data-name="ic-car-red" transform="translate(1146.771 1656)">
          <g id="Group_21-5" data-name="Group 21" transform="translate(0 0)">
            <g id="Group_20-5" data-name="Group 20">
              <g id="Group_19-5" data-name="Group 19">
                <path id="Path_50-5" data-name="Path 50" d="M12.03,50.195l-1.1,43.092c0,7.31,5.926,27.539,13.236,27.539H45.845c7.31,0,13.235-20.23,13.235-27.539l-1.1-43.092,3.323.818s.676-2.78-3.387-3.363l-.056-2.179a22.5,22.5,0,0,1,.09-2.56l.932-10.06c.605-6.541-1.62-14.933-6.265-19.578-3.993-3.993-10.2-4.611-16.295-4.611H33.688c-6.092,0-12.3.618-16.295,4.611-4.645,4.645-6.87,13.037-6.265,19.578l.931,10.06a22.348,22.348,0,0,1,.09,2.56l-.055,2.179c-4.063.583-3.387,3.363-3.387,3.363l3.323-.818" transform="translate(-3.085 -3.084)" fill="#f2f4f8" fill-rule="evenodd" opacity="0.29"/>
                <path id="Path_51-5" data-name="Path 51" d="M4.739,36.808a22.348,22.348,0,0,0-.09-2.56l-.931-10.06C3.113,17.647,5.338,9.255,9.983,4.61,13.975.618,20.185,0,26.278,0h2.635c6.093,0,12.3.618,16.295,4.61,4.645,4.645,6.871,13.037,6.266,19.578l-.932,10.06a22.5,22.5,0,0,0-.09,2.56L51.67,84.624c0,7.31-5.926,27.539-13.235,27.539H16.756c-7.309,0-13.235-20.23-13.235-27.539L4.739,36.808" transform="translate(-1.253 0)" fill="#e0e0e0" fill-rule="evenodd"/>
                <path id="Path_52-5" data-name="Path 52" d="M47.626,42.064c-.018-.814,2.441-4.534,2.516-5.345l.889-9.589C51.608,20.9,49.486,12.9,45.058,8.468c-3.805-3.806-9.725-4.4-15.532-4.4H27.014c-5.808,0-11.727.589-15.532,4.4C7.054,12.9,4.933,20.9,5.51,27.13L6.4,36.72c.074.811,2.533,4.531,2.515,5.345V86.536c0,6.968,2.057,24.454,9.025,24.454H38.6c6.968,0,9.025-17.486,9.025-24.454V42.064" transform="translate(-1.928 -1.45)" fill="#e0e0e0" fill-rule="evenodd"/>
                <path id="Path_53-5" data-name="Path 53" d="M5.056,60.374v2.237L.042,63.846s-.849-3.472,5.014-3.472" transform="translate(0 -21.495)" fill="#e0e0e0" fill-rule="evenodd"/>
                <path id="Path_54-5" data-name="Path 54" d="M9.77,84.884v.421c0,11.128.694,22.236.694,22.236s2.777-8.1,2.777-11.108v-10.9c-1.146-.272-2.307-.5-3.47-.653m3.471-.633V74.1c0-1.735-2.777-11.031-2.777-11.031s-.61,9.764-.686,20.154c1.17.287,2.321.642,3.463,1.028m36.629.633v.421c0,11.128-.694,22.236-.694,22.236S46.4,99.442,46.4,96.433v-10.9c1.147-.272,2.307-.5,3.471-.653M46.4,84.251V74.1c0-1.735,2.777-11.031,2.777-11.031s.61,9.764.686,20.154c-1.171.287-2.321.642-3.463,1.028" transform="translate(-3.478 -22.455)" fill="#3f4040" fill-rule="evenodd"/>
                <path id="Path_55-5" data-name="Path 55" d="M73.958,60.374v2.237l5.014,1.234s.849-3.472-5.014-3.472" transform="translate(-26.331 -21.495)" fill="#e0e0e0" fill-rule="evenodd"/>
                <path id="Path_56-5" data-name="Path 56" d="M44.141,98.853a73.333,73.333,0,0,1-14,1.766,73.333,73.333,0,0,1-14-1.766,1.1,1.1,0,0,0-1.352,1.037l-.509,14.67a1.1,1.1,0,0,0,.539.989c5.888,3.488,15.323,3,15.323,3s9.435.483,15.323-3a1.1,1.1,0,0,0,.54-.989l-.509-14.67a1.1,1.1,0,0,0-1.352-1.037ZM14.833,63.244,10.667,47.16s4.4-6.132,19.472-6.132S49.612,47.16,49.612,47.16L45.446,63.244a80.347,80.347,0,0,0-15.306-1.967A80.356,80.356,0,0,0,14.833,63.244Z" transform="translate(-3.798 -14.607)" fill="#393939" fill-rule="evenodd"/>
                <path id="Path_57-5" data-name="Path 57" d="M10.667,9.887c3.449-.86,5.68-4.79,5.541-5.814a11.994,11.994,0,0,0-2.737,2.036,17.235,17.235,0,0,0-2.8,3.778m38.945,0c-3.449-.86-5.68-4.79-5.541-5.814a11.994,11.994,0,0,1,2.737,2.036,17.235,17.235,0,0,1,2.8,3.778" transform="translate(-3.798 -1.45)" fill="#e8e7d2" fill-rule="evenodd"/>
              </g>
            </g>
          </g>
        </g>
        <g id="ic-car-red-6" data-name="ic-car-red" transform="translate(443.771 1656)">
          <g id="Group_21-6" data-name="Group 21" transform="translate(0 0)">
            <g id="Group_20-6" data-name="Group 20">
              <g id="Group_19-6" data-name="Group 19">
                <path id="Path_50-6" data-name="Path 50" d="M12.03,50.195l-1.1,43.092c0,7.31,5.926,27.539,13.236,27.539H45.845c7.31,0,13.235-20.23,13.235-27.539l-1.1-43.092,3.323.818s.676-2.78-3.387-3.363l-.056-2.179a22.5,22.5,0,0,1,.09-2.56l.932-10.06c.605-6.541-1.62-14.933-6.265-19.578-3.993-3.993-10.2-4.611-16.295-4.611H33.688c-6.092,0-12.3.618-16.295,4.611-4.645,4.645-6.87,13.037-6.265,19.578l.931,10.06a22.348,22.348,0,0,1,.09,2.56l-.055,2.179c-4.063.583-3.387,3.363-3.387,3.363l3.323-.818" transform="translate(-3.085 -3.084)" fill="#f2f4f8" fill-rule="evenodd" opacity="0.29"/>
                <path id="Path_51-6" data-name="Path 51" d="M4.739,36.808a22.348,22.348,0,0,0-.09-2.56l-.931-10.06C3.113,17.647,5.338,9.255,9.983,4.61,13.975.618,20.185,0,26.278,0h2.635c6.093,0,12.3.618,16.295,4.61,4.645,4.645,6.871,13.037,6.266,19.578l-.932,10.06a22.5,22.5,0,0,0-.09,2.56L51.67,84.624c0,7.31-5.926,27.539-13.235,27.539H16.756c-7.309,0-13.235-20.23-13.235-27.539L4.739,36.808" transform="translate(-1.253 0)" fill="#e0e0e0" fill-rule="evenodd"/>
                <path id="Path_52-6" data-name="Path 52" d="M47.626,42.064c-.018-.814,2.441-4.534,2.516-5.345l.889-9.589C51.608,20.9,49.486,12.9,45.058,8.468c-3.805-3.806-9.725-4.4-15.532-4.4H27.014c-5.808,0-11.727.589-15.532,4.4C7.054,12.9,4.933,20.9,5.51,27.13L6.4,36.72c.074.811,2.533,4.531,2.515,5.345V86.536c0,6.968,2.057,24.454,9.025,24.454H38.6c6.968,0,9.025-17.486,9.025-24.454V42.064" transform="translate(-1.928 -1.45)" fill="#e0e0e0" fill-rule="evenodd"/>
                <path id="Path_53-6" data-name="Path 53" d="M5.056,60.374v2.237L.042,63.846s-.849-3.472,5.014-3.472" transform="translate(0 -21.495)" fill="#e0e0e0" fill-rule="evenodd"/>
                <path id="Path_54-6" data-name="Path 54" d="M9.77,84.884v.421c0,11.128.694,22.236.694,22.236s2.777-8.1,2.777-11.108v-10.9c-1.146-.272-2.307-.5-3.47-.653m3.471-.633V74.1c0-1.735-2.777-11.031-2.777-11.031s-.61,9.764-.686,20.154c1.17.287,2.321.642,3.463,1.028m36.629.633v.421c0,11.128-.694,22.236-.694,22.236S46.4,99.442,46.4,96.433v-10.9c1.147-.272,2.307-.5,3.471-.653M46.4,84.251V74.1c0-1.735,2.777-11.031,2.777-11.031s.61,9.764.686,20.154c-1.171.287-2.321.642-3.463,1.028" transform="translate(-3.478 -22.455)" fill="#3f4040" fill-rule="evenodd"/>
                <path id="Path_55-6" data-name="Path 55" d="M73.958,60.374v2.237l5.014,1.234s.849-3.472-5.014-3.472" transform="translate(-26.331 -21.495)" fill="#e0e0e0" fill-rule="evenodd"/>
                <path id="Path_56-6" data-name="Path 56" d="M44.141,98.853a73.333,73.333,0,0,1-14,1.766,73.333,73.333,0,0,1-14-1.766,1.1,1.1,0,0,0-1.352,1.037l-.509,14.67a1.1,1.1,0,0,0,.539.989c5.888,3.488,15.323,3,15.323,3s9.435.483,15.323-3a1.1,1.1,0,0,0,.54-.989l-.509-14.67a1.1,1.1,0,0,0-1.352-1.037ZM14.833,63.244,10.667,47.16s4.4-6.132,19.472-6.132S49.612,47.16,49.612,47.16L45.446,63.244a80.347,80.347,0,0,0-15.306-1.967A80.356,80.356,0,0,0,14.833,63.244Z" transform="translate(-3.798 -14.607)" fill="#393939" fill-rule="evenodd"/>
                <path id="Path_57-6" data-name="Path 57" d="M10.667,9.887c3.449-.86,5.68-4.79,5.541-5.814a11.994,11.994,0,0,0-2.737,2.036,17.235,17.235,0,0,0-2.8,3.778m38.945,0c-3.449-.86-5.68-4.79-5.541-5.814a11.994,11.994,0,0,1,2.737,2.036,17.235,17.235,0,0,1,2.8,3.778" transform="translate(-3.798 -1.45)" fill="#e8e7d2" fill-rule="evenodd"/>
              </g>
            </g>
          </g>
        </g>
        <g id="ic-car-red-7" data-name="ic-car-red" transform="translate(243.771 1656)">
          <g id="Group_21-7" data-name="Group 21" transform="translate(0 0)">
            <g id="Group_20-7" data-name="Group 20">
              <g id="Group_19-7" data-name="Group 19">
                <path id="Path_50-7" data-name="Path 50" d="M12.03,50.195l-1.1,43.092c0,7.31,5.926,27.539,13.236,27.539H45.845c7.31,0,13.235-20.23,13.235-27.539l-1.1-43.092,3.323.818s.676-2.78-3.387-3.363l-.056-2.179a22.5,22.5,0,0,1,.09-2.56l.932-10.06c.605-6.541-1.62-14.933-6.265-19.578-3.993-3.993-10.2-4.611-16.295-4.611H33.688c-6.092,0-12.3.618-16.295,4.611-4.645,4.645-6.87,13.037-6.265,19.578l.931,10.06a22.348,22.348,0,0,1,.09,2.56l-.055,2.179c-4.063.583-3.387,3.363-3.387,3.363l3.323-.818" transform="translate(-3.085 -3.084)" fill="#f2f4f8" fill-rule="evenodd" opacity="0.29"/>
                <path id="Path_51-7" data-name="Path 51" d="M4.739,36.808a22.348,22.348,0,0,0-.09-2.56l-.931-10.06C3.113,17.647,5.338,9.255,9.983,4.61,13.975.618,20.185,0,26.278,0h2.635c6.093,0,12.3.618,16.295,4.61,4.645,4.645,6.871,13.037,6.266,19.578l-.932,10.06a22.5,22.5,0,0,0-.09,2.56L51.67,84.624c0,7.31-5.926,27.539-13.235,27.539H16.756c-7.309,0-13.235-20.23-13.235-27.539L4.739,36.808" transform="translate(-1.253 0)" fill="#e0e0e0" fill-rule="evenodd"/>
                <path id="Path_52-7" data-name="Path 52" d="M47.626,42.064c-.018-.814,2.441-4.534,2.516-5.345l.889-9.589C51.608,20.9,49.486,12.9,45.058,8.468c-3.805-3.806-9.725-4.4-15.532-4.4H27.014c-5.808,0-11.727.589-15.532,4.4C7.054,12.9,4.933,20.9,5.51,27.13L6.4,36.72c.074.811,2.533,4.531,2.515,5.345V86.536c0,6.968,2.057,24.454,9.025,24.454H38.6c6.968,0,9.025-17.486,9.025-24.454V42.064" transform="translate(-1.928 -1.45)" fill="#e0e0e0" fill-rule="evenodd"/>
                <path id="Path_53-7" data-name="Path 53" d="M5.056,60.374v2.237L.042,63.846s-.849-3.472,5.014-3.472" transform="translate(0 -21.495)" fill="#e0e0e0" fill-rule="evenodd"/>
                <path id="Path_54-7" data-name="Path 54" d="M9.77,84.884v.421c0,11.128.694,22.236.694,22.236s2.777-8.1,2.777-11.108v-10.9c-1.146-.272-2.307-.5-3.47-.653m3.471-.633V74.1c0-1.735-2.777-11.031-2.777-11.031s-.61,9.764-.686,20.154c1.17.287,2.321.642,3.463,1.028m36.629.633v.421c0,11.128-.694,22.236-.694,22.236S46.4,99.442,46.4,96.433v-10.9c1.147-.272,2.307-.5,3.471-.653M46.4,84.251V74.1c0-1.735,2.777-11.031,2.777-11.031s.61,9.764.686,20.154c-1.171.287-2.321.642-3.463,1.028" transform="translate(-3.478 -22.455)" fill="#3f4040" fill-rule="evenodd"/>
                <path id="Path_55-7" data-name="Path 55" d="M73.958,60.374v2.237l5.014,1.234s.849-3.472-5.014-3.472" transform="translate(-26.331 -21.495)" fill="#e0e0e0" fill-rule="evenodd"/>
                <path id="Path_56-7" data-name="Path 56" d="M44.141,98.853a73.333,73.333,0,0,1-14,1.766,73.333,73.333,0,0,1-14-1.766,1.1,1.1,0,0,0-1.352,1.037l-.509,14.67a1.1,1.1,0,0,0,.539.989c5.888,3.488,15.323,3,15.323,3s9.435.483,15.323-3a1.1,1.1,0,0,0,.54-.989l-.509-14.67a1.1,1.1,0,0,0-1.352-1.037ZM14.833,63.244,10.667,47.16s4.4-6.132,19.472-6.132S49.612,47.16,49.612,47.16L45.446,63.244a80.347,80.347,0,0,0-15.306-1.967A80.356,80.356,0,0,0,14.833,63.244Z" transform="translate(-3.798 -14.607)" fill="#393939" fill-rule="evenodd"/>
                <path id="Path_57-7" data-name="Path 57" d="M10.667,9.887c3.449-.86,5.68-4.79,5.541-5.814a11.994,11.994,0,0,0-2.737,2.036,17.235,17.235,0,0,0-2.8,3.778m38.945,0c-3.449-.86-5.68-4.79-5.541-5.814a11.994,11.994,0,0,1,2.737,2.036,17.235,17.235,0,0,1,2.8,3.778" transform="translate(-3.798 -1.45)" fill="#e8e7d2" fill-rule="evenodd"/>
              </g>
            </g>
          </g>
        </g>
        <g id="ic-car-red-8" data-name="ic-car-red" transform="translate(743.771 1656)">
          <g id="Group_21-8" data-name="Group 21" transform="translate(0 0)">
            <g id="Group_20-8" data-name="Group 20">
              <g id="Group_19-8" data-name="Group 19">
                <path id="Path_50-8" data-name="Path 50" d="M12.03,50.195l-1.1,43.092c0,7.31,5.926,27.539,13.236,27.539H45.845c7.31,0,13.235-20.23,13.235-27.539l-1.1-43.092,3.323.818s.676-2.78-3.387-3.363l-.056-2.179a22.5,22.5,0,0,1,.09-2.56l.932-10.06c.605-6.541-1.62-14.933-6.265-19.578-3.993-3.993-10.2-4.611-16.295-4.611H33.688c-6.092,0-12.3.618-16.295,4.611-4.645,4.645-6.87,13.037-6.265,19.578l.931,10.06a22.348,22.348,0,0,1,.09,2.56l-.055,2.179c-4.063.583-3.387,3.363-3.387,3.363l3.323-.818" transform="translate(-3.085 -3.084)" fill="#f2f4f8" fill-rule="evenodd" opacity="0.29"/>
                <path id="Path_51-8" data-name="Path 51" d="M4.739,36.808a22.348,22.348,0,0,0-.09-2.56l-.931-10.06C3.113,17.647,5.338,9.255,9.983,4.61,13.975.618,20.185,0,26.278,0h2.635c6.093,0,12.3.618,16.295,4.61,4.645,4.645,6.871,13.037,6.266,19.578l-.932,10.06a22.5,22.5,0,0,0-.09,2.56L51.67,84.624c0,7.31-5.926,27.539-13.235,27.539H16.756c-7.309,0-13.235-20.23-13.235-27.539L4.739,36.808" transform="translate(-1.253 0)" fill="#e0e0e0" fill-rule="evenodd"/>
                <path id="Path_52-8" data-name="Path 52" d="M47.626,42.064c-.018-.814,2.441-4.534,2.516-5.345l.889-9.589C51.608,20.9,49.486,12.9,45.058,8.468c-3.805-3.806-9.725-4.4-15.532-4.4H27.014c-5.808,0-11.727.589-15.532,4.4C7.054,12.9,4.933,20.9,5.51,27.13L6.4,36.72c.074.811,2.533,4.531,2.515,5.345V86.536c0,6.968,2.057,24.454,9.025,24.454H38.6c6.968,0,9.025-17.486,9.025-24.454V42.064" transform="translate(-1.928 -1.45)" fill="#e0e0e0" fill-rule="evenodd"/>
                <path id="Path_53-8" data-name="Path 53" d="M5.056,60.374v2.237L.042,63.846s-.849-3.472,5.014-3.472" transform="translate(0 -21.495)" fill="#e0e0e0" fill-rule="evenodd"/>
                <path id="Path_54-8" data-name="Path 54" d="M9.77,84.884v.421c0,11.128.694,22.236.694,22.236s2.777-8.1,2.777-11.108v-10.9c-1.146-.272-2.307-.5-3.47-.653m3.471-.633V74.1c0-1.735-2.777-11.031-2.777-11.031s-.61,9.764-.686,20.154c1.17.287,2.321.642,3.463,1.028m36.629.633v.421c0,11.128-.694,22.236-.694,22.236S46.4,99.442,46.4,96.433v-10.9c1.147-.272,2.307-.5,3.471-.653M46.4,84.251V74.1c0-1.735,2.777-11.031,2.777-11.031s.61,9.764.686,20.154c-1.171.287-2.321.642-3.463,1.028" transform="translate(-3.478 -22.455)" fill="#3f4040" fill-rule="evenodd"/>
                <path id="Path_55-8" data-name="Path 55" d="M73.958,60.374v2.237l5.014,1.234s.849-3.472-5.014-3.472" transform="translate(-26.331 -21.495)" fill="#e0e0e0" fill-rule="evenodd"/>
                <path id="Path_56-8" data-name="Path 56" d="M44.141,98.853a73.333,73.333,0,0,1-14,1.766,73.333,73.333,0,0,1-14-1.766,1.1,1.1,0,0,0-1.352,1.037l-.509,14.67a1.1,1.1,0,0,0,.539.989c5.888,3.488,15.323,3,15.323,3s9.435.483,15.323-3a1.1,1.1,0,0,0,.54-.989l-.509-14.67a1.1,1.1,0,0,0-1.352-1.037ZM14.833,63.244,10.667,47.16s4.4-6.132,19.472-6.132S49.612,47.16,49.612,47.16L45.446,63.244a80.347,80.347,0,0,0-15.306-1.967A80.356,80.356,0,0,0,14.833,63.244Z" transform="translate(-3.798 -14.607)" fill="#393939" fill-rule="evenodd"/>
                <path id="Path_57-8" data-name="Path 57" d="M10.667,9.887c3.449-.86,5.68-4.79,5.541-5.814a11.994,11.994,0,0,0-2.737,2.036,17.235,17.235,0,0,0-2.8,3.778m38.945,0c-3.449-.86-5.68-4.79-5.541-5.814a11.994,11.994,0,0,1,2.737,2.036,17.235,17.235,0,0,1,2.8,3.778" transform="translate(-3.798 -1.45)" fill="#e8e7d2" fill-rule="evenodd"/>
              </g>
            </g>
          </g>
        </g>
        <g id="ic-car-red-9" data-name="ic-car-red" transform="translate(944.771 1656)">
          <g id="Group_21-9" data-name="Group 21" transform="translate(0 0)">
            <g id="Group_20-9" data-name="Group 20">
              <g id="Group_19-9" data-name="Group 19">
                <path id="Path_50-9" data-name="Path 50" d="M12.03,50.195l-1.1,43.092c0,7.31,5.926,27.539,13.236,27.539H45.845c7.31,0,13.235-20.23,13.235-27.539l-1.1-43.092,3.323.818s.676-2.78-3.387-3.363l-.056-2.179a22.5,22.5,0,0,1,.09-2.56l.932-10.06c.605-6.541-1.62-14.933-6.265-19.578-3.993-3.993-10.2-4.611-16.295-4.611H33.688c-6.092,0-12.3.618-16.295,4.611-4.645,4.645-6.87,13.037-6.265,19.578l.931,10.06a22.348,22.348,0,0,1,.09,2.56l-.055,2.179c-4.063.583-3.387,3.363-3.387,3.363l3.323-.818" transform="translate(-3.085 -3.084)" fill="#f2f4f8" fill-rule="evenodd" opacity="0.29"/>
                <path id="Path_51-9" data-name="Path 51" d="M4.739,36.808a22.348,22.348,0,0,0-.09-2.56l-.931-10.06C3.113,17.647,5.338,9.255,9.983,4.61,13.975.618,20.185,0,26.278,0h2.635c6.093,0,12.3.618,16.295,4.61,4.645,4.645,6.871,13.037,6.266,19.578l-.932,10.06a22.5,22.5,0,0,0-.09,2.56L51.67,84.624c0,7.31-5.926,27.539-13.235,27.539H16.756c-7.309,0-13.235-20.23-13.235-27.539L4.739,36.808" transform="translate(-1.253 0)" fill="#e0e0e0" fill-rule="evenodd"/>
                <path id="Path_52-9" data-name="Path 52" d="M47.626,42.064c-.018-.814,2.441-4.534,2.516-5.345l.889-9.589C51.608,20.9,49.486,12.9,45.058,8.468c-3.805-3.806-9.725-4.4-15.532-4.4H27.014c-5.808,0-11.727.589-15.532,4.4C7.054,12.9,4.933,20.9,5.51,27.13L6.4,36.72c.074.811,2.533,4.531,2.515,5.345V86.536c0,6.968,2.057,24.454,9.025,24.454H38.6c6.968,0,9.025-17.486,9.025-24.454V42.064" transform="translate(-1.928 -1.45)" fill="#e0e0e0" fill-rule="evenodd"/>
                <path id="Path_53-9" data-name="Path 53" d="M5.056,60.374v2.237L.042,63.846s-.849-3.472,5.014-3.472" transform="translate(0 -21.495)" fill="#e0e0e0" fill-rule="evenodd"/>
                <path id="Path_54-9" data-name="Path 54" d="M9.77,84.884v.421c0,11.128.694,22.236.694,22.236s2.777-8.1,2.777-11.108v-10.9c-1.146-.272-2.307-.5-3.47-.653m3.471-.633V74.1c0-1.735-2.777-11.031-2.777-11.031s-.61,9.764-.686,20.154c1.17.287,2.321.642,3.463,1.028m36.629.633v.421c0,11.128-.694,22.236-.694,22.236S46.4,99.442,46.4,96.433v-10.9c1.147-.272,2.307-.5,3.471-.653M46.4,84.251V74.1c0-1.735,2.777-11.031,2.777-11.031s.61,9.764.686,20.154c-1.171.287-2.321.642-3.463,1.028" transform="translate(-3.478 -22.455)" fill="#3f4040" fill-rule="evenodd"/>
                <path id="Path_55-9" data-name="Path 55" d="M73.958,60.374v2.237l5.014,1.234s.849-3.472-5.014-3.472" transform="translate(-26.331 -21.495)" fill="#e0e0e0" fill-rule="evenodd"/>
                <path id="Path_56-9" data-name="Path 56" d="M44.141,98.853a73.333,73.333,0,0,1-14,1.766,73.333,73.333,0,0,1-14-1.766,1.1,1.1,0,0,0-1.352,1.037l-.509,14.67a1.1,1.1,0,0,0,.539.989c5.888,3.488,15.323,3,15.323,3s9.435.483,15.323-3a1.1,1.1,0,0,0,.54-.989l-.509-14.67a1.1,1.1,0,0,0-1.352-1.037ZM14.833,63.244,10.667,47.16s4.4-6.132,19.472-6.132S49.612,47.16,49.612,47.16L45.446,63.244a80.347,80.347,0,0,0-15.306-1.967A80.356,80.356,0,0,0,14.833,63.244Z" transform="translate(-3.798 -14.607)" fill="#393939" fill-rule="evenodd"/>
                <path id="Path_57-9" data-name="Path 57" d="M10.667,9.887c3.449-.86,5.68-4.79,5.541-5.814a11.994,11.994,0,0,0-2.737,2.036,17.235,17.235,0,0,0-2.8,3.778m38.945,0c-3.449-.86-5.68-4.79-5.541-5.814a11.994,11.994,0,0,1,2.737,2.036,17.235,17.235,0,0,1,2.8,3.778" transform="translate(-3.798 -1.45)" fill="#e8e7d2" fill-rule="evenodd"/>
              </g>
            </g>
          </g>
        </g>
        <g id="ic-car-red-10" data-name="ic-car-red" transform="translate(1246.771 1656)">
          <g id="Group_21-10" data-name="Group 21" transform="translate(0 0)">
            <g id="Group_20-10" data-name="Group 20">
              <g id="Group_19-10" data-name="Group 19">
                <path id="Path_50-10" data-name="Path 50" d="M12.03,50.195l-1.1,43.092c0,7.31,5.926,27.539,13.236,27.539H45.845c7.31,0,13.235-20.23,13.235-27.539l-1.1-43.092,3.323.818s.676-2.78-3.387-3.363l-.056-2.179a22.5,22.5,0,0,1,.09-2.56l.932-10.06c.605-6.541-1.62-14.933-6.265-19.578-3.993-3.993-10.2-4.611-16.295-4.611H33.688c-6.092,0-12.3.618-16.295,4.611-4.645,4.645-6.87,13.037-6.265,19.578l.931,10.06a22.348,22.348,0,0,1,.09,2.56l-.055,2.179c-4.063.583-3.387,3.363-3.387,3.363l3.323-.818" transform="translate(-3.085 -3.084)" fill="#f2f4f8" fill-rule="evenodd" opacity="0.29"/>
                <path id="Path_51-10" data-name="Path 51" d="M4.739,36.808a22.348,22.348,0,0,0-.09-2.56l-.931-10.06C3.113,17.647,5.338,9.255,9.983,4.61,13.975.618,20.185,0,26.278,0h2.635c6.093,0,12.3.618,16.295,4.61,4.645,4.645,6.871,13.037,6.266,19.578l-.932,10.06a22.5,22.5,0,0,0-.09,2.56L51.67,84.624c0,7.31-5.926,27.539-13.235,27.539H16.756c-7.309,0-13.235-20.23-13.235-27.539L4.739,36.808" transform="translate(-1.253 0)" fill="#e0e0e0" fill-rule="evenodd"/>
                <path id="Path_52-10" data-name="Path 52" d="M47.626,42.064c-.018-.814,2.441-4.534,2.516-5.345l.889-9.589C51.608,20.9,49.486,12.9,45.058,8.468c-3.805-3.806-9.725-4.4-15.532-4.4H27.014c-5.808,0-11.727.589-15.532,4.4C7.054,12.9,4.933,20.9,5.51,27.13L6.4,36.72c.074.811,2.533,4.531,2.515,5.345V86.536c0,6.968,2.057,24.454,9.025,24.454H38.6c6.968,0,9.025-17.486,9.025-24.454V42.064" transform="translate(-1.928 -1.45)" fill="#e0e0e0" fill-rule="evenodd"/>
                <path id="Path_53-10" data-name="Path 53" d="M5.056,60.374v2.237L.042,63.846s-.849-3.472,5.014-3.472" transform="translate(0 -21.495)" fill="#e0e0e0" fill-rule="evenodd"/>
                <path id="Path_54-10" data-name="Path 54" d="M9.77,84.884v.421c0,11.128.694,22.236.694,22.236s2.777-8.1,2.777-11.108v-10.9c-1.146-.272-2.307-.5-3.47-.653m3.471-.633V74.1c0-1.735-2.777-11.031-2.777-11.031s-.61,9.764-.686,20.154c1.17.287,2.321.642,3.463,1.028m36.629.633v.421c0,11.128-.694,22.236-.694,22.236S46.4,99.442,46.4,96.433v-10.9c1.147-.272,2.307-.5,3.471-.653M46.4,84.251V74.1c0-1.735,2.777-11.031,2.777-11.031s.61,9.764.686,20.154c-1.171.287-2.321.642-3.463,1.028" transform="translate(-3.478 -22.455)" fill="#3f4040" fill-rule="evenodd"/>
                <path id="Path_55-10" data-name="Path 55" d="M73.958,60.374v2.237l5.014,1.234s.849-3.472-5.014-3.472" transform="translate(-26.331 -21.495)" fill="#e0e0e0" fill-rule="evenodd"/>
                <path id="Path_56-10" data-name="Path 56" d="M44.141,98.853a73.333,73.333,0,0,1-14,1.766,73.333,73.333,0,0,1-14-1.766,1.1,1.1,0,0,0-1.352,1.037l-.509,14.67a1.1,1.1,0,0,0,.539.989c5.888,3.488,15.323,3,15.323,3s9.435.483,15.323-3a1.1,1.1,0,0,0,.54-.989l-.509-14.67a1.1,1.1,0,0,0-1.352-1.037ZM14.833,63.244,10.667,47.16s4.4-6.132,19.472-6.132S49.612,47.16,49.612,47.16L45.446,63.244a80.347,80.347,0,0,0-15.306-1.967A80.356,80.356,0,0,0,14.833,63.244Z" transform="translate(-3.798 -14.607)" fill="#393939" fill-rule="evenodd"/>
                <path id="Path_57-10" data-name="Path 57" d="M10.667,9.887c3.449-.86,5.68-4.79,5.541-5.814a11.994,11.994,0,0,0-2.737,2.036,17.235,17.235,0,0,0-2.8,3.778m38.945,0c-3.449-.86-5.68-4.79-5.541-5.814a11.994,11.994,0,0,1,2.737,2.036,17.235,17.235,0,0,1,2.8,3.778" transform="translate(-3.798 -1.45)" fill="#e8e7d2" fill-rule="evenodd"/>
              </g>
            </g>
          </g>
        </g>
      </g>
      <g transform="matrix(1, 0, 0, 1, 0, 1624.5)" filter="url(#Ellipse_1)">
        <g id="Ellipse_1-2" data-name="Ellipse 1" transform="translate(548 34.5)" fill="#fff" stroke="#707070" stroke-width="1">
          <ellipse cx="22.5" cy="54" rx="22.5" ry="54" stroke="none"/>
          <ellipse cx="22.5" cy="54" rx="22" ry="53.5" fill="none"/>
        </g>
      </g>
      <g transform="matrix(1, 0, 0, 1, 0, 1624.5)" filter="url(#Ellipse_2)">
        <g id="Ellipse_2-2" data-name="Ellipse 2" transform="translate(1049 35.5)" fill="#fff" stroke="#707070" stroke-width="1">
          <ellipse cx="22.5" cy="52.5" rx="22.5" ry="52.5" stroke="none"/>
          <ellipse cx="22.5" cy="52.5" rx="22" ry="52" fill="none"/>
        </g>
      </g>
      <g id="ic-car-red-11" data-name="ic-car-red" transform="translate(1043.771 1656)">
        <g id="Group_21-11" data-name="Group 21" transform="translate(0 0)">
          <g id="Group_20-11" data-name="Group 20">
            <g id="Group_19-11" data-name="Group 19">
              <path id="Path_50-11" data-name="Path 50" d="M12.03,50.195l-1.1,43.092c0,7.31,5.926,27.539,13.236,27.539H45.845c7.31,0,13.235-20.23,13.235-27.539l-1.1-43.092,3.323.818s.676-2.78-3.387-3.363l-.056-2.179a22.5,22.5,0,0,1,.09-2.56l.932-10.06c.605-6.541-1.62-14.933-6.265-19.578-3.993-3.993-10.2-4.611-16.295-4.611H33.688c-6.092,0-12.3.618-16.295,4.611-4.645,4.645-6.87,13.037-6.265,19.578l.931,10.06a22.348,22.348,0,0,1,.09,2.56l-.055,2.179c-4.063.583-3.387,3.363-3.387,3.363l3.323-.818" transform="translate(-3.085 -3.084)" fill="#f2f4f8" fill-rule="evenodd" opacity="0.29"/>
              <path id="Path_51-11" data-name="Path 51" d="M4.739,36.808a22.348,22.348,0,0,0-.09-2.56l-.931-10.06C3.113,17.647,5.338,9.255,9.983,4.61,13.975.618,20.185,0,26.278,0h2.635c6.093,0,12.3.618,16.295,4.61,4.645,4.645,6.871,13.037,6.266,19.578l-.932,10.06a22.5,22.5,0,0,0-.09,2.56L51.67,84.624c0,7.31-5.926,27.539-13.235,27.539H16.756c-7.309,0-13.235-20.23-13.235-27.539L4.739,36.808" transform="translate(-1.253 0)" fill="#e0e0e0" fill-rule="evenodd"/>
              <path id="Path_52-11" data-name="Path 52" d="M47.626,42.064c-.018-.814,2.441-4.534,2.516-5.345l.889-9.589C51.608,20.9,49.486,12.9,45.058,8.468c-3.805-3.806-9.725-4.4-15.532-4.4H27.014c-5.808,0-11.727.589-15.532,4.4C7.054,12.9,4.933,20.9,5.51,27.13L6.4,36.72c.074.811,2.533,4.531,2.515,5.345V86.536c0,6.968,2.057,24.454,9.025,24.454H38.6c6.968,0,9.025-17.486,9.025-24.454V42.064" transform="translate(-1.928 -1.45)" fill="#e0e0e0" fill-rule="evenodd"/>
              <path id="Path_53-11" data-name="Path 53" d="M5.056,60.374v2.237L.042,63.846s-.849-3.472,5.014-3.472" transform="translate(0 -21.495)" fill="#e0e0e0" fill-rule="evenodd"/>
              <path id="Path_54-11" data-name="Path 54" d="M9.77,84.884v.421c0,11.128.694,22.236.694,22.236s2.777-8.1,2.777-11.108v-10.9c-1.146-.272-2.307-.5-3.47-.653m3.471-.633V74.1c0-1.735-2.777-11.031-2.777-11.031s-.61,9.764-.686,20.154c1.17.287,2.321.642,3.463,1.028m36.629.633v.421c0,11.128-.694,22.236-.694,22.236S46.4,99.442,46.4,96.433v-10.9c1.147-.272,2.307-.5,3.471-.653M46.4,84.251V74.1c0-1.735,2.777-11.031,2.777-11.031s.61,9.764.686,20.154c-1.171.287-2.321.642-3.463,1.028" transform="translate(-3.478 -22.455)" fill="#3f4040" fill-rule="evenodd"/>
              <path id="Path_55-11" data-name="Path 55" d="M73.958,60.374v2.237l5.014,1.234s.849-3.472-5.014-3.472" transform="translate(-26.331 -21.495)" fill="#e0e0e0" fill-rule="evenodd"/>
              <path id="Path_56-11" data-name="Path 56" d="M44.141,98.853a73.333,73.333,0,0,1-14,1.766,73.333,73.333,0,0,1-14-1.766,1.1,1.1,0,0,0-1.352,1.037l-.509,14.67a1.1,1.1,0,0,0,.539.989c5.888,3.488,15.323,3,15.323,3s9.435.483,15.323-3a1.1,1.1,0,0,0,.54-.989l-.509-14.67a1.1,1.1,0,0,0-1.352-1.037ZM14.833,63.244,10.667,47.16s4.4-6.132,19.472-6.132S49.612,47.16,49.612,47.16L45.446,63.244a80.347,80.347,0,0,0-15.306-1.967A80.356,80.356,0,0,0,14.833,63.244Z" transform="translate(-3.798 -14.607)" fill="#393939" fill-rule="evenodd"/>
              <path id="Path_57-11" data-name="Path 57" d="M10.667,9.887c3.449-.86,5.68-4.79,5.541-5.814a11.994,11.994,0,0,0-2.737,2.036,17.235,17.235,0,0,0-2.8,3.778m38.945,0c-3.449-.86-5.68-4.79-5.541-5.814a11.994,11.994,0,0,1,2.737,2.036,17.235,17.235,0,0,1,2.8,3.778" transform="translate(-3.798 -1.45)" fill="#e8e7d2" fill-rule="evenodd"/>
            </g>
          </g>
        </g>
      </g>
      <g id="ic-car-red-12" data-name="ic-car-red" transform="translate(543.771 1656)">
        <g id="Group_21-12" data-name="Group 21" transform="translate(0 0)">
          <g id="Group_20-12" data-name="Group 20">
            <g id="Group_19-12" data-name="Group 19">
              <path id="Path_50-12" data-name="Path 50" d="M12.03,50.195l-1.1,43.092c0,7.31,5.926,27.539,13.236,27.539H45.845c7.31,0,13.235-20.23,13.235-27.539l-1.1-43.092,3.323.818s.676-2.78-3.387-3.363l-.056-2.179a22.5,22.5,0,0,1,.09-2.56l.932-10.06c.605-6.541-1.62-14.933-6.265-19.578-3.993-3.993-10.2-4.611-16.295-4.611H33.688c-6.092,0-12.3.618-16.295,4.611-4.645,4.645-6.87,13.037-6.265,19.578l.931,10.06a22.348,22.348,0,0,1,.09,2.56l-.055,2.179c-4.063.583-3.387,3.363-3.387,3.363l3.323-.818" transform="translate(-3.085 -3.084)" fill="#f2f4f8" fill-rule="evenodd" opacity="0.29"/>
              <path id="Path_51-12" data-name="Path 51" d="M4.739,36.808a22.348,22.348,0,0,0-.09-2.56l-.931-10.06C3.113,17.647,5.338,9.255,9.983,4.61,13.975.618,20.185,0,26.278,0h2.635c6.093,0,12.3.618,16.295,4.61,4.645,4.645,6.871,13.037,6.266,19.578l-.932,10.06a22.5,22.5,0,0,0-.09,2.56L51.67,84.624c0,7.31-5.926,27.539-13.235,27.539H16.756c-7.309,0-13.235-20.23-13.235-27.539L4.739,36.808" transform="translate(-1.253 0)" fill="#e0e0e0" fill-rule="evenodd"/>
              <path id="Path_52-12" data-name="Path 52" d="M47.626,42.064c-.018-.814,2.441-4.534,2.516-5.345l.889-9.589C51.608,20.9,49.486,12.9,45.058,8.468c-3.805-3.806-9.725-4.4-15.532-4.4H27.014c-5.808,0-11.727.589-15.532,4.4C7.054,12.9,4.933,20.9,5.51,27.13L6.4,36.72c.074.811,2.533,4.531,2.515,5.345V86.536c0,6.968,2.057,24.454,9.025,24.454H38.6c6.968,0,9.025-17.486,9.025-24.454V42.064" transform="translate(-1.928 -1.45)" fill="#e0e0e0" fill-rule="evenodd"/>
              <path id="Path_53-12" data-name="Path 53" d="M5.056,60.374v2.237L.042,63.846s-.849-3.472,5.014-3.472" transform="translate(0 -21.495)" fill="#e0e0e0" fill-rule="evenodd"/>
              <path id="Path_54-12" data-name="Path 54" d="M9.77,84.884v.421c0,11.128.694,22.236.694,22.236s2.777-8.1,2.777-11.108v-10.9c-1.146-.272-2.307-.5-3.47-.653m3.471-.633V74.1c0-1.735-2.777-11.031-2.777-11.031s-.61,9.764-.686,20.154c1.17.287,2.321.642,3.463,1.028m36.629.633v.421c0,11.128-.694,22.236-.694,22.236S46.4,99.442,46.4,96.433v-10.9c1.147-.272,2.307-.5,3.471-.653M46.4,84.251V74.1c0-1.735,2.777-11.031,2.777-11.031s.61,9.764.686,20.154c-1.171.287-2.321.642-3.463,1.028" transform="translate(-3.478 -22.455)" fill="#3f4040" fill-rule="evenodd"/>
              <path id="Path_55-12" data-name="Path 55" d="M73.958,60.374v2.237l5.014,1.234s.849-3.472-5.014-3.472" transform="translate(-26.331 -21.495)" fill="#e0e0e0" fill-rule="evenodd"/>
              <path id="Path_56-12" data-name="Path 56" d="M44.141,98.853a73.333,73.333,0,0,1-14,1.766,73.333,73.333,0,0,1-14-1.766,1.1,1.1,0,0,0-1.352,1.037l-.509,14.67a1.1,1.1,0,0,0,.539.989c5.888,3.488,15.323,3,15.323,3s9.435.483,15.323-3a1.1,1.1,0,0,0,.54-.989l-.509-14.67a1.1,1.1,0,0,0-1.352-1.037ZM14.833,63.244,10.667,47.16s4.4-6.132,19.472-6.132S49.612,47.16,49.612,47.16L45.446,63.244a80.347,80.347,0,0,0-15.306-1.967A80.356,80.356,0,0,0,14.833,63.244Z" transform="translate(-3.798 -14.607)" fill="#393939" fill-rule="evenodd"/>
              <path id="Path_57-12" data-name="Path 57" d="M10.667,9.887c3.449-.86,5.68-4.79,5.541-5.814a11.994,11.994,0,0,0-2.737,2.036,17.235,17.235,0,0,0-2.8,3.778m38.945,0c-3.449-.86-5.68-4.79-5.541-5.814a11.994,11.994,0,0,1,2.737,2.036,17.235,17.235,0,0,1,2.8,3.778" transform="translate(-3.798 -1.45)" fill="#e8e7d2" fill-rule="evenodd"/>
            </g>
          </g>
        </g>
      </g>
    </g>
    <g id="btn-parkhere">
      <rect id="Rectangle_12" data-name="Rectangle 12" width="78" height="18" rx="2" transform="translate(532 1785)" fill="#0076ff"/>
      <rect id="Rectangle_13" data-name="Rectangle 13" width="78" height="18" rx="2" transform="translate(1032 1785)" fill="#0076ff"/>
      <text id="PARK_HERE_" data-name="PARK HERE!" transform="translate(572 1797)" fill="#fff" font-size="10" font-family="Foco-Bold, Foco" font-weight="700" letter-spacing="0.049em"><tspan x="-27.025" y="0">PARK HERE!</tspan></text>
      <text id="_2:08:14" data-name="2:08:14" transform="translate(671 1797)" fill="#484848" font-size="9" font-family="Foco-Bold, Foco" font-weight="700" letter-spacing="0.049em"><tspan x="-15.908" y="0">2:08:14</tspan></text>
      <text id="_3:28:06" data-name="3:28:06" transform="translate(171 1797)" fill="#484848" font-size="9" font-family="Foco-Bold, Foco" font-weight="700" letter-spacing="0.049em"><tspan x="-15.908" y="0">3:28:06</tspan></text>
      <text id="_0:06:28" data-name="0:06:28" transform="translate(871 1797)" fill="#484848" font-size="9" font-family="Foco-Bold, Foco" font-weight="700" letter-spacing="0.049em"><tspan x="-15.908" y="0">0:06:28</tspan></text>
      <text id="_7:59:06" data-name="7:59:06" transform="translate(371 1797)" fill="#484848" font-size="9" font-family="Foco-Bold, Foco" font-weight="700" letter-spacing="0.049em"><tspan x="-15.908" y="0">7:59:06</tspan></text>
      <text id="_1:02:04" data-name="1:02:04" transform="translate(1175 1797)" fill="#484848" font-size="9" font-family="Foco-Bold, Foco" font-weight="700" letter-spacing="0.049em"><tspan x="-15.908" y="0">1:02:04</tspan></text>
      <text id="_7:26:52" data-name="7:26:52" transform="translate(770 1797)" fill="#484848" font-size="9" font-family="Foco-Bold, Foco" font-weight="700" letter-spacing="0.049em"><tspan x="-15.908" y="0">7:26:52</tspan></text>
      <text id="_3:56:12" data-name="3:56:12" transform="translate(270 1797)" fill="#484848" font-size="9" font-family="Foco-Bold, Foco" font-weight="700" letter-spacing="0.049em"><tspan x="-15.908" y="0">3:56:12</tspan></text>
      <text id="_5:22:10" data-name="5:22:10" transform="translate(970 1797)" fill="#484848" font-size="9" font-family="Foco-Bold, Foco" font-weight="700" letter-spacing="0.049em"><tspan x="-15.908" y="0">5:22:10</tspan></text>
      <text id="_3:22:43" data-name="3:22:43" transform="translate(470 1797)" fill="#484848" font-size="9" font-family="Foco-Bold, Foco" font-weight="700" letter-spacing="0.049em"><tspan x="-15.908" y="0">3:22:43</tspan></text>
      <text id="_3:25:52" data-name="3:25:52" transform="translate(1274 1797)" fill="#484848" font-size="9" font-family="Foco-Bold, Foco" font-weight="700" letter-spacing="0.049em"><tspan x="-15.908" y="0">3:25:52</tspan></text>
      <text id="PARK_HERE_2" data-name="PARK HERE!" transform="translate(1072 1797)" fill="#fff" font-size="10" font-family="Foco-Bold, Foco" font-weight="700" letter-spacing="0.049em"><tspan x="-27.025" y="0">PARK HERE!</tspan></text>
    </g>
    <rect id="Rectangle_10" data-name="Rectangle 10" width="793" height="199" transform="translate(649 1628)" fill="url(#linear-gradient)"/>
    <rect id="Rectangle_11" data-name="Rectangle 11" width="793" height="199" transform="translate(0 1628)" fill="url(#linear-gradient-2)"/>
  </g>
</svg>
