<?xml version="1.0" encoding="utf-8"?>
<!-- Generator: Adobe Illustrator 25.2.1, SVG Export Plug-In . SVG Version: 6.00 Build 0)  -->
<svg version="1.1" id="Vrstva_1" xmlns="http://www.w3.org/2000/svg" xmlns:xlink="http://www.w3.org/1999/xlink" x="0px" y="0px"
	 viewBox="0 0 1440 200" style="enable-background:new 0 0 1440 200;" xml:space="preserve">
<style type="text/css">
	.st0{fill:url(#SVGID_1_);}
	.st1{fill:none;}
	.st2{fill:url(#SVGID_2_);}
	.st3{fill:none;stroke:#484848;stroke-width:2;stroke-dasharray:15,10;}
	.st4{opacity:0.345;}
	.st5{opacity:0.29;fill-rule:evenodd;clip-rule:evenodd;fill:#F1F3F7;enable-background:new    ;}
	.st6{fill-rule:evenodd;clip-rule:evenodd;fill:#DFDFDF;}
	.st7{fill-rule:evenodd;clip-rule:evenodd;fill:#3E4040;}
	.st8{fill-rule:evenodd;clip-rule:evenodd;fill:#393939;}
	.st9{fill-rule:evenodd;clip-rule:evenodd;fill:#E8E7D2;}
	.st10{fill:#FFFFFF;}
	.st11{fill:none;stroke:#717070;}
	.st12{fill:#0076F9;}
	.st13{enable-background:new    ;}
	.st14{fill:#484848;}
	.st15{fill:url(#Rectangle_10_1_);}
	.st16{fill:url(#Rectangle_11_1_);}
</style>
<g transform="matrix(1, 0, 0, 1, 0, 0)">
	<g id="Ellipse_1-2_1_" transform="translate(34.5 34.5)">
		
			<radialGradient id="SVGID_1_" cx="534.7391" cy="51.569" r="37.2293" gradientTransform="matrix(1 0 0 2.1882 0 -61.274)" gradientUnits="userSpaceOnUse">
			<stop  offset="0" style="stop-color:#FFFFFF"/>
			<stop  offset="1" style="stop-color:#009031;stop-opacity:0"/>
		</radialGradient>
		<ellipse class="st0" cx="534.7" cy="51.6" rx="37.4" ry="81.3"/>
		<ellipse class="st1" cx="534.7" cy="51" rx="25" ry="60.9"/>
	</g>
</g>
<g transform="matrix(1, 0, 0, 1, 0, 0)">
	<g id="Ellipse_1-2_2_" transform="translate(34.5 34.5)">
		
			<radialGradient id="SVGID_2_" cx="1033.5811" cy="59.6957" r="37.2293" gradientTransform="matrix(1 0 0 2.1882 0 -70.93)" gradientUnits="userSpaceOnUse">
			<stop  offset="0" style="stop-color:#FFFFFF"/>
			<stop  offset="1" style="stop-color:#009031;stop-opacity:0"/>
		</radialGradient>
		<ellipse class="st2" cx="1033.6" cy="59.7" rx="37.4" ry="81.3"/>
		<ellipse class="st1" cx="1033.5" cy="59.1" rx="25" ry="60.9"/>
	</g>
</g>
<g id="Group_41" transform="translate(0 -1624.5)">
	<g id="parking_lot">
		<line id="Line_11" class="st3" x1="-0.3" y1="1637.4" x2="1439.7" y2="1637.4"/>
		<line id="Line_12" class="st3" x1="719.7" y1="1637.4" x2="719.7" y2="1782.4"/>
		<line id="Line_14" class="st3" x1="819.7" y1="1637.4" x2="819.7" y2="1782.4"/>
		<line id="Line_15" class="st3" x1="919.7" y1="1637.4" x2="919.7" y2="1782.4"/>
		<line id="Line_16" class="st3" x1="1019.7" y1="1637.4" x2="1019.7" y2="1782.4"/>
		<line id="Line_17" class="st3" x1="1119.7" y1="1637.4" x2="1119.7" y2="1782.4"/>
		<line id="Line_18" class="st3" x1="1219.7" y1="1637.4" x2="1219.7" y2="1782.4"/>
		<line id="Line_19" class="st3" x1="1319.7" y1="1637.4" x2="1319.7" y2="1782.4"/>
		<line id="Line_20" class="st3" x1="1419.7" y1="1637.4" x2="1419.7" y2="1782.4"/>
		<line id="Line_13" class="st3" x1="619.7" y1="1637.4" x2="619.7" y2="1782.4"/>
		<line id="Line_21" class="st3" x1="519.7" y1="1637.4" x2="519.7" y2="1782.4"/>
		<line id="Line_22" class="st3" x1="419.7" y1="1637.4" x2="419.7" y2="1782.4"/>
		<line id="Line_23" class="st3" x1="319.7" y1="1637.4" x2="319.7" y2="1782.4"/>
		<line id="Line_24" class="st3" x1="219.7" y1="1637.4" x2="219.7" y2="1782.4"/>
		<line id="Line_25" class="st3" x1="119.7" y1="1637.4" x2="119.7" y2="1782.4"/>
		<line id="Line_26" class="st3" x1="19.7" y1="1637.4" x2="19.7" y2="1782.4"/>
	</g>
	<g id="cars">
		<g id="Group_26" class="st4">
			<g id="ic-car-red" transform="translate(343.771 1656)">
				<g id="Group_21" transform="translate(0 0)">
					<g id="Group_20">
						<g id="Group_19">
							<path id="Path_50" class="st5" d="M8.1,44L7,87.1c0,7.3,5.9,27.5,13.2,27.5h21.7c7.3,0,13.2-20.2,13.2-27.5L54.1,44l3.3,0.8
								c0,0,0.7-2.8-3.4-3.4L54,39.3c0-0.9,0-1.7,0.1-2.6L55,26.6c0.6-6.5-1.6-14.9-6.3-19.6c-4-4-10.2-4.6-16.3-4.6h-2.6
								c-6.1,0-12.3,0.6-16.3,4.6c-4.6,4.6-6.9,13-6.3,19.6l0.9,10.1c0.1,0.9,0.1,1.7,0.1,2.6l-0.1,2.2c-4.1,0.6-3.4,3.4-3.4,3.4
								L8.1,44"/>
							<path id="Path_51" class="st6" d="M2.7,33.7c0-0.9,0-1.7-0.1-2.6L1.6,21.1C1,14.5,3.3,6.1,7.9,1.5c4-4,10.2-4.6,16.3-4.6h2.6
								c6.1,0,12.3,0.6,16.3,4.6c4.6,4.6,6.9,13,6.3,19.6l-0.9,10.1c-0.1,0.9-0.1,1.7-0.1,2.6l1.2,47.8c0,7.3-5.9,27.5-13.2,27.5
								H14.7C7.4,109,1.4,88.8,1.4,81.5L2.7,33.7"/>
							<path id="Path_52" class="st6" d="M44.9,37.5c0-0.8,2.4-4.5,2.5-5.3l0.9-9.6c0.6-6.2-1.5-14.2-6-18.7
								c-3.8-3.8-9.7-4.4-15.5-4.4h-2.5c-5.8,0-11.7,0.6-15.5,4.4c-4.4,4.4-6.5,12.4-6,18.7l0.9,9.6c0.1,0.8,2.5,4.5,2.5,5.3V82
								c0,7,2.1,24.5,9,24.5h20.7c7,0,9-17.5,9-24.5L44.9,37.5"/>
							<path id="Path_53" class="st6" d="M4.2,35.8V38l-5,1.2C-0.8,39.2-1.6,35.8,4.2,35.8"/>
							<path id="Path_54" class="st7" d="M5.5,59.3v0.4C5.5,70.9,6.2,82,6.2,82s2.8-8.1,2.8-11.1V60C7.8,59.7,6.6,59.5,5.5,59.3
								 M8.9,58.7V48.5c0-1.7-2.8-11-2.8-11s-0.6,9.8-0.7,20.2C6.6,57.9,7.8,58.3,8.9,58.7 M45.6,59.3v0.4c0,11.1-0.7,22.2-0.7,22.2
								s-2.8-8.1-2.8-11.1V60C43.2,59.7,44.4,59.5,45.6,59.3 M42.1,58.7V48.5c0-1.7,2.8-11,2.8-11s0.6,9.8,0.7,20.2
								C44.4,57.9,43.2,58.3,42.1,58.7"/>
							<path id="Path_55" class="st6" d="M46.8,35.8V38l5,1.2C51.8,39.2,52.7,35.8,46.8,35.8"/>
							<path id="Path_56" class="st8" d="M39.5,81.1c-4.6,1-9.3,1.6-14,1.8c-4.7-0.1-9.4-0.7-14-1.8c-0.6-0.1-1.2,0.2-1.3,0.8
								c0,0.1,0,0.1,0,0.2L9.7,96.8c0,0.4,0.2,0.8,0.5,1c5.9,3.5,15.3,3,15.3,3s9.4,0.5,15.3-3c0.3-0.2,0.6-0.6,0.5-1l-0.5-14.7
								c0-0.6-0.5-1.1-1.1-1.1C39.7,81.1,39.6,81.1,39.5,81.1L39.5,81.1z M10.2,45.5L6,29.4c0,0,4.4-6.1,19.5-6.1S45,29.4,45,29.4
								l-4.2,16.1c-5-1.1-10.2-1.8-15.3-2C20.4,43.7,15.2,44.4,10.2,45.5z"/>
							<path id="Path_57" class="st9" d="M6,5.3c3.4-0.9,5.7-4.8,5.5-5.8c-1,0.5-1.9,1.2-2.7,2C7.7,2.7,6.8,3.9,6,5.3 M45,5.3
								c-3.4-0.9-5.7-4.8-5.5-5.8c1,0.5,1.9,1.2,2.7,2C43.3,2.7,44.2,3.9,45,5.3"/>
						</g>
					</g>
				</g>
			</g>
			<g id="ic-car-red-2" transform="translate(143.771 1656)">
				<g id="Group_21-2" transform="translate(0 0)">
					<g id="Group_20-2">
						<g id="Group_19-2">
							<path id="Path_50-2" class="st5" d="M8.1,44L7,87.1c0,7.3,5.9,27.5,13.2,27.5h21.7c7.3,0,13.2-20.2,13.2-27.5L54.1,44
								l3.3,0.8c0,0,0.7-2.8-3.4-3.4L54,39.3c0-0.9,0-1.7,0.1-2.6L55,26.6c0.6-6.5-1.6-14.9-6.3-19.6c-4-4-10.2-4.6-16.3-4.6h-2.6
								c-6.1,0-12.3,0.6-16.3,4.6c-4.6,4.6-6.9,13-6.3,19.6l0.9,10.1c0.1,0.9,0.1,1.7,0.1,2.6l-0.1,2.2c-4.1,0.6-3.4,3.4-3.4,3.4
								L8.1,44"/>
							<path id="Path_51-2" class="st6" d="M2.7,33.7c0-0.9,0-1.7-0.1-2.6L1.6,21.1C1,14.5,3.3,6.1,7.9,1.5c4-4,10.2-4.6,16.3-4.6
								h2.6c6.1,0,12.3,0.6,16.3,4.6c4.6,4.6,6.9,13,6.3,19.6l-0.9,10.1c-0.1,0.9-0.1,1.7-0.1,2.6l1.2,47.8
								c0,7.3-5.9,27.5-13.2,27.5H14.7C7.4,109,1.4,88.8,1.4,81.5L2.7,33.7"/>
							<path id="Path_52-2" class="st6" d="M44.9,37.5c0-0.8,2.4-4.5,2.5-5.3l0.9-9.6c0.6-6.2-1.5-14.2-6-18.7
								c-3.8-3.8-9.7-4.4-15.5-4.4h-2.5c-5.8,0-11.7,0.6-15.5,4.4c-4.4,4.4-6.5,12.4-6,18.7l0.9,9.6c0.1,0.8,2.5,4.5,2.5,5.3V82
								c0,7,2.1,24.5,9,24.5h20.7c7,0,9-17.5,9-24.5L44.9,37.5"/>
							<path id="Path_53-2" class="st6" d="M4.2,35.8V38l-5,1.2C-0.8,39.2-1.6,35.8,4.2,35.8"/>
							<path id="Path_54-2" class="st7" d="M5.5,59.3v0.4C5.5,70.9,6.2,82,6.2,82s2.8-8.1,2.8-11.1V60C7.8,59.7,6.6,59.5,5.5,59.3
								 M8.9,58.7V48.5c0-1.7-2.8-11-2.8-11s-0.6,9.8-0.7,20.2C6.6,57.9,7.8,58.3,8.9,58.7 M45.6,59.3v0.4c0,11.1-0.7,22.2-0.7,22.2
								s-2.8-8.1-2.8-11.1V60C43.2,59.7,44.4,59.5,45.6,59.3 M42.1,58.7V48.5c0-1.7,2.8-11,2.8-11s0.6,9.8,0.7,20.2
								C44.4,57.9,43.2,58.3,42.1,58.7"/>
							<path id="Path_55-2" class="st6" d="M46.8,35.8V38l5,1.2C51.8,39.2,52.7,35.8,46.8,35.8"/>
							<path id="Path_56-2" class="st8" d="M39.5,81.1c-4.6,1-9.3,1.6-14,1.8c-4.7-0.1-9.4-0.7-14-1.8c-0.6-0.1-1.2,0.2-1.3,0.8
								c0,0.1,0,0.1,0,0.2L9.7,96.8c0,0.4,0.2,0.8,0.5,1c5.9,3.5,15.3,3,15.3,3s9.4,0.5,15.3-3c0.3-0.2,0.6-0.6,0.5-1l-0.5-14.7
								c0-0.6-0.5-1.1-1.1-1.1C39.7,81.1,39.6,81.1,39.5,81.1L39.5,81.1z M10.2,45.5L6,29.4c0,0,4.4-6.1,19.5-6.1S45,29.4,45,29.4
								l-4.2,16.1c-5-1.1-10.2-1.8-15.3-2C20.4,43.7,15.2,44.4,10.2,45.5z"/>
							<path id="Path_57-2" class="st9" d="M6,5.3c3.4-0.9,5.7-4.8,5.5-5.8c-1,0.5-1.9,1.2-2.7,2C7.7,2.7,6.8,3.9,6,5.3 M45,5.3
								c-3.4-0.9-5.7-4.8-5.5-5.8c1,0.5,1.9,1.2,2.7,2C43.3,2.7,44.2,3.9,45,5.3"/>
						</g>
					</g>
				</g>
			</g>
			<g id="ic-car-red-3" transform="translate(643.771 1656)">
				<g id="Group_21-3" transform="translate(0 0)">
					<g id="Group_20-3">
						<g id="Group_19-3">
							<path id="Path_50-3" class="st5" d="M8.1,44L7,87.1c0,7.3,5.9,27.5,13.2,27.5h21.7c7.3,0,13.2-20.2,13.2-27.5L54.1,44
								l3.3,0.8c0,0,0.7-2.8-3.4-3.4L54,39.3c0-0.9,0-1.7,0.1-2.6L55,26.6c0.6-6.5-1.6-14.9-6.3-19.6c-4-4-10.2-4.6-16.3-4.6h-2.6
								c-6.1,0-12.3,0.6-16.3,4.6c-4.6,4.6-6.9,13-6.3,19.6l0.9,10.1c0.1,0.9,0.1,1.7,0.1,2.6l-0.1,2.2c-4.1,0.6-3.4,3.4-3.4,3.4
								L8.1,44"/>
							<path id="Path_51-3" class="st6" d="M2.7,33.7c0-0.9,0-1.7-0.1-2.6L1.6,21.1C1,14.5,3.3,6.1,7.9,1.5c4-4,10.2-4.6,16.3-4.6
								h2.6c6.1,0,12.3,0.6,16.3,4.6c4.6,4.6,6.9,13,6.3,19.6l-0.9,10.1c-0.1,0.9-0.1,1.7-0.1,2.6l1.2,47.8
								c0,7.3-5.9,27.5-13.2,27.5H14.7C7.4,109,1.4,88.8,1.4,81.5L2.7,33.7"/>
							<path id="Path_52-3" class="st6" d="M44.9,37.5c0-0.8,2.4-4.5,2.5-5.3l0.9-9.6c0.6-6.2-1.5-14.2-6-18.7
								c-3.8-3.8-9.7-4.4-15.5-4.4h-2.5c-5.8,0-11.7,0.6-15.5,4.4c-4.4,4.4-6.5,12.4-6,18.7l0.9,9.6c0.1,0.8,2.5,4.5,2.5,5.3V82
								c0,7,2.1,24.5,9,24.5h20.7c7,0,9-17.5,9-24.5L44.9,37.5"/>
							<path id="Path_53-3" class="st6" d="M4.2,35.8V38l-5,1.2C-0.8,39.2-1.6,35.8,4.2,35.8"/>
							<path id="Path_54-3" class="st7" d="M5.5,59.3v0.4C5.5,70.9,6.2,82,6.2,82s2.8-8.1,2.8-11.1V60C7.8,59.7,6.6,59.5,5.5,59.3
								 M8.9,58.7V48.5c0-1.7-2.8-11-2.8-11s-0.6,9.8-0.7,20.2C6.6,57.9,7.8,58.3,8.9,58.7 M45.6,59.3v0.4c0,11.1-0.7,22.2-0.7,22.2
								s-2.8-8.1-2.8-11.1V60C43.2,59.7,44.4,59.5,45.6,59.3 M42.1,58.7V48.5c0-1.7,2.8-11,2.8-11s0.6,9.8,0.7,20.2
								C44.4,57.9,43.2,58.3,42.1,58.7"/>
							<path id="Path_55-3" class="st6" d="M46.8,35.8V38l5,1.2C51.8,39.2,52.7,35.8,46.8,35.8"/>
							<path id="Path_56-3" class="st8" d="M39.5,81.1c-4.6,1-9.3,1.6-14,1.8c-4.7-0.1-9.4-0.7-14-1.8c-0.6-0.1-1.2,0.2-1.3,0.8
								c0,0.1,0,0.1,0,0.2L9.7,96.8c0,0.4,0.2,0.8,0.5,1c5.9,3.5,15.3,3,15.3,3s9.4,0.5,15.3-3c0.3-0.2,0.6-0.6,0.5-1l-0.5-14.7
								c0-0.6-0.5-1.1-1.1-1.1C39.7,81.1,39.6,81.1,39.5,81.1L39.5,81.1z M10.2,45.5L6,29.4c0,0,4.4-6.1,19.5-6.1S45,29.4,45,29.4
								l-4.2,16.1c-5-1.1-10.2-1.8-15.3-2C20.4,43.7,15.2,44.4,10.2,45.5z"/>
							<path id="Path_57-3" class="st9" d="M6,5.3c3.4-0.9,5.7-4.8,5.5-5.8c-1,0.5-1.9,1.2-2.7,2C7.7,2.7,6.8,3.9,6,5.3 M45,5.3
								c-3.4-0.9-5.7-4.8-5.5-5.8c1,0.5,1.9,1.2,2.7,2C43.3,2.7,44.2,3.9,45,5.3"/>
						</g>
					</g>
				</g>
			</g>
			<g id="ic-car-red-4" transform="translate(844.771 1656)">
				<g id="Group_21-4" transform="translate(0 0)">
					<g id="Group_20-4">
						<g id="Group_19-4">
							<path id="Path_50-4" class="st5" d="M8.1,44L7,87.1c0,7.3,5.9,27.5,13.2,27.5h21.7c7.3,0,13.2-20.2,13.2-27.5L54.1,44
								l3.3,0.8c0,0,0.7-2.8-3.4-3.4L54,39.3c0-0.9,0-1.7,0.1-2.6L55,26.6c0.6-6.5-1.6-14.9-6.3-19.6c-4-4-10.2-4.6-16.3-4.6h-2.6
								c-6.1,0-12.3,0.6-16.3,4.6c-4.6,4.6-6.9,13-6.3,19.6l0.9,10.1c0.1,0.9,0.1,1.7,0.1,2.6l-0.1,2.2c-4.1,0.6-3.4,3.4-3.4,3.4
								L8.1,44"/>
							<path id="Path_51-4" class="st6" d="M2.7,33.7c0-0.9,0-1.7-0.1-2.6L1.6,21.1C1,14.5,3.3,6.1,7.9,1.5c4-4,10.2-4.6,16.3-4.6
								h2.6c6.1,0,12.3,0.6,16.3,4.6c4.6,4.6,6.9,13,6.3,19.6l-0.9,10.1c-0.1,0.9-0.1,1.7-0.1,2.6l1.2,47.8
								c0,7.3-5.9,27.5-13.2,27.5H14.7C7.4,109,1.4,88.8,1.4,81.5L2.7,33.7"/>
							<path id="Path_52-4" class="st6" d="M44.9,37.5c0-0.8,2.4-4.5,2.5-5.3l0.9-9.6c0.6-6.2-1.5-14.2-6-18.7
								c-3.8-3.8-9.7-4.4-15.5-4.4h-2.5c-5.8,0-11.7,0.6-15.5,4.4c-4.4,4.4-6.5,12.4-6,18.7l0.9,9.6c0.1,0.8,2.5,4.5,2.5,5.3V82
								c0,7,2.1,24.5,9,24.5h20.7c7,0,9-17.5,9-24.5L44.9,37.5"/>
							<path id="Path_53-4" class="st6" d="M4.2,35.8V38l-5,1.2C-0.8,39.2-1.6,35.8,4.2,35.8"/>
							<path id="Path_54-4" class="st7" d="M5.5,59.3v0.4C5.5,70.9,6.2,82,6.2,82s2.8-8.1,2.8-11.1V60C7.8,59.7,6.6,59.5,5.5,59.3
								 M8.9,58.7V48.5c0-1.7-2.8-11-2.8-11s-0.6,9.8-0.7,20.2C6.6,57.9,7.8,58.3,8.9,58.7 M45.6,59.3v0.4c0,11.1-0.7,22.2-0.7,22.2
								s-2.8-8.1-2.8-11.1V60C43.2,59.7,44.4,59.5,45.6,59.3 M42.1,58.7V48.5c0-1.7,2.8-11,2.8-11s0.6,9.8,0.7,20.2
								C44.4,57.9,43.2,58.3,42.1,58.7"/>
							<path id="Path_55-4" class="st6" d="M46.8,35.8V38l5,1.2C51.8,39.2,52.7,35.8,46.8,35.8"/>
							<path id="Path_56-4" class="st8" d="M39.5,81.1c-4.6,1-9.3,1.6-14,1.8c-4.7-0.1-9.4-0.7-14-1.8c-0.6-0.1-1.2,0.2-1.3,0.8
								c0,0.1,0,0.1,0,0.2L9.7,96.8c0,0.4,0.2,0.8,0.5,1c5.9,3.5,15.3,3,15.3,3s9.4,0.5,15.3-3c0.3-0.2,0.6-0.6,0.5-1l-0.5-14.7
								c0-0.6-0.5-1.1-1.1-1.1C39.7,81.1,39.6,81.1,39.5,81.1L39.5,81.1z M10.2,45.5L6,29.4c0,0,4.4-6.1,19.5-6.1S45,29.4,45,29.4
								l-4.2,16.1c-5-1.1-10.2-1.8-15.3-2C20.4,43.7,15.2,44.4,10.2,45.5z"/>
							<path id="Path_57-4" class="st9" d="M6,5.3c3.4-0.9,5.7-4.8,5.5-5.8c-1,0.5-1.9,1.2-2.7,2C7.7,2.7,6.8,3.9,6,5.3 M45,5.3
								c-3.4-0.9-5.7-4.8-5.5-5.8c1,0.5,1.9,1.2,2.7,2C43.3,2.7,44.2,3.9,45,5.3"/>
						</g>
					</g>
				</g>
			</g>
			<g id="ic-car-red-5" transform="translate(1146.771 1656)">
				<g id="Group_21-5" transform="translate(0 0)">
					<g id="Group_20-5">
						<g id="Group_19-5">
							<path id="Path_50-5" class="st5" d="M8.1,44L7,87.1c0,7.3,5.9,27.5,13.2,27.5h21.7c7.3,0,13.2-20.2,13.2-27.5L54.1,44
								l3.3,0.8c0,0,0.7-2.8-3.4-3.4L54,39.3c0-0.9,0-1.7,0.1-2.6L55,26.6c0.6-6.5-1.6-14.9-6.3-19.6c-4-4-10.2-4.6-16.3-4.6h-2.6
								c-6.1,0-12.3,0.6-16.3,4.6c-4.6,4.6-6.9,13-6.3,19.6l0.9,10.1c0.1,0.9,0.1,1.7,0.1,2.6l-0.1,2.2c-4.1,0.6-3.4,3.4-3.4,3.4
								L8.1,44"/>
							<path id="Path_51-5" class="st6" d="M2.7,33.7c0-0.9,0-1.7-0.1-2.6L1.6,21.1C1,14.5,3.3,6.1,7.9,1.5c4-4,10.2-4.6,16.3-4.6
								h2.6c6.1,0,12.3,0.6,16.3,4.6c4.6,4.6,6.9,13,6.3,19.6l-0.9,10.1c-0.1,0.9-0.1,1.7-0.1,2.6l1.2,47.8
								c0,7.3-5.9,27.5-13.2,27.5H14.7C7.4,109,1.4,88.8,1.4,81.5L2.7,33.7"/>
							<path id="Path_52-5" class="st6" d="M44.9,37.5c0-0.8,2.4-4.5,2.5-5.3l0.9-9.6c0.6-6.2-1.5-14.2-6-18.7
								c-3.8-3.8-9.7-4.4-15.5-4.4h-2.5c-5.8,0-11.7,0.6-15.5,4.4c-4.4,4.4-6.5,12.4-6,18.7l0.9,9.6c0.1,0.8,2.5,4.5,2.5,5.3V82
								c0,7,2.1,24.5,9,24.5h20.7c7,0,9-17.5,9-24.5L44.9,37.5"/>
							<path id="Path_53-5" class="st6" d="M4.2,35.8V38l-5,1.2C-0.8,39.2-1.6,35.8,4.2,35.8"/>
							<path id="Path_54-5" class="st7" d="M5.5,59.3v0.4C5.5,70.9,6.2,82,6.2,82s2.8-8.1,2.8-11.1V60C7.8,59.7,6.6,59.5,5.5,59.3
								 M8.9,58.7V48.5c0-1.7-2.8-11-2.8-11s-0.6,9.8-0.7,20.2C6.6,57.9,7.8,58.3,8.9,58.7 M45.6,59.3v0.4c0,11.1-0.7,22.2-0.7,22.2
								s-2.8-8.1-2.8-11.1V60C43.2,59.7,44.4,59.5,45.6,59.3 M42.1,58.7V48.5c0-1.7,2.8-11,2.8-11s0.6,9.8,0.7,20.2
								C44.4,57.9,43.2,58.3,42.1,58.7"/>
							<path id="Path_55-5" class="st6" d="M46.8,35.8V38l5,1.2C51.8,39.2,52.7,35.8,46.8,35.8"/>
							<path id="Path_56-5" class="st8" d="M39.5,81.1c-4.6,1-9.3,1.6-14,1.8c-4.7-0.1-9.4-0.7-14-1.8c-0.6-0.1-1.2,0.2-1.3,0.8
								c0,0.1,0,0.1,0,0.2L9.7,96.8c0,0.4,0.2,0.8,0.5,1c5.9,3.5,15.3,3,15.3,3s9.4,0.5,15.3-3c0.3-0.2,0.6-0.6,0.5-1l-0.5-14.7
								c0-0.6-0.5-1.1-1.1-1.1C39.7,81.1,39.6,81.1,39.5,81.1L39.5,81.1z M10.2,45.5L6,29.4c0,0,4.4-6.1,19.5-6.1S45,29.4,45,29.4
								l-4.2,16.1c-5-1.1-10.2-1.8-15.3-2C20.4,43.7,15.2,44.4,10.2,45.5z"/>
							<path id="Path_57-5" class="st9" d="M6,5.3c3.4-0.9,5.7-4.8,5.5-5.8c-1,0.5-1.9,1.2-2.7,2C7.7,2.7,6.8,3.9,6,5.3 M45,5.3
								c-3.4-0.9-5.7-4.8-5.5-5.8c1,0.5,1.9,1.2,2.7,2C43.3,2.7,44.2,3.9,45,5.3"/>
						</g>
					</g>
				</g>
			</g>
			<g id="ic-car-red-6" transform="translate(443.771 1656)">
				<g id="Group_21-6" transform="translate(0 0)">
					<g id="Group_20-6">
						<g id="Group_19-6">
							<path id="Path_50-6" class="st5" d="M8.1,44L7,87.1c0,7.3,5.9,27.5,13.2,27.5h21.7c7.3,0,13.2-20.2,13.2-27.5L54.1,44
								l3.3,0.8c0,0,0.7-2.8-3.4-3.4L54,39.3c0-0.9,0-1.7,0.1-2.6L55,26.6c0.6-6.5-1.6-14.9-6.3-19.6c-4-4-10.2-4.6-16.3-4.6h-2.6
								c-6.1,0-12.3,0.6-16.3,4.6c-4.6,4.6-6.9,13-6.3,19.6l0.9,10.1c0.1,0.9,0.1,1.7,0.1,2.6l-0.1,2.2c-4.1,0.6-3.4,3.4-3.4,3.4
								L8.1,44"/>
							<path id="Path_51-6" class="st6" d="M2.7,33.7c0-0.9,0-1.7-0.1-2.6L1.6,21.1C1,14.5,3.3,6.1,7.9,1.5c4-4,10.2-4.6,16.3-4.6
								h2.6c6.1,0,12.3,0.6,16.3,4.6c4.6,4.6,6.9,13,6.3,19.6l-0.9,10.1c-0.1,0.9-0.1,1.7-0.1,2.6l1.2,47.8
								c0,7.3-5.9,27.5-13.2,27.5H14.7C7.4,109,1.4,88.8,1.4,81.5L2.7,33.7"/>
							<path id="Path_52-6" class="st6" d="M44.9,37.5c0-0.8,2.4-4.5,2.5-5.3l0.9-9.6c0.6-6.2-1.5-14.2-6-18.7
								c-3.8-3.8-9.7-4.4-15.5-4.4h-2.5c-5.8,0-11.7,0.6-15.5,4.4c-4.4,4.4-6.5,12.4-6,18.7l0.9,9.6c0.1,0.8,2.5,4.5,2.5,5.3V82
								c0,7,2.1,24.5,9,24.5h20.7c7,0,9-17.5,9-24.5L44.9,37.5"/>
							<path id="Path_53-6" class="st6" d="M4.2,35.8V38l-5,1.2C-0.8,39.2-1.6,35.8,4.2,35.8"/>
							<path id="Path_54-6" class="st7" d="M5.5,59.3v0.4C5.5,70.9,6.2,82,6.2,82s2.8-8.1,2.8-11.1V60C7.8,59.7,6.6,59.5,5.5,59.3
								 M8.9,58.7V48.5c0-1.7-2.8-11-2.8-11s-0.6,9.8-0.7,20.2C6.6,57.9,7.8,58.3,8.9,58.7 M45.6,59.3v0.4c0,11.1-0.7,22.2-0.7,22.2
								s-2.8-8.1-2.8-11.1V60C43.2,59.7,44.4,59.5,45.6,59.3 M42.1,58.7V48.5c0-1.7,2.8-11,2.8-11s0.6,9.8,0.7,20.2
								C44.4,57.9,43.2,58.3,42.1,58.7"/>
							<path id="Path_55-6" class="st6" d="M46.8,35.8V38l5,1.2C51.8,39.2,52.7,35.8,46.8,35.8"/>
							<path id="Path_56-6" class="st8" d="M39.5,81.1c-4.6,1-9.3,1.6-14,1.8c-4.7-0.1-9.4-0.7-14-1.8c-0.6-0.1-1.2,0.2-1.3,0.8
								c0,0.1,0,0.1,0,0.2L9.7,96.8c0,0.4,0.2,0.8,0.5,1c5.9,3.5,15.3,3,15.3,3s9.4,0.5,15.3-3c0.3-0.2,0.6-0.6,0.5-1l-0.5-14.7
								c0-0.6-0.5-1.1-1.1-1.1C39.7,81.1,39.6,81.1,39.5,81.1L39.5,81.1z M10.2,45.5L6,29.4c0,0,4.4-6.1,19.5-6.1S45,29.4,45,29.4
								l-4.2,16.1c-5-1.1-10.2-1.8-15.3-2C20.4,43.7,15.2,44.4,10.2,45.5z"/>
							<path id="Path_57-6" class="st9" d="M6,5.3c3.4-0.9,5.7-4.8,5.5-5.8c-1,0.5-1.9,1.2-2.7,2C7.7,2.7,6.8,3.9,6,5.3 M45,5.3
								c-3.4-0.9-5.7-4.8-5.5-5.8c1,0.5,1.9,1.2,2.7,2C43.3,2.7,44.2,3.9,45,5.3"/>
						</g>
					</g>
				</g>
			</g>
			<g id="ic-car-red-7" transform="translate(243.771 1656)">
				<g id="Group_21-7" transform="translate(0 0)">
					<g id="Group_20-7">
						<g id="Group_19-7">
							<path id="Path_50-7" class="st5" d="M8.1,44L7,87.1c0,7.3,5.9,27.5,13.2,27.5h21.7c7.3,0,13.2-20.2,13.2-27.5L54.1,44
								l3.3,0.8c0,0,0.7-2.8-3.4-3.4L54,39.3c0-0.9,0-1.7,0.1-2.6L55,26.6c0.6-6.5-1.6-14.9-6.3-19.6c-4-4-10.2-4.6-16.3-4.6h-2.6
								c-6.1,0-12.3,0.6-16.3,4.6c-4.6,4.6-6.9,13-6.3,19.6l0.9,10.1c0.1,0.9,0.1,1.7,0.1,2.6l-0.1,2.2c-4.1,0.6-3.4,3.4-3.4,3.4
								L8.1,44"/>
							<path id="Path_51-7" class="st6" d="M2.7,33.7c0-0.9,0-1.7-0.1-2.6L1.6,21.1C1,14.5,3.3,6.1,7.9,1.5c4-4,10.2-4.6,16.3-4.6
								h2.6c6.1,0,12.3,0.6,16.3,4.6c4.6,4.6,6.9,13,6.3,19.6l-0.9,10.1c-0.1,0.9-0.1,1.7-0.1,2.6l1.2,47.8
								c0,7.3-5.9,27.5-13.2,27.5H14.7C7.4,109,1.4,88.8,1.4,81.5L2.7,33.7"/>
							<path id="Path_52-7" class="st6" d="M44.9,37.5c0-0.8,2.4-4.5,2.5-5.3l0.9-9.6c0.6-6.2-1.5-14.2-6-18.7
								c-3.8-3.8-9.7-4.4-15.5-4.4h-2.5c-5.8,0-11.7,0.6-15.5,4.4c-4.4,4.4-6.5,12.4-6,18.7l0.9,9.6c0.1,0.8,2.5,4.5,2.5,5.3V82
								c0,7,2.1,24.5,9,24.5h20.7c7,0,9-17.5,9-24.5L44.9,37.5"/>
							<path id="Path_53-7" class="st6" d="M4.2,35.8V38l-5,1.2C-0.8,39.2-1.6,35.8,4.2,35.8"/>
							<path id="Path_54-7" class="st7" d="M5.5,59.3v0.4C5.5,70.9,6.2,82,6.2,82s2.8-8.1,2.8-11.1V60C7.8,59.7,6.6,59.5,5.5,59.3
								 M8.9,58.7V48.5c0-1.7-2.8-11-2.8-11s-0.6,9.8-0.7,20.2C6.6,57.9,7.8,58.3,8.9,58.7 M45.6,59.3v0.4c0,11.1-0.7,22.2-0.7,22.2
								s-2.8-8.1-2.8-11.1V60C43.2,59.7,44.4,59.5,45.6,59.3 M42.1,58.7V48.5c0-1.7,2.8-11,2.8-11s0.6,9.8,0.7,20.2
								C44.4,57.9,43.2,58.3,42.1,58.7"/>
							<path id="Path_55-7" class="st6" d="M46.8,35.8V38l5,1.2C51.8,39.2,52.7,35.8,46.8,35.8"/>
							<path id="Path_56-7" class="st8" d="M39.5,81.1c-4.6,1-9.3,1.6-14,1.8c-4.7-0.1-9.4-0.7-14-1.8c-0.6-0.1-1.2,0.2-1.3,0.8
								c0,0.1,0,0.1,0,0.2L9.7,96.8c0,0.4,0.2,0.8,0.5,1c5.9,3.5,15.3,3,15.3,3s9.4,0.5,15.3-3c0.3-0.2,0.6-0.6,0.5-1l-0.5-14.7
								c0-0.6-0.5-1.1-1.1-1.1C39.7,81.1,39.6,81.1,39.5,81.1L39.5,81.1z M10.2,45.5L6,29.4c0,0,4.4-6.1,19.5-6.1S45,29.4,45,29.4
								l-4.2,16.1c-5-1.1-10.2-1.8-15.3-2C20.4,43.7,15.2,44.4,10.2,45.5z"/>
							<path id="Path_57-7" class="st9" d="M6,5.3c3.4-0.9,5.7-4.8,5.5-5.8c-1,0.5-1.9,1.2-2.7,2C7.7,2.7,6.8,3.9,6,5.3 M45,5.3
								c-3.4-0.9-5.7-4.8-5.5-5.8c1,0.5,1.9,1.2,2.7,2C43.3,2.7,44.2,3.9,45,5.3"/>
						</g>
					</g>
				</g>
			</g>
			<g id="ic-car-red-8" transform="translate(743.771 1656)">
				<g id="Group_21-8" transform="translate(0 0)">
					<g id="Group_20-8">
						<g id="Group_19-8">
							<path id="Path_50-8" class="st5" d="M8.1,44L7,87.1c0,7.3,5.9,27.5,13.2,27.5h21.7c7.3,0,13.2-20.2,13.2-27.5L54.1,44
								l3.3,0.8c0,0,0.7-2.8-3.4-3.4L54,39.3c0-0.9,0-1.7,0.1-2.6L55,26.6c0.6-6.5-1.6-14.9-6.3-19.6c-4-4-10.2-4.6-16.3-4.6h-2.6
								c-6.1,0-12.3,0.6-16.3,4.6c-4.6,4.6-6.9,13-6.3,19.6l0.9,10.1c0.1,0.9,0.1,1.7,0.1,2.6l-0.1,2.2c-4.1,0.6-3.4,3.4-3.4,3.4
								L8.1,44"/>
							<path id="Path_51-8" class="st6" d="M2.7,33.7c0-0.9,0-1.7-0.1-2.6L1.6,21.1C1,14.5,3.3,6.1,7.9,1.5c4-4,10.2-4.6,16.3-4.6
								h2.6c6.1,0,12.3,0.6,16.3,4.6c4.6,4.6,6.9,13,6.3,19.6l-0.9,10.1c-0.1,0.9-0.1,1.7-0.1,2.6l1.2,47.8
								c0,7.3-5.9,27.5-13.2,27.5H14.7C7.4,109,1.4,88.8,1.4,81.5L2.7,33.7"/>
							<path id="Path_52-8" class="st6" d="M44.9,37.5c0-0.8,2.4-4.5,2.5-5.3l0.9-9.6c0.6-6.2-1.5-14.2-6-18.7
								c-3.8-3.8-9.7-4.4-15.5-4.4h-2.5c-5.8,0-11.7,0.6-15.5,4.4c-4.4,4.4-6.5,12.4-6,18.7l0.9,9.6c0.1,0.8,2.5,4.5,2.5,5.3V82
								c0,7,2.1,24.5,9,24.5h20.7c7,0,9-17.5,9-24.5L44.9,37.5"/>
							<path id="Path_53-8" class="st6" d="M4.2,35.8V38l-5,1.2C-0.8,39.2-1.6,35.8,4.2,35.8"/>
							<path id="Path_54-8" class="st7" d="M5.5,59.3v0.4C5.5,70.9,6.2,82,6.2,82s2.8-8.1,2.8-11.1V60C7.8,59.7,6.6,59.5,5.5,59.3
								 M8.9,58.7V48.5c0-1.7-2.8-11-2.8-11s-0.6,9.8-0.7,20.2C6.6,57.9,7.8,58.3,8.9,58.7 M45.6,59.3v0.4c0,11.1-0.7,22.2-0.7,22.2
								s-2.8-8.1-2.8-11.1V60C43.2,59.7,44.4,59.5,45.6,59.3 M42.1,58.7V48.5c0-1.7,2.8-11,2.8-11s0.6,9.8,0.7,20.2
								C44.4,57.9,43.2,58.3,42.1,58.7"/>
							<path id="Path_55-8" class="st6" d="M46.8,35.8V38l5,1.2C51.8,39.2,52.7,35.8,46.8,35.8"/>
							<path id="Path_56-8" class="st8" d="M39.5,81.1c-4.6,1-9.3,1.6-14,1.8c-4.7-0.1-9.4-0.7-14-1.8c-0.6-0.1-1.2,0.2-1.3,0.8
								c0,0.1,0,0.1,0,0.2L9.7,96.8c0,0.4,0.2,0.8,0.5,1c5.9,3.5,15.3,3,15.3,3s9.4,0.5,15.3-3c0.3-0.2,0.6-0.6,0.5-1l-0.5-14.7
								c0-0.6-0.5-1.1-1.1-1.1C39.7,81.1,39.6,81.1,39.5,81.1L39.5,81.1z M10.2,45.5L6,29.4c0,0,4.4-6.1,19.5-6.1S45,29.4,45,29.4
								l-4.2,16.1c-5-1.1-10.2-1.8-15.3-2C20.4,43.7,15.2,44.4,10.2,45.5z"/>
							<path id="Path_57-8" class="st9" d="M6,5.3c3.4-0.9,5.7-4.8,5.5-5.8c-1,0.5-1.9,1.2-2.7,2C7.7,2.7,6.8,3.9,6,5.3 M45,5.3
								c-3.4-0.9-5.7-4.8-5.5-5.8c1,0.5,1.9,1.2,2.7,2C43.3,2.7,44.2,3.9,45,5.3"/>
						</g>
					</g>
				</g>
			</g>
			<g id="ic-car-red-9" transform="translate(944.771 1656)">
				<g id="Group_21-9" transform="translate(0 0)">
					<g id="Group_20-9">
						<g id="Group_19-9">
							<path id="Path_50-9" class="st5" d="M8.1,44L7,87.1c0,7.3,5.9,27.5,13.2,27.5h21.7c7.3,0,13.2-20.2,13.2-27.5L54.1,44
								l3.3,0.8c0,0,0.7-2.8-3.4-3.4L54,39.3c0-0.9,0-1.7,0.1-2.6L55,26.6c0.6-6.5-1.6-14.9-6.3-19.6c-4-4-10.2-4.6-16.3-4.6h-2.6
								c-6.1,0-12.3,0.6-16.3,4.6c-4.6,4.6-6.9,13-6.3,19.6l0.9,10.1c0.1,0.9,0.1,1.7,0.1,2.6l-0.1,2.2c-4.1,0.6-3.4,3.4-3.4,3.4
								L8.1,44"/>
							<path id="Path_51-9" class="st6" d="M2.7,33.7c0-0.9,0-1.7-0.1-2.6L1.6,21.1C1,14.5,3.3,6.1,7.9,1.5c4-4,10.2-4.6,16.3-4.6
								h2.6c6.1,0,12.3,0.6,16.3,4.6c4.6,4.6,6.9,13,6.3,19.6l-0.9,10.1c-0.1,0.9-0.1,1.7-0.1,2.6l1.2,47.8
								c0,7.3-5.9,27.5-13.2,27.5H14.7C7.4,109,1.4,88.8,1.4,81.5L2.7,33.7"/>
							<path id="Path_52-9" class="st6" d="M44.9,37.5c0-0.8,2.4-4.5,2.5-5.3l0.9-9.6c0.6-6.2-1.5-14.2-6-18.7
								c-3.8-3.8-9.7-4.4-15.5-4.4h-2.5c-5.8,0-11.7,0.6-15.5,4.4c-4.4,4.4-6.5,12.4-6,18.7l0.9,9.6c0.1,0.8,2.5,4.5,2.5,5.3V82
								c0,7,2.1,24.5,9,24.5h20.7c7,0,9-17.5,9-24.5L44.9,37.5"/>
							<path id="Path_53-9" class="st6" d="M4.2,35.8V38l-5,1.2C-0.8,39.2-1.6,35.8,4.2,35.8"/>
							<path id="Path_54-9" class="st7" d="M5.5,59.3v0.4C5.5,70.9,6.2,82,6.2,82s2.8-8.1,2.8-11.1V60C7.8,59.7,6.6,59.5,5.5,59.3
								 M8.9,58.7V48.5c0-1.7-2.8-11-2.8-11s-0.6,9.8-0.7,20.2C6.6,57.9,7.8,58.3,8.9,58.7 M45.6,59.3v0.4c0,11.1-0.7,22.2-0.7,22.2
								s-2.8-8.1-2.8-11.1V60C43.2,59.7,44.4,59.5,45.6,59.3 M42.1,58.7V48.5c0-1.7,2.8-11,2.8-11s0.6,9.8,0.7,20.2
								C44.4,57.9,43.2,58.3,42.1,58.7"/>
							<path id="Path_55-9" class="st6" d="M46.8,35.8V38l5,1.2C51.8,39.2,52.7,35.8,46.8,35.8"/>
							<path id="Path_56-9" class="st8" d="M39.5,81.1c-4.6,1-9.3,1.6-14,1.8c-4.7-0.1-9.4-0.7-14-1.8c-0.6-0.1-1.2,0.2-1.3,0.8
								c0,0.1,0,0.1,0,0.2L9.7,96.8c0,0.4,0.2,0.8,0.5,1c5.9,3.5,15.3,3,15.3,3s9.4,0.5,15.3-3c0.3-0.2,0.6-0.6,0.5-1l-0.5-14.7
								c0-0.6-0.5-1.1-1.1-1.1C39.7,81.1,39.6,81.1,39.5,81.1L39.5,81.1z M10.2,45.5L6,29.4c0,0,4.4-6.1,19.5-6.1S45,29.4,45,29.4
								l-4.2,16.1c-5-1.1-10.2-1.8-15.3-2C20.4,43.7,15.2,44.4,10.2,45.5z"/>
							<path id="Path_57-9" class="st9" d="M6,5.3c3.4-0.9,5.7-4.8,5.5-5.8c-1,0.5-1.9,1.2-2.7,2C7.7,2.7,6.8,3.9,6,5.3 M45,5.3
								c-3.4-0.9-5.7-4.8-5.5-5.8c1,0.5,1.9,1.2,2.7,2C43.3,2.7,44.2,3.9,45,5.3"/>
						</g>
					</g>
				</g>
			</g>
			<g id="ic-car-red-10" transform="translate(1246.771 1656)">
				<g id="Group_21-10" transform="translate(0 0)">
					<g id="Group_20-10">
						<g id="Group_19-10">
							<path id="Path_50-10" class="st5" d="M8.1,44L7,87.1c0,7.3,5.9,27.5,13.2,27.5h21.7c7.3,0,13.2-20.2,13.2-27.5L54.1,44
								l3.3,0.8c0,0,0.7-2.8-3.4-3.4L54,39.3c0-0.9,0-1.7,0.1-2.6L55,26.6c0.6-6.5-1.6-14.9-6.3-19.6c-4-4-10.2-4.6-16.3-4.6h-2.6
								c-6.1,0-12.3,0.6-16.3,4.6c-4.6,4.6-6.9,13-6.3,19.6l0.9,10.1c0.1,0.9,0.1,1.7,0.1,2.6l-0.1,2.2c-4.1,0.6-3.4,3.4-3.4,3.4
								L8.1,44"/>
							<path id="Path_51-10" class="st6" d="M2.7,33.7c0-0.9,0-1.7-0.1-2.6L1.6,21.1C1,14.5,3.3,6.1,7.9,1.5c4-4,10.2-4.6,16.3-4.6
								h2.6c6.1,0,12.3,0.6,16.3,4.6c4.6,4.6,6.9,13,6.3,19.6l-0.9,10.1c-0.1,0.9-0.1,1.7-0.1,2.6l1.2,47.8
								c0,7.3-5.9,27.5-13.2,27.5H14.7C7.4,109,1.4,88.8,1.4,81.5L2.7,33.7"/>
							<path id="Path_52-10" class="st6" d="M44.9,37.5c0-0.8,2.4-4.5,2.5-5.3l0.9-9.6c0.6-6.2-1.5-14.2-6-18.7
								c-3.8-3.8-9.7-4.4-15.5-4.4h-2.5c-5.8,0-11.7,0.6-15.5,4.4c-4.4,4.4-6.5,12.4-6,18.7l0.9,9.6c0.1,0.8,2.5,4.5,2.5,5.3V82
								c0,7,2.1,24.5,9,24.5h20.7c7,0,9-17.5,9-24.5L44.9,37.5"/>
							<path id="Path_53-10" class="st6" d="M4.2,35.8V38l-5,1.2C-0.8,39.2-1.6,35.8,4.2,35.8"/>
							<path id="Path_54-10" class="st7" d="M5.5,59.3v0.4C5.5,70.9,6.2,82,6.2,82s2.8-8.1,2.8-11.1V60C7.8,59.7,6.6,59.5,5.5,59.3
								 M8.9,58.7V48.5c0-1.7-2.8-11-2.8-11s-0.6,9.8-0.7,20.2C6.6,57.9,7.8,58.3,8.9,58.7 M45.6,59.3v0.4c0,11.1-0.7,22.2-0.7,22.2
								s-2.8-8.1-2.8-11.1V60C43.2,59.7,44.4,59.5,45.6,59.3 M42.1,58.7V48.5c0-1.7,2.8-11,2.8-11s0.6,9.8,0.7,20.2
								C44.4,57.9,43.2,58.3,42.1,58.7"/>
							<path id="Path_55-10" class="st6" d="M46.8,35.8V38l5,1.2C51.8,39.2,52.7,35.8,46.8,35.8"/>
							<path id="Path_56-10" class="st8" d="M39.5,81.1c-4.6,1-9.3,1.6-14,1.8c-4.7-0.1-9.4-0.7-14-1.8c-0.6-0.1-1.2,0.2-1.3,0.8
								c0,0.1,0,0.1,0,0.2L9.7,96.8c0,0.4,0.2,0.8,0.5,1c5.9,3.5,15.3,3,15.3,3s9.4,0.5,15.3-3c0.3-0.2,0.6-0.6,0.5-1l-0.5-14.7
								c0-0.6-0.5-1.1-1.1-1.1C39.7,81.1,39.6,81.1,39.5,81.1L39.5,81.1z M10.2,45.5L6,29.4c0,0,4.4-6.1,19.5-6.1S45,29.4,45,29.4
								l-4.2,16.1c-5-1.1-10.2-1.8-15.3-2C20.4,43.7,15.2,44.4,10.2,45.5z"/>
							<path id="Path_57-10" class="st9" d="M6,5.3c3.4-0.9,5.7-4.8,5.5-5.8c-1,0.5-1.9,1.2-2.7,2C7.7,2.7,6.8,3.9,6,5.3 M45,5.3
								c-3.4-0.9-5.7-4.8-5.5-5.8c1,0.5,1.9,1.2,2.7,2C43.3,2.7,44.2,3.9,45,5.3"/>
						</g>
					</g>
				</g>
			</g>
		</g>
		<g transform="matrix(1, 0, 0, 1, 0, 1624.5)">
			<g id="Ellipse_1-2" transform="translate(548 34.5)">
				<ellipse class="st10" cx="21.7" cy="50.9" rx="22.5" ry="54"/>
				<ellipse class="st11" cx="21.7" cy="50.9" rx="22" ry="53.5"/>
			</g>
		</g>
		<g transform="matrix(1, 0, 0, 1, 0, 1624.5)">
			<g id="Ellipse_2-2" transform="translate(1049 35.5)">
				<ellipse class="st10" cx="21.7" cy="49.4" rx="22.5" ry="52.5"/>
				<ellipse class="st11" cx="21.7" cy="49.4" rx="22" ry="52"/>
			</g>
		</g>
		<g id="ic-car-red-11" transform="translate(1043.771 1656)">
			<g id="Group_21-11" transform="translate(0 0)">
				<g id="Group_20-11">
					<g id="Group_19-11">
						<path id="Path_50-11" class="st5" d="M8.1,44L7,87.1c0,7.3,5.9,27.5,13.2,27.5h21.7c7.3,0,13.2-20.2,13.2-27.5L54.1,44
							l3.3,0.8c0,0,0.7-2.8-3.4-3.4L54,39.3c0-0.9,0-1.7,0.1-2.6L55,26.6c0.6-6.5-1.6-14.9-6.3-19.6c-4-4-10.2-4.6-16.3-4.6h-2.6
							c-6.1,0-12.3,0.6-16.3,4.6c-4.6,4.6-6.9,13-6.3,19.6l0.9,10.1c0.1,0.9,0.1,1.7,0.1,2.6l-0.1,2.2c-4.1,0.6-3.4,3.4-3.4,3.4
							L8.1,44"/>
						<path id="Path_51-11" class="st6" d="M2.7,33.7c0-0.9,0-1.7-0.1-2.6L1.6,21.1C1,14.5,3.3,6.1,7.9,1.5c4-4,10.2-4.6,16.3-4.6
							h2.6c6.1,0,12.3,0.6,16.3,4.6c4.6,4.6,6.9,13,6.3,19.6l-0.9,10.1c-0.1,0.9-0.1,1.7-0.1,2.6l1.2,47.8c0,7.3-5.9,27.5-13.2,27.5
							H14.7C7.4,109,1.4,88.8,1.4,81.5L2.7,33.7"/>
						<path id="Path_52-11" class="st6" d="M44.9,37.5c0-0.8,2.4-4.5,2.5-5.3l0.9-9.6c0.6-6.2-1.5-14.2-6-18.7
							c-3.8-3.8-9.7-4.4-15.5-4.4h-2.5c-5.8,0-11.7,0.6-15.5,4.4c-4.4,4.4-6.5,12.4-6,18.7l0.9,9.6c0.1,0.8,2.5,4.5,2.5,5.3V82
							c0,7,2.1,24.5,9,24.5h20.7c7,0,9-17.5,9-24.5L44.9,37.5"/>
						<path id="Path_53-11" class="st6" d="M4.2,35.8V38l-5,1.2C-0.8,39.2-1.6,35.8,4.2,35.8"/>
						<path id="Path_54-11" class="st7" d="M5.5,59.3v0.4C5.5,70.9,6.2,82,6.2,82s2.8-8.1,2.8-11.1V60C7.8,59.7,6.6,59.5,5.5,59.3
							 M8.9,58.7V48.5c0-1.7-2.8-11-2.8-11s-0.6,9.8-0.7,20.2C6.6,57.9,7.8,58.3,8.9,58.7 M45.6,59.3v0.4c0,11.1-0.7,22.2-0.7,22.2
							s-2.8-8.1-2.8-11.1V60C43.2,59.7,44.4,59.5,45.6,59.3 M42.1,58.7V48.5c0-1.7,2.8-11,2.8-11s0.6,9.8,0.7,20.2
							C44.4,57.9,43.2,58.3,42.1,58.7"/>
						<path id="Path_55-11" class="st6" d="M46.8,35.8V38l5,1.2C51.8,39.2,52.7,35.8,46.8,35.8"/>
						<path id="Path_56-11" class="st8" d="M39.5,81.1c-4.6,1-9.3,1.6-14,1.8c-4.7-0.1-9.4-0.7-14-1.8c-0.6-0.1-1.2,0.2-1.3,0.8
							c0,0.1,0,0.1,0,0.2L9.7,96.8c0,0.4,0.2,0.8,0.5,1c5.9,3.5,15.3,3,15.3,3s9.4,0.5,15.3-3c0.3-0.2,0.6-0.6,0.5-1l-0.5-14.7
							c0-0.6-0.5-1.1-1.1-1.1C39.7,81.1,39.6,81.1,39.5,81.1L39.5,81.1z M10.2,45.5L6,29.4c0,0,4.4-6.1,19.5-6.1S45,29.4,45,29.4
							l-4.2,16.1c-5-1.1-10.2-1.8-15.3-2C20.4,43.7,15.2,44.4,10.2,45.5z"/>
						<path id="Path_57-11" class="st9" d="M6,5.3c3.4-0.9,5.7-4.8,5.5-5.8c-1,0.5-1.9,1.2-2.7,2C7.7,2.7,6.8,3.9,6,5.3 M45,5.3
							c-3.4-0.9-5.7-4.8-5.5-5.8c1,0.5,1.9,1.2,2.7,2C43.3,2.7,44.2,3.9,45,5.3"/>
					</g>
				</g>
			</g>
		</g>
		<g id="ic-car-red-12" transform="translate(543.771 1656)">
			<g id="Group_21-12" transform="translate(0 0)">
				<g id="Group_20-12">
					<g id="Group_19-12">
						<path id="Path_50-12" class="st5" d="M8.1,44L7,87.1c0,7.3,5.9,27.5,13.2,27.5h21.7c7.3,0,13.2-20.2,13.2-27.5L54.1,44
							l3.3,0.8c0,0,0.7-2.8-3.4-3.4L54,39.3c0-0.9,0-1.7,0.1-2.6L55,26.6c0.6-6.5-1.6-14.9-6.3-19.6c-4-4-10.2-4.6-16.3-4.6h-2.6
							c-6.1,0-12.3,0.6-16.3,4.6c-4.6,4.6-6.9,13-6.3,19.6l0.9,10.1c0.1,0.9,0.1,1.7,0.1,2.6l-0.1,2.2c-4.1,0.6-3.4,3.4-3.4,3.4
							L8.1,44"/>
						<path id="Path_51-12" class="st6" d="M2.7,33.7c0-0.9,0-1.7-0.1-2.6L1.6,21.1C1,14.5,3.3,6.1,7.9,1.5c4-4,10.2-4.6,16.3-4.6
							h2.6c6.1,0,12.3,0.6,16.3,4.6c4.6,4.6,6.9,13,6.3,19.6l-0.9,10.1c-0.1,0.9-0.1,1.7-0.1,2.6l1.2,47.8c0,7.3-5.9,27.5-13.2,27.5
							H14.7C7.4,109,1.4,88.8,1.4,81.5L2.7,33.7"/>
						<path id="Path_52-12" class="st6" d="M44.9,37.5c0-0.8,2.4-4.5,2.5-5.3l0.9-9.6c0.6-6.2-1.5-14.2-6-18.7
							c-3.8-3.8-9.7-4.4-15.5-4.4h-2.5c-5.8,0-11.7,0.6-15.5,4.4c-4.4,4.4-6.5,12.4-6,18.7l0.9,9.6c0.1,0.8,2.5,4.5,2.5,5.3V82
							c0,7,2.1,24.5,9,24.5h20.7c7,0,9-17.5,9-24.5L44.9,37.5"/>
						<path id="Path_53-12" class="st6" d="M4.2,35.8V38l-5,1.2C-0.8,39.2-1.6,35.8,4.2,35.8"/>
						<path id="Path_54-12" class="st7" d="M5.5,59.3v0.4C5.5,70.9,6.2,82,6.2,82s2.8-8.1,2.8-11.1V60C7.8,59.7,6.6,59.5,5.5,59.3
							 M8.9,58.7V48.5c0-1.7-2.8-11-2.8-11s-0.6,9.8-0.7,20.2C6.6,57.9,7.8,58.3,8.9,58.7 M45.6,59.3v0.4c0,11.1-0.7,22.2-0.7,22.2
							s-2.8-8.1-2.8-11.1V60C43.2,59.7,44.4,59.5,45.6,59.3 M42.1,58.7V48.5c0-1.7,2.8-11,2.8-11s0.6,9.8,0.7,20.2
							C44.4,57.9,43.2,58.3,42.1,58.7"/>
						<path id="Path_55-12" class="st6" d="M46.8,35.8V38l5,1.2C51.8,39.2,52.7,35.8,46.8,35.8"/>
						<path id="Path_56-12" class="st8" d="M39.5,81.1c-4.6,1-9.3,1.6-14,1.8c-4.7-0.1-9.4-0.7-14-1.8c-0.6-0.1-1.2,0.2-1.3,0.8
							c0,0.1,0,0.1,0,0.2L9.7,96.8c0,0.4,0.2,0.8,0.5,1c5.9,3.5,15.3,3,15.3,3s9.4,0.5,15.3-3c0.3-0.2,0.6-0.6,0.5-1l-0.5-14.7
							c0-0.6-0.5-1.1-1.1-1.1C39.7,81.1,39.6,81.1,39.5,81.1L39.5,81.1z M10.2,45.5L6,29.4c0,0,4.4-6.1,19.5-6.1S45,29.4,45,29.4
							l-4.2,16.1c-5-1.1-10.2-1.8-15.3-2C20.4,43.7,15.2,44.4,10.2,45.5z"/>
						<path id="Path_57-12" class="st9" d="M6,5.3c3.4-0.9,5.7-4.8,5.5-5.8c-1,0.5-1.9,1.2-2.7,2C7.7,2.7,6.8,3.9,6,5.3 M45,5.3
							c-3.4-0.9-5.7-4.8-5.5-5.8c1,0.5,1.9,1.2,2.7,2C43.3,2.7,44.2,3.9,45,5.3"/>
					</g>
				</g>
			</g>
		</g>
	</g>
	<g id="btn-parkhere">
		<path id="Rectangle_12" class="st12" d="M533.2,1781.9h74c1.1,0,2,0.9,2,2v14c0,1.1-0.9,2-2,2h-74c-1.1,0-2-0.9-2-2v-14
			C531.2,1782.8,532.1,1781.9,533.2,1781.9z"/>
		<path id="Rectangle_13" class="st12" d="M1033.2,1781.9h74c1.1,0,2,0.9,2,2v14c0,1.1-0.9,2-2,2h-74c-1.1,0-2-0.9-2-2v-14
			C1031.2,1782.8,1032.1,1781.9,1033.2,1781.9z"/>
		<g class="st13">
			<path class="st10" d="M549.4,1789.2c0,0.8-0.2,1.3-0.7,1.7c-0.5,0.4-1.1,0.6-2,0.6h-0.5v2.4h-1.4v-6.7c0.6-0.1,1.2-0.1,1.8-0.1
				c0.9,0,1.7,0.2,2.1,0.5C549.1,1788,549.4,1788.5,549.4,1789.2z M548,1789.2c0-0.4-0.1-0.7-0.3-0.8c-0.2-0.2-0.5-0.3-1-0.3
				c-0.2,0-0.4,0-0.5,0v2.4h0.3c0.5,0,0.9-0.1,1.1-0.3S548,1789.7,548,1789.2z"/>
			<path class="st10" d="M554.1,1793.9l-0.6-1.6h-2.3l-0.6,1.6h-1.4l2.3-6.6c0.2-0.1,0.5-0.1,0.8-0.1c0.5,0,0.8,0.2,0.9,0.6l2.1,6.1
				H554.1z M552.4,1788.4l-0.9,2.9h1.8L552.4,1788.4z"/>
			<path class="st10" d="M561.3,1789.1c0,0.5-0.1,0.9-0.3,1.2c-0.2,0.3-0.5,0.6-0.9,0.7l1.6,2.8c-0.3,0.1-0.5,0.2-0.8,0.2
				c-0.2,0-0.5-0.1-0.6-0.2c-0.2-0.1-0.3-0.3-0.5-0.5l-1.1-1.9h-0.5v2.5h-1.4v-6.7c0.6-0.1,1.2-0.1,1.8-0.1c1,0,1.7,0.2,2.1,0.5
				C561.1,1787.9,561.3,1788.4,561.3,1789.1z M559.8,1789.2c0-0.4-0.1-0.7-0.3-0.9c-0.2-0.2-0.5-0.3-0.9-0.3c-0.1,0-0.2,0-0.3,0
				c-0.1,0-0.2,0-0.2,0v2.3h0.5c0.4,0,0.7-0.1,1-0.3C559.7,1789.9,559.8,1789.6,559.8,1789.2z"/>
			<path class="st10" d="M562.9,1787.2c0.2,0,0.4,0,0.5,0c0.6,0,0.9,0.3,0.9,0.8v2.4c0-0.1,0.1-0.3,0.1-0.4s0.2-0.3,0.3-0.5l1.4-1.8
				c0.1-0.2,0.3-0.3,0.4-0.4c0.1-0.1,0.3-0.1,0.5-0.1c0.2,0,0.3,0,0.5,0.1c0.1,0.1,0.3,0.1,0.4,0.2l-2.2,3l2.5,3.4
				c-0.3,0.2-0.5,0.2-0.8,0.2c-0.4,0-0.8-0.2-1.1-0.5l-1.5-1.9c-0.3-0.4-0.5-0.8-0.5-1.1v3.4h-1.4V1787.2z"/>
			<path class="st10" d="M572.7,1789.9h2.5v-2.7c0.2,0,0.4,0,0.5,0c0.3,0,0.5,0.1,0.6,0.2s0.2,0.3,0.2,0.6v6h-1.4v-2.9h-2.5v2.9
				h-1.4v-6.7c0.2,0,0.4,0,0.5,0c0.6,0,0.9,0.3,0.9,0.8V1789.9z"/>
			<path class="st10" d="M581.9,1792.8c0.3,0,0.5,0.1,0.6,0.2c0.1,0.1,0.2,0.3,0.2,0.5c0,0.1,0,0.1,0,0.2c0,0,0,0.1,0,0.2h-4.3v-6.7
				h4.2c0,0.1,0,0.2,0,0.4c0,0.3-0.1,0.4-0.2,0.5c-0.1,0.1-0.3,0.2-0.7,0.2h-2v1.6h2.1v1.1h-2.1v1.9H581.9z"/>
			<path class="st10" d="M588.6,1789.1c0,0.5-0.1,0.9-0.3,1.2c-0.2,0.3-0.5,0.6-0.9,0.7l1.6,2.8c-0.3,0.1-0.5,0.2-0.8,0.2
				c-0.2,0-0.5-0.1-0.6-0.2c-0.2-0.1-0.3-0.3-0.5-0.5l-1.1-1.9h-0.5v2.5H584v-6.7c0.6-0.1,1.2-0.1,1.8-0.1c1,0,1.7,0.2,2.1,0.5
				C588.4,1787.9,588.6,1788.4,588.6,1789.1z M587.2,1789.2c0-0.4-0.1-0.7-0.3-0.9c-0.2-0.2-0.5-0.3-0.9-0.3c-0.1,0-0.2,0-0.3,0
				c-0.1,0-0.2,0-0.2,0v2.3h0.5c0.4,0,0.7-0.1,1-0.3C587,1789.9,587.2,1789.6,587.2,1789.2z"/>
			<path class="st10" d="M593.8,1792.8c0.3,0,0.5,0.1,0.6,0.2c0.1,0.1,0.2,0.3,0.2,0.5c0,0.1,0,0.1,0,0.2c0,0,0,0.1,0,0.2h-4.3v-6.7
				h4.2c0,0.1,0,0.2,0,0.4c0,0.3-0.1,0.4-0.2,0.5c-0.1,0.1-0.3,0.2-0.7,0.2h-2v1.6h2.1v1.1h-2.1v1.9H593.8z"/>
			<path class="st10" d="M597.5,1793.3c0,0.2-0.1,0.4-0.2,0.5c-0.1,0.1-0.3,0.2-0.5,0.2c-0.2,0-0.4-0.1-0.5-0.2
				c-0.1-0.1-0.2-0.3-0.2-0.5c0-0.2,0.1-0.4,0.2-0.5c0.1-0.1,0.3-0.2,0.5-0.2c0.2,0,0.4,0.1,0.5,0.2S597.5,1793.1,597.5,1793.3z
				 M597.4,1792c-0.2,0-0.3,0-0.5,0c-0.3,0-0.5-0.1-0.7-0.2c-0.2-0.1-0.2-0.4-0.2-0.6v-4c0.2,0,0.3,0,0.5,0c0.6,0,0.9,0.3,0.9,0.8
				V1792z"/>
		</g>
		<g class="st13">
			<path class="st14" d="M654.8,1793.9v-0.9c0.3-0.2,0.6-0.5,0.9-0.8c0.3-0.3,0.7-0.7,0.9-1c0.5-0.6,0.8-1.1,0.8-1.5
				c0-0.3-0.1-0.5-0.2-0.6c-0.1-0.1-0.4-0.2-0.6-0.2c-0.2,0-0.5,0.1-0.7,0.2c-0.2,0.1-0.5,0.3-0.7,0.5c-0.3-0.3-0.4-0.6-0.4-0.7
				c0-0.1,0.1-0.2,0.2-0.4c0.5-0.4,1.1-0.6,1.8-0.6c0.6,0,1.1,0.2,1.4,0.5c0.3,0.3,0.5,0.7,0.5,1.3c0,0.7-0.4,1.5-1.3,2.4
				c-0.3,0.4-0.7,0.7-0.9,0.9h1.7c0.2,0,0.4,0.1,0.5,0.2c0.1,0.1,0.2,0.3,0.2,0.5c0,0.1,0,0.1,0,0.2c0,0,0,0.1,0,0.2H654.8z"/>
			<path class="st14" d="M661.4,1789.9c0,0.2-0.1,0.4-0.2,0.5c-0.1,0.1-0.3,0.2-0.5,0.2c-0.2,0-0.4-0.1-0.5-0.2s-0.2-0.3-0.2-0.5
				c0-0.2,0.1-0.3,0.2-0.5s0.3-0.2,0.5-0.2c0.2,0,0.4,0.1,0.5,0.2C661.4,1789.6,661.4,1789.7,661.4,1789.9z M661.4,1793.3
				c0,0.2-0.1,0.4-0.2,0.5c-0.1,0.1-0.3,0.2-0.5,0.2c-0.2,0-0.4-0.1-0.5-0.2s-0.2-0.3-0.2-0.5c0-0.2,0.1-0.3,0.2-0.5
				s0.3-0.2,0.5-0.2c0.2,0,0.4,0.1,0.5,0.2C661.4,1793,661.4,1793.2,661.4,1793.3z"/>
			<path class="st14" d="M667,1790.9c0,1-0.2,1.8-0.6,2.3c-0.4,0.5-0.9,0.8-1.7,0.8c-0.8,0-1.3-0.3-1.7-0.8
				c-0.4-0.5-0.6-1.3-0.6-2.3c0-1,0.2-1.8,0.6-2.3c0.4-0.5,1-0.8,1.7-0.8c0.7,0,1.3,0.3,1.6,0.8C666.8,1789.1,667,1789.9,667,1790.9
				z M665.8,1790.9c0-0.7-0.1-1.3-0.2-1.6c-0.2-0.3-0.4-0.5-0.8-0.5c-0.3,0-0.6,0.2-0.8,0.5c-0.2,0.3-0.2,0.9-0.2,1.6
				c0,0.7,0.1,1.2,0.2,1.6c0.2,0.3,0.4,0.5,0.8,0.5c0.3,0,0.6-0.2,0.8-0.5C665.7,1792.2,665.8,1791.7,665.8,1790.9z"/>
			<path class="st14" d="M672.3,1792.2c0,0.6-0.2,1.1-0.6,1.4c-0.4,0.3-0.9,0.5-1.6,0.5c-0.7,0-1.2-0.2-1.6-0.5
				c-0.4-0.3-0.5-0.7-0.5-1.3c0-0.3,0.1-0.7,0.3-0.9s0.4-0.4,0.8-0.5c-0.3-0.1-0.5-0.3-0.6-0.5c-0.2-0.2-0.2-0.5-0.2-0.8
				c0-0.3,0.1-0.6,0.3-0.9s0.4-0.4,0.7-0.6c0.3-0.1,0.6-0.2,1-0.2c0.6,0,1.1,0.1,1.4,0.4c0.4,0.3,0.5,0.7,0.5,1.2
				c0,0.3-0.1,0.6-0.2,0.8c-0.1,0.2-0.3,0.4-0.6,0.6c0.3,0.1,0.6,0.3,0.8,0.5C672.2,1791.5,672.3,1791.8,672.3,1792.2z M671,1792.2
				c0-0.3-0.1-0.5-0.2-0.7c-0.2-0.2-0.4-0.2-0.7-0.2c-0.3,0-0.5,0.1-0.7,0.2s-0.2,0.4-0.2,0.7c0,0.3,0.1,0.5,0.2,0.7
				c0.2,0.2,0.4,0.2,0.7,0.2c0.3,0,0.5-0.1,0.7-0.2C671,1792.7,671,1792.5,671,1792.2z M670.9,1789.5c0-0.2-0.1-0.4-0.2-0.6
				c-0.1-0.1-0.3-0.2-0.6-0.2c-0.2,0-0.4,0.1-0.6,0.2c-0.1,0.1-0.2,0.3-0.2,0.6c0,0.3,0.1,0.5,0.2,0.6s0.3,0.2,0.6,0.2
				c0.2,0,0.4-0.1,0.6-0.2C670.8,1789.9,670.9,1789.7,670.9,1789.5z"/>
			<path class="st14" d="M674.9,1789.9c0,0.2-0.1,0.4-0.2,0.5c-0.1,0.1-0.3,0.2-0.5,0.2c-0.2,0-0.4-0.1-0.5-0.2s-0.2-0.3-0.2-0.5
				c0-0.2,0.1-0.3,0.2-0.5s0.3-0.2,0.5-0.2c0.2,0,0.4,0.1,0.5,0.2C674.8,1789.6,674.9,1789.7,674.9,1789.9z M674.9,1793.3
				c0,0.2-0.1,0.4-0.2,0.5c-0.1,0.1-0.3,0.2-0.5,0.2c-0.2,0-0.4-0.1-0.5-0.2s-0.2-0.3-0.2-0.5c0-0.2,0.1-0.3,0.2-0.5
				s0.3-0.2,0.5-0.2c0.2,0,0.4,0.1,0.5,0.2C674.8,1793,674.9,1793.2,674.9,1793.3z"/>
			<path class="st14" d="M678.1,1793.9v-4.5l-1.2,0.6c-0.2-0.3-0.4-0.6-0.4-0.7c0-0.2,0.1-0.3,0.3-0.4l1.3-0.7
				c0.1-0.1,0.2-0.1,0.3-0.2c0.1,0,0.2-0.1,0.3-0.1c0.2,0,0.4,0,0.5,0.1v5.8H678.1z"/>
			<path class="st14" d="M681.5,1792.5v-0.8l2.3-3.2c0.1-0.2,0.3-0.3,0.4-0.4s0.3-0.1,0.5-0.1c0.1,0,0.2,0,0.3,0
				c0.1,0,0.2,0.1,0.2,0.1v3.5h0.3c0.3,0,0.5,0.1,0.5,0.4c0,0.1,0,0.1,0,0.2c0,0.1,0,0.1,0,0.1l0,0.2h-0.7v1.4h-1.2v-1.4H681.5z
				 M683.9,1791.5v-2l-1.5,2H683.9z"/>
		</g>
		<g class="st13">
			<path class="st14" d="M158.6,1792.2c0,0.6-0.2,1-0.6,1.4s-0.9,0.5-1.6,0.5c-0.7,0-1.2-0.1-1.7-0.4c-0.1,0-0.1-0.1-0.2-0.2
				c0-0.1-0.1-0.1-0.1-0.2c0-0.2,0.1-0.4,0.4-0.8c0.2,0.2,0.4,0.4,0.7,0.5c0.3,0.1,0.5,0.2,0.8,0.2c0.3,0,0.6-0.1,0.7-0.3
				c0.2-0.2,0.3-0.4,0.3-0.7c0-0.3-0.1-0.5-0.3-0.7c-0.2-0.2-0.4-0.2-0.8-0.2h-0.5v-0.9h0.5c0.2,0,0.3,0,0.5-0.1
				c0.1-0.1,0.2-0.2,0.3-0.3c0.1-0.1,0.1-0.3,0.1-0.4c0-0.5-0.3-0.7-0.9-0.7c-0.2,0-0.4,0-0.7,0.1s-0.5,0.2-0.7,0.5
				c-0.1-0.1-0.2-0.2-0.3-0.4c-0.1-0.1-0.1-0.2-0.1-0.3c0-0.1,0-0.2,0.1-0.2s0.1-0.1,0.2-0.2c0.2-0.2,0.5-0.3,0.8-0.4s0.6-0.1,1-0.1
				c0.6,0,1.1,0.1,1.4,0.4c0.3,0.3,0.5,0.6,0.5,1.1c0,0.3-0.1,0.6-0.2,0.8c-0.2,0.2-0.4,0.4-0.7,0.6c0.4,0.1,0.6,0.3,0.8,0.5
				C158.5,1791.5,158.6,1791.8,158.6,1792.2z"/>
			<path class="st14" d="M161.4,1789.9c0,0.2-0.1,0.4-0.2,0.5c-0.1,0.1-0.3,0.2-0.5,0.2c-0.2,0-0.4-0.1-0.5-0.2s-0.2-0.3-0.2-0.5
				c0-0.2,0.1-0.3,0.2-0.5s0.3-0.2,0.5-0.2c0.2,0,0.4,0.1,0.5,0.2C161.4,1789.6,161.4,1789.7,161.4,1789.9z M161.4,1793.3
				c0,0.2-0.1,0.4-0.2,0.5c-0.1,0.1-0.3,0.2-0.5,0.2c-0.2,0-0.4-0.1-0.5-0.2s-0.2-0.3-0.2-0.5c0-0.2,0.1-0.3,0.2-0.5
				s0.3-0.2,0.5-0.2c0.2,0,0.4,0.1,0.5,0.2C161.4,1793,161.4,1793.2,161.4,1793.3z"/>
			<path class="st14" d="M162.8,1793.9v-0.9c0.3-0.2,0.6-0.5,0.9-0.8c0.3-0.3,0.7-0.7,0.9-1c0.5-0.6,0.8-1.1,0.8-1.5
				c0-0.3-0.1-0.5-0.2-0.6c-0.1-0.1-0.4-0.2-0.6-0.2c-0.2,0-0.5,0.1-0.7,0.2c-0.2,0.1-0.5,0.3-0.7,0.5c-0.3-0.3-0.4-0.6-0.4-0.7
				c0-0.1,0.1-0.2,0.2-0.4c0.5-0.4,1.1-0.6,1.8-0.6c0.6,0,1.1,0.2,1.4,0.5c0.3,0.3,0.5,0.7,0.5,1.3c0,0.7-0.4,1.5-1.3,2.4
				c-0.3,0.4-0.7,0.7-0.9,0.9h1.7c0.2,0,0.4,0.1,0.5,0.2c0.1,0.1,0.2,0.3,0.2,0.5c0,0.1,0,0.1,0,0.2c0,0,0,0.1,0,0.2H162.8z"/>
			<path class="st14" d="M172.3,1792.2c0,0.6-0.2,1.1-0.6,1.4c-0.4,0.3-0.9,0.5-1.6,0.5c-0.7,0-1.2-0.2-1.6-0.5
				c-0.4-0.3-0.5-0.7-0.5-1.3c0-0.3,0.1-0.7,0.3-0.9s0.4-0.4,0.8-0.5c-0.3-0.1-0.5-0.3-0.6-0.5c-0.2-0.2-0.2-0.5-0.2-0.8
				c0-0.3,0.1-0.6,0.3-0.9s0.4-0.4,0.7-0.6c0.3-0.1,0.6-0.2,1-0.2c0.6,0,1.1,0.1,1.4,0.4c0.4,0.3,0.5,0.7,0.5,1.2
				c0,0.3-0.1,0.6-0.2,0.8c-0.1,0.2-0.3,0.4-0.6,0.6c0.3,0.1,0.6,0.3,0.8,0.5C172.2,1791.5,172.3,1791.8,172.3,1792.2z M171,1792.2
				c0-0.3-0.1-0.5-0.2-0.7c-0.2-0.2-0.4-0.2-0.7-0.2c-0.3,0-0.5,0.1-0.7,0.2s-0.2,0.4-0.2,0.7c0,0.3,0.1,0.5,0.2,0.7
				c0.2,0.2,0.4,0.2,0.7,0.2c0.3,0,0.5-0.1,0.7-0.2C171,1792.7,171,1792.5,171,1792.2z M170.9,1789.5c0-0.2-0.1-0.4-0.2-0.6
				c-0.1-0.1-0.3-0.2-0.6-0.2c-0.2,0-0.4,0.1-0.6,0.2c-0.1,0.1-0.2,0.3-0.2,0.6c0,0.3,0.1,0.5,0.2,0.6s0.3,0.2,0.6,0.2
				c0.2,0,0.4-0.1,0.6-0.2C170.8,1789.9,170.9,1789.7,170.9,1789.5z"/>
			<path class="st14" d="M174.9,1789.9c0,0.2-0.1,0.4-0.2,0.5c-0.1,0.1-0.3,0.2-0.5,0.2c-0.2,0-0.4-0.1-0.5-0.2s-0.2-0.3-0.2-0.5
				c0-0.2,0.1-0.3,0.2-0.5s0.3-0.2,0.5-0.2c0.2,0,0.4,0.1,0.5,0.2C174.8,1789.6,174.9,1789.7,174.9,1789.9z M174.9,1793.3
				c0,0.2-0.1,0.4-0.2,0.5c-0.1,0.1-0.3,0.2-0.5,0.2c-0.2,0-0.4-0.1-0.5-0.2s-0.2-0.3-0.2-0.5c0-0.2,0.1-0.3,0.2-0.5
				s0.3-0.2,0.5-0.2c0.2,0,0.4,0.1,0.5,0.2C174.8,1793,174.9,1793.2,174.9,1793.3z"/>
			<path class="st14" d="M180.4,1790.9c0,1-0.2,1.8-0.6,2.3c-0.4,0.5-0.9,0.8-1.7,0.8c-0.8,0-1.3-0.3-1.7-0.8
				c-0.4-0.5-0.6-1.3-0.6-2.3c0-1,0.2-1.8,0.6-2.3c0.4-0.5,1-0.8,1.7-0.8c0.7,0,1.3,0.3,1.6,0.8
				C180.3,1789.1,180.4,1789.9,180.4,1790.9z M179.2,1790.9c0-0.7-0.1-1.3-0.2-1.6c-0.2-0.3-0.4-0.5-0.8-0.5c-0.3,0-0.6,0.2-0.8,0.5
				c-0.2,0.3-0.2,0.9-0.2,1.6c0,0.7,0.1,1.2,0.2,1.6c0.2,0.3,0.4,0.5,0.8,0.5c0.3,0,0.6-0.2,0.8-0.5
				C179.2,1792.2,179.2,1791.7,179.2,1790.9z"/>
			<path class="st14" d="M185.7,1791.8c0,0.5-0.1,0.9-0.3,1.2c-0.2,0.3-0.4,0.6-0.7,0.8s-0.7,0.3-1.1,0.3c-0.7,0-1.2-0.2-1.6-0.7
				c-0.4-0.5-0.5-1.1-0.5-1.9c0-0.7,0.1-1.4,0.4-1.9c0.3-0.5,0.6-0.9,1.1-1.2c0.5-0.3,1-0.4,1.5-0.4c0.3,0,0.4,0,0.5,0.1
				c0.1,0.1,0.2,0.2,0.2,0.4c0,0.2,0,0.3,0,0.4c-0.1,0-0.3,0-0.5,0c-0.4,0-0.8,0.1-1.1,0.4s-0.6,0.6-0.7,1c0.1-0.1,0.3-0.2,0.5-0.3
				c0.2-0.1,0.4-0.1,0.7-0.1c0.5,0,0.9,0.2,1.2,0.5C185.6,1790.7,185.7,1791.2,185.7,1791.8z M184.5,1791.9c0-0.4-0.1-0.7-0.2-0.9
				c-0.1-0.2-0.3-0.3-0.6-0.3c-0.1,0-0.3,0-0.5,0.1c-0.2,0.1-0.3,0.1-0.4,0.2c0,0.1,0,0.3,0,0.5c0,1,0.3,1.5,0.9,1.5
				c0.2,0,0.4-0.1,0.6-0.3S184.5,1792.3,184.5,1791.9z"/>
		</g>
		<g class="st13">
			<path class="st14" d="M859,1790.9c0,1-0.2,1.8-0.6,2.3c-0.4,0.5-0.9,0.8-1.7,0.8c-0.8,0-1.3-0.3-1.7-0.8
				c-0.4-0.5-0.6-1.3-0.6-2.3c0-1,0.2-1.8,0.6-2.3c0.4-0.5,1-0.8,1.7-0.8s1.3,0.3,1.6,0.8C858.8,1789.1,859,1789.9,859,1790.9z
				 M857.7,1790.9c0-0.7-0.1-1.3-0.2-1.6c-0.2-0.3-0.4-0.5-0.8-0.5c-0.3,0-0.6,0.2-0.8,0.5c-0.2,0.3-0.2,0.9-0.2,1.6
				c0,0.7,0.1,1.2,0.2,1.6c0.2,0.3,0.4,0.5,0.8,0.5c0.3,0,0.6-0.2,0.8-0.5S857.7,1791.7,857.7,1790.9z"/>
			<path class="st14" d="M861.4,1789.9c0,0.2-0.1,0.4-0.2,0.5c-0.1,0.1-0.3,0.2-0.5,0.2c-0.2,0-0.4-0.1-0.5-0.2s-0.2-0.3-0.2-0.5
				c0-0.2,0.1-0.3,0.2-0.5s0.3-0.2,0.5-0.2c0.2,0,0.4,0.1,0.5,0.2S861.4,1789.7,861.4,1789.9z M861.4,1793.3c0,0.2-0.1,0.4-0.2,0.5
				c-0.1,0.1-0.3,0.2-0.5,0.2c-0.2,0-0.4-0.1-0.5-0.2s-0.2-0.3-0.2-0.5c0-0.2,0.1-0.3,0.2-0.5s0.3-0.2,0.5-0.2
				c0.2,0,0.4,0.1,0.5,0.2S861.4,1793.2,861.4,1793.3z"/>
			<path class="st14" d="M867,1790.9c0,1-0.2,1.8-0.6,2.3c-0.4,0.5-0.9,0.8-1.7,0.8c-0.8,0-1.3-0.3-1.7-0.8
				c-0.4-0.5-0.6-1.3-0.6-2.3c0-1,0.2-1.8,0.6-2.3c0.4-0.5,1-0.8,1.7-0.8s1.3,0.3,1.6,0.8C866.8,1789.1,867,1789.9,867,1790.9z
				 M865.8,1790.9c0-0.7-0.1-1.3-0.2-1.6c-0.2-0.3-0.4-0.5-0.8-0.5c-0.3,0-0.6,0.2-0.8,0.5c-0.2,0.3-0.2,0.9-0.2,1.6
				c0,0.7,0.1,1.2,0.2,1.6c0.2,0.3,0.4,0.5,0.8,0.5c0.3,0,0.6-0.2,0.8-0.5S865.8,1791.7,865.8,1790.9z"/>
			<path class="st14" d="M872.3,1791.8c0,0.5-0.1,0.9-0.3,1.2s-0.4,0.6-0.7,0.8c-0.3,0.2-0.7,0.3-1.1,0.3c-0.7,0-1.2-0.2-1.6-0.7
				s-0.5-1.1-0.5-1.9c0-0.7,0.1-1.4,0.4-1.9c0.3-0.5,0.6-0.9,1.1-1.2c0.5-0.3,1-0.4,1.5-0.4c0.3,0,0.4,0,0.5,0.1
				c0.1,0.1,0.2,0.2,0.2,0.4c0,0.2,0,0.3,0,0.4c-0.2,0-0.3,0-0.5,0c-0.4,0-0.8,0.1-1.1,0.4s-0.6,0.6-0.7,1c0.1-0.1,0.3-0.2,0.5-0.3
				s0.4-0.1,0.7-0.1c0.5,0,0.9,0.2,1.2,0.5C872.1,1790.7,872.3,1791.2,872.3,1791.8z M871,1791.9c0-0.4-0.1-0.7-0.2-0.9
				c-0.1-0.2-0.3-0.3-0.6-0.3c-0.1,0-0.3,0-0.5,0.1c-0.2,0.1-0.3,0.1-0.4,0.2c0,0.1,0,0.3,0,0.5c0,1,0.3,1.5,0.9,1.5
				c0.2,0,0.4-0.1,0.6-0.3C871,1792.5,871,1792.3,871,1791.9z"/>
			<path class="st14" d="M874.9,1789.9c0,0.2-0.1,0.4-0.2,0.5s-0.3,0.2-0.5,0.2c-0.2,0-0.4-0.1-0.5-0.2s-0.2-0.3-0.2-0.5
				c0-0.2,0.1-0.3,0.2-0.5s0.3-0.2,0.5-0.2s0.4,0.1,0.5,0.2C874.8,1789.6,874.9,1789.7,874.9,1789.9z M874.9,1793.3
				c0,0.2-0.1,0.4-0.2,0.5s-0.3,0.2-0.5,0.2c-0.2,0-0.4-0.1-0.5-0.2s-0.2-0.3-0.2-0.5c0-0.2,0.1-0.3,0.2-0.5s0.3-0.2,0.5-0.2
				s0.4,0.1,0.5,0.2C874.8,1793,874.9,1793.2,874.9,1793.3z"/>
			<path class="st14" d="M876.2,1793.9v-0.9c0.3-0.2,0.6-0.5,0.9-0.8s0.7-0.7,0.9-1c0.5-0.6,0.8-1.1,0.8-1.5c0-0.3-0.1-0.5-0.2-0.6
				c-0.2-0.1-0.4-0.2-0.6-0.2c-0.2,0-0.5,0.1-0.7,0.2c-0.2,0.1-0.5,0.3-0.7,0.5c-0.3-0.3-0.4-0.6-0.4-0.7c0-0.1,0.1-0.2,0.2-0.4
				c0.5-0.4,1.1-0.6,1.8-0.6c0.6,0,1.1,0.2,1.4,0.5c0.3,0.3,0.5,0.7,0.5,1.3c0,0.7-0.4,1.5-1.3,2.4c-0.3,0.4-0.7,0.7-0.9,0.9h1.7
				c0.2,0,0.4,0.1,0.5,0.2c0.1,0.1,0.2,0.3,0.2,0.5c0,0.1,0,0.1,0,0.2c0,0,0,0.1,0,0.2H876.2z"/>
			<path class="st14" d="M885.7,1792.2c0,0.6-0.2,1.1-0.6,1.4c-0.4,0.3-0.9,0.5-1.6,0.5c-0.7,0-1.2-0.2-1.6-0.5s-0.5-0.7-0.5-1.3
				c0-0.3,0.1-0.7,0.3-0.9c0.2-0.3,0.4-0.4,0.8-0.5c-0.3-0.1-0.5-0.3-0.6-0.5s-0.2-0.5-0.2-0.8c0-0.3,0.1-0.6,0.3-0.9
				s0.4-0.4,0.7-0.6s0.6-0.2,1-0.2c0.6,0,1.1,0.1,1.4,0.4c0.4,0.3,0.5,0.7,0.5,1.2c0,0.3-0.1,0.6-0.2,0.8s-0.3,0.4-0.6,0.6
				c0.3,0.1,0.6,0.3,0.8,0.5C885.6,1791.5,885.7,1791.8,885.7,1792.2z M884.5,1792.2c0-0.3-0.1-0.5-0.2-0.7s-0.4-0.2-0.7-0.2
				c-0.3,0-0.5,0.1-0.7,0.2s-0.2,0.4-0.2,0.7c0,0.3,0.1,0.5,0.2,0.7s0.4,0.2,0.7,0.2s0.5-0.1,0.7-0.2
				C884.4,1792.7,884.5,1792.5,884.5,1792.2z M884.3,1789.5c0-0.2-0.1-0.4-0.2-0.6c-0.1-0.1-0.3-0.2-0.6-0.2c-0.2,0-0.4,0.1-0.6,0.2
				c-0.1,0.1-0.2,0.3-0.2,0.6c0,0.3,0.1,0.5,0.2,0.6c0.1,0.2,0.3,0.2,0.6,0.2c0.2,0,0.4-0.1,0.6-0.2S884.3,1789.7,884.3,1789.5z"/>
		</g>
		<g class="st13">
			<path class="st14" d="M356.4,1793.9h-1.3l2.3-4.9h-2.7l0-0.2c0,0,0-0.1,0-0.2s0-0.1,0-0.2c0-0.2,0.1-0.3,0.2-0.5
				c0.1-0.1,0.3-0.2,0.5-0.2h3c0.2,0,0.3,0,0.4,0.1c0.1,0.1,0.1,0.2,0.1,0.3v0.4L356.4,1793.9z"/>
			<path class="st14" d="M361.4,1789.9c0,0.2-0.1,0.4-0.2,0.5c-0.1,0.1-0.3,0.2-0.5,0.2c-0.2,0-0.4-0.1-0.5-0.2s-0.2-0.3-0.2-0.5
				c0-0.2,0.1-0.3,0.2-0.5s0.3-0.2,0.5-0.2c0.2,0,0.4,0.1,0.5,0.2C361.4,1789.6,361.4,1789.7,361.4,1789.9z M361.4,1793.3
				c0,0.2-0.1,0.4-0.2,0.5c-0.1,0.1-0.3,0.2-0.5,0.2c-0.2,0-0.4-0.1-0.5-0.2s-0.2-0.3-0.2-0.5c0-0.2,0.1-0.3,0.2-0.5
				s0.3-0.2,0.5-0.2c0.2,0,0.4,0.1,0.5,0.2C361.4,1793,361.4,1793.2,361.4,1793.3z"/>
			<path class="st14" d="M364.2,1788.9l-0.1,1.2c0.3-0.1,0.5-0.1,0.7-0.1c0.6,0,1.1,0.2,1.5,0.5c0.3,0.3,0.5,0.8,0.5,1.4
				c0,0.4-0.1,0.8-0.3,1.1c-0.2,0.3-0.4,0.6-0.8,0.7c-0.3,0.2-0.7,0.3-1.2,0.3c-0.3,0-0.5,0-0.7-0.1c-0.2,0-0.4-0.1-0.6-0.2
				c-0.2-0.1-0.3-0.1-0.4-0.2c-0.2-0.1-0.2-0.2-0.2-0.4c0-0.1,0-0.2,0.1-0.3c0.1-0.1,0.2-0.3,0.3-0.5c0.2,0.2,0.4,0.3,0.7,0.5
				s0.5,0.2,0.8,0.2c0.3,0,0.6-0.1,0.7-0.3c0.2-0.2,0.3-0.4,0.3-0.8c0-0.3-0.1-0.6-0.3-0.8c-0.2-0.2-0.5-0.3-0.8-0.3
				c-0.4,0-0.7,0.1-1,0.2l-0.4-0.2l0.3-3h3.2c0,0.1,0,0.2,0,0.3c0,0.2-0.1,0.4-0.2,0.5c-0.1,0.1-0.3,0.2-0.6,0.2H364.2z"/>
			<path class="st14" d="M368,1790c0-0.5,0.1-0.9,0.3-1.2c0.2-0.3,0.4-0.6,0.7-0.8c0.3-0.2,0.7-0.3,1.1-0.3c0.7,0,1.2,0.2,1.6,0.7
				s0.6,1.1,0.6,1.9c0,0.7-0.1,1.4-0.4,1.9c-0.3,0.5-0.6,0.9-1.1,1.2c-0.5,0.3-1,0.4-1.5,0.4c-0.5,0-0.7-0.2-0.7-0.5
				c0-0.2,0-0.3,0-0.5c0.1,0,0.3,0,0.4,0c0.3,0,0.6-0.1,0.9-0.2c0.3-0.1,0.5-0.3,0.6-0.5c0.2-0.2,0.3-0.5,0.3-0.7
				c-0.1,0.1-0.3,0.2-0.5,0.3c-0.2,0.1-0.4,0.1-0.6,0.1c-0.4,0-0.7-0.1-0.9-0.3s-0.5-0.4-0.6-0.7C368.1,1790.8,368,1790.4,368,1790z
				 M369.3,1790c0,0.8,0.3,1.1,0.9,1.1c0.2,0,0.3,0,0.5-0.1c0.1-0.1,0.3-0.1,0.4-0.2c0-0.1,0-0.3,0-0.5c0-0.5-0.1-0.8-0.2-1.1
				c-0.2-0.3-0.4-0.4-0.7-0.4c-0.2,0-0.4,0.1-0.6,0.3C369.4,1789.3,369.3,1789.6,369.3,1790z"/>
			<path class="st14" d="M374.9,1789.9c0,0.2-0.1,0.4-0.2,0.5c-0.1,0.1-0.3,0.2-0.5,0.2c-0.2,0-0.4-0.1-0.5-0.2s-0.2-0.3-0.2-0.5
				c0-0.2,0.1-0.3,0.2-0.5s0.3-0.2,0.5-0.2c0.2,0,0.4,0.1,0.5,0.2C374.8,1789.6,374.9,1789.7,374.9,1789.9z M374.9,1793.3
				c0,0.2-0.1,0.4-0.2,0.5c-0.1,0.1-0.3,0.2-0.5,0.2c-0.2,0-0.4-0.1-0.5-0.2s-0.2-0.3-0.2-0.5c0-0.2,0.1-0.3,0.2-0.5
				s0.3-0.2,0.5-0.2c0.2,0,0.4,0.1,0.5,0.2C374.8,1793,374.9,1793.2,374.9,1793.3z"/>
			<path class="st14" d="M380.4,1790.9c0,1-0.2,1.8-0.6,2.3c-0.4,0.5-0.9,0.8-1.7,0.8c-0.8,0-1.3-0.3-1.7-0.8
				c-0.4-0.5-0.6-1.3-0.6-2.3c0-1,0.2-1.8,0.6-2.3c0.4-0.5,1-0.8,1.7-0.8c0.7,0,1.3,0.3,1.6,0.8
				C380.3,1789.1,380.4,1789.9,380.4,1790.9z M379.2,1790.9c0-0.7-0.1-1.3-0.2-1.6c-0.2-0.3-0.4-0.5-0.8-0.5c-0.3,0-0.6,0.2-0.8,0.5
				c-0.2,0.3-0.2,0.9-0.2,1.6c0,0.7,0.1,1.2,0.2,1.6c0.2,0.3,0.4,0.5,0.8,0.5c0.3,0,0.6-0.2,0.8-0.5
				C379.2,1792.2,379.2,1791.7,379.2,1790.9z"/>
			<path class="st14" d="M385.7,1791.8c0,0.5-0.1,0.9-0.3,1.2c-0.2,0.3-0.4,0.6-0.7,0.8s-0.7,0.3-1.1,0.3c-0.7,0-1.2-0.2-1.6-0.7
				c-0.4-0.5-0.5-1.1-0.5-1.9c0-0.7,0.1-1.4,0.4-1.9c0.3-0.5,0.6-0.9,1.1-1.2c0.5-0.3,1-0.4,1.5-0.4c0.3,0,0.4,0,0.5,0.1
				c0.1,0.1,0.2,0.2,0.2,0.4c0,0.2,0,0.3,0,0.4c-0.1,0-0.3,0-0.5,0c-0.4,0-0.8,0.1-1.1,0.4s-0.6,0.6-0.7,1c0.1-0.1,0.3-0.2,0.5-0.3
				c0.2-0.1,0.4-0.1,0.7-0.1c0.5,0,0.9,0.2,1.2,0.5C385.6,1790.7,385.7,1791.2,385.7,1791.8z M384.5,1791.9c0-0.4-0.1-0.7-0.2-0.9
				c-0.1-0.2-0.3-0.3-0.6-0.3c-0.1,0-0.3,0-0.5,0.1c-0.2,0.1-0.3,0.1-0.4,0.2c0,0.1,0,0.3,0,0.5c0,1,0.3,1.5,0.9,1.5
				c0.2,0,0.4-0.1,0.6-0.3S384.5,1792.3,384.5,1791.9z"/>
		</g>
		<g class="st13">
			<path class="st14" d="M1160.6,1793.9v-4.5l-1.2,0.6c-0.2-0.3-0.4-0.6-0.4-0.7c0-0.2,0.1-0.3,0.3-0.4l1.3-0.7
				c0.1-0.1,0.2-0.1,0.3-0.2c0.1,0,0.2-0.1,0.3-0.1c0.2,0,0.4,0,0.5,0.1v5.8H1160.6z"/>
			<path class="st14" d="M1165.4,1789.9c0,0.2-0.1,0.4-0.2,0.5s-0.3,0.2-0.5,0.2c-0.2,0-0.4-0.1-0.5-0.2c-0.1-0.1-0.2-0.3-0.2-0.5
				c0-0.2,0.1-0.3,0.2-0.5c0.1-0.1,0.3-0.2,0.5-0.2s0.4,0.1,0.5,0.2S1165.4,1789.7,1165.4,1789.9z M1165.4,1793.3
				c0,0.2-0.1,0.4-0.2,0.5s-0.3,0.2-0.5,0.2c-0.2,0-0.4-0.1-0.5-0.2c-0.1-0.1-0.2-0.3-0.2-0.5c0-0.2,0.1-0.3,0.2-0.5
				c0.1-0.1,0.3-0.2,0.5-0.2s0.4,0.1,0.5,0.2S1165.4,1793.2,1165.4,1793.3z"/>
			<path class="st14" d="M1171,1790.9c0,1-0.2,1.8-0.6,2.3c-0.4,0.5-0.9,0.8-1.7,0.8c-0.8,0-1.3-0.3-1.7-0.8
				c-0.4-0.5-0.6-1.3-0.6-2.3c0-1,0.2-1.8,0.6-2.3s1-0.8,1.7-0.8s1.3,0.3,1.6,0.8C1170.8,1789.1,1171,1789.9,1171,1790.9z
				 M1169.8,1790.9c0-0.7-0.1-1.3-0.2-1.6c-0.2-0.3-0.4-0.5-0.8-0.5c-0.3,0-0.6,0.2-0.8,0.5c-0.2,0.3-0.2,0.9-0.2,1.6
				c0,0.7,0.1,1.2,0.2,1.6c0.2,0.3,0.4,0.5,0.8,0.5c0.3,0,0.6-0.2,0.8-0.5C1169.7,1792.2,1169.8,1791.7,1169.8,1790.9z"/>
			<path class="st14" d="M1172.2,1793.9v-0.9c0.3-0.2,0.6-0.5,0.9-0.8s0.7-0.7,0.9-1c0.5-0.6,0.8-1.1,0.8-1.5c0-0.3-0.1-0.5-0.2-0.6
				c-0.2-0.1-0.4-0.2-0.6-0.2c-0.2,0-0.5,0.1-0.7,0.2c-0.2,0.1-0.5,0.3-0.7,0.5c-0.3-0.3-0.4-0.6-0.4-0.7c0-0.1,0.1-0.2,0.2-0.4
				c0.5-0.4,1.1-0.6,1.8-0.6c0.6,0,1.1,0.2,1.4,0.5c0.3,0.3,0.5,0.7,0.5,1.3c0,0.7-0.4,1.5-1.3,2.4c-0.3,0.4-0.7,0.7-0.9,0.9h1.7
				c0.2,0,0.4,0.1,0.5,0.2c0.1,0.1,0.2,0.3,0.2,0.5c0,0.1,0,0.1,0,0.2c0,0,0,0.1,0,0.2H1172.2z"/>
			<path class="st14" d="M1178.9,1789.9c0,0.2-0.1,0.4-0.2,0.5c-0.1,0.1-0.3,0.2-0.5,0.2c-0.2,0-0.4-0.1-0.5-0.2s-0.2-0.3-0.2-0.5
				c0-0.2,0.1-0.3,0.2-0.5s0.3-0.2,0.5-0.2c0.2,0,0.4,0.1,0.5,0.2C1178.8,1789.6,1178.9,1789.7,1178.9,1789.9z M1178.9,1793.3
				c0,0.2-0.1,0.4-0.2,0.5c-0.1,0.1-0.3,0.2-0.5,0.2c-0.2,0-0.4-0.1-0.5-0.2s-0.2-0.3-0.2-0.5c0-0.2,0.1-0.3,0.2-0.5
				s0.3-0.2,0.5-0.2c0.2,0,0.4,0.1,0.5,0.2C1178.8,1793,1178.9,1793.2,1178.9,1793.3z"/>
			<path class="st14" d="M1184.4,1790.9c0,1-0.2,1.8-0.6,2.3c-0.4,0.5-0.9,0.8-1.7,0.8c-0.8,0-1.3-0.3-1.7-0.8s-0.6-1.3-0.6-2.3
				c0-1,0.2-1.8,0.6-2.3c0.4-0.5,1-0.8,1.7-0.8s1.3,0.3,1.6,0.8C1184.3,1789.1,1184.4,1789.9,1184.4,1790.9z M1183.2,1790.9
				c0-0.7-0.1-1.3-0.2-1.6c-0.2-0.3-0.4-0.5-0.8-0.5c-0.3,0-0.6,0.2-0.8,0.5c-0.2,0.3-0.2,0.9-0.2,1.6c0,0.7,0.1,1.2,0.2,1.6
				c0.2,0.3,0.4,0.5,0.8,0.5c0.3,0,0.6-0.2,0.8-0.5C1183.2,1792.2,1183.2,1791.7,1183.2,1790.9z"/>
			<path class="st14" d="M1185.5,1792.5v-0.8l2.3-3.2c0.1-0.2,0.3-0.3,0.4-0.4s0.3-0.1,0.5-0.1c0.1,0,0.2,0,0.3,0
				c0.1,0,0.2,0.1,0.2,0.1v3.5h0.3c0.3,0,0.5,0.1,0.5,0.4c0,0.1,0,0.1,0,0.2c0,0.1,0,0.1,0,0.1l0,0.2h-0.7v1.4h-1.2v-1.4H1185.5z
				 M1187.9,1791.5v-2l-1.5,2H1187.9z"/>
		</g>
		<g class="st13">
			<path class="st14" d="M755.4,1793.9h-1.3l2.3-4.9h-2.7l0-0.2c0,0,0-0.1,0-0.2s0-0.1,0-0.2c0-0.2,0.1-0.3,0.2-0.5
				c0.1-0.1,0.3-0.2,0.5-0.2h3c0.2,0,0.3,0,0.4,0.1c0.1,0.1,0.1,0.2,0.1,0.3v0.4L755.4,1793.9z"/>
			<path class="st14" d="M760.4,1789.9c0,0.2-0.1,0.4-0.2,0.5c-0.1,0.1-0.3,0.2-0.5,0.2c-0.2,0-0.4-0.1-0.5-0.2s-0.2-0.3-0.2-0.5
				c0-0.2,0.1-0.3,0.2-0.5s0.3-0.2,0.5-0.2c0.2,0,0.4,0.1,0.5,0.2S760.4,1789.7,760.4,1789.9z M760.4,1793.3c0,0.2-0.1,0.4-0.2,0.5
				c-0.1,0.1-0.3,0.2-0.5,0.2c-0.2,0-0.4-0.1-0.5-0.2s-0.2-0.3-0.2-0.5c0-0.2,0.1-0.3,0.2-0.5s0.3-0.2,0.5-0.2
				c0.2,0,0.4,0.1,0.5,0.2S760.4,1793.2,760.4,1793.3z"/>
			<path class="st14" d="M761.8,1793.9v-0.9c0.3-0.2,0.6-0.5,0.9-0.8c0.3-0.3,0.7-0.7,0.9-1c0.5-0.6,0.8-1.1,0.8-1.5
				c0-0.3-0.1-0.5-0.2-0.6c-0.1-0.1-0.4-0.2-0.6-0.2c-0.2,0-0.5,0.1-0.7,0.2c-0.2,0.1-0.5,0.3-0.7,0.5c-0.3-0.3-0.4-0.6-0.4-0.7
				c0-0.1,0.1-0.2,0.2-0.4c0.5-0.4,1.1-0.6,1.8-0.6c0.6,0,1.1,0.2,1.4,0.5c0.3,0.3,0.5,0.7,0.5,1.3c0,0.7-0.4,1.5-1.3,2.4
				c-0.3,0.4-0.7,0.7-0.9,0.9h1.7c0.2,0,0.4,0.1,0.5,0.2c0.1,0.1,0.2,0.3,0.2,0.5c0,0.1,0,0.1,0,0.2c0,0,0,0.1,0,0.2H761.8z"/>
			<path class="st14" d="M771.3,1791.8c0,0.5-0.1,0.9-0.3,1.2s-0.4,0.6-0.7,0.8c-0.3,0.2-0.7,0.3-1.1,0.3c-0.7,0-1.2-0.2-1.6-0.7
				s-0.5-1.1-0.5-1.9c0-0.7,0.1-1.4,0.4-1.9c0.3-0.5,0.6-0.9,1.1-1.2c0.5-0.3,1-0.4,1.5-0.4c0.3,0,0.4,0,0.5,0.1
				c0.1,0.1,0.2,0.2,0.2,0.4c0,0.2,0,0.3,0,0.4c-0.2,0-0.3,0-0.5,0c-0.4,0-0.8,0.1-1.1,0.4s-0.6,0.6-0.7,1c0.1-0.1,0.3-0.2,0.5-0.3
				s0.4-0.1,0.7-0.1c0.5,0,0.9,0.2,1.2,0.5C771.1,1790.7,771.3,1791.2,771.3,1791.8z M770,1791.9c0-0.4-0.1-0.7-0.2-0.9
				c-0.1-0.2-0.3-0.3-0.6-0.3c-0.1,0-0.3,0-0.5,0.1c-0.2,0.1-0.3,0.1-0.4,0.2c0,0.1,0,0.3,0,0.5c0,1,0.3,1.5,0.9,1.5
				c0.2,0,0.4-0.1,0.6-0.3C770,1792.5,770,1792.3,770,1791.9z"/>
			<path class="st14" d="M773.9,1789.9c0,0.2-0.1,0.4-0.2,0.5s-0.3,0.2-0.5,0.2c-0.2,0-0.4-0.1-0.5-0.2s-0.2-0.3-0.2-0.5
				c0-0.2,0.1-0.3,0.2-0.5s0.3-0.2,0.5-0.2s0.4,0.1,0.5,0.2C773.8,1789.6,773.9,1789.7,773.9,1789.9z M773.9,1793.3
				c0,0.2-0.1,0.4-0.2,0.5s-0.3,0.2-0.5,0.2c-0.2,0-0.4-0.1-0.5-0.2s-0.2-0.3-0.2-0.5c0-0.2,0.1-0.3,0.2-0.5s0.3-0.2,0.5-0.2
				s0.4,0.1,0.5,0.2C773.8,1793,773.9,1793.2,773.9,1793.3z"/>
			<path class="st14" d="M776.7,1788.9l-0.1,1.2c0.3-0.1,0.5-0.1,0.7-0.1c0.6,0,1.1,0.2,1.5,0.5s0.5,0.8,0.5,1.4
				c0,0.4-0.1,0.8-0.3,1.1c-0.2,0.3-0.4,0.6-0.8,0.7s-0.7,0.3-1.2,0.3c-0.3,0-0.5,0-0.7-0.1c-0.2,0-0.4-0.1-0.6-0.2
				c-0.2-0.1-0.3-0.1-0.4-0.2c-0.2-0.1-0.2-0.2-0.2-0.4c0-0.1,0-0.2,0.1-0.3c0.1-0.1,0.2-0.3,0.3-0.5c0.2,0.2,0.4,0.3,0.7,0.5
				c0.3,0.1,0.5,0.2,0.8,0.2c0.3,0,0.6-0.1,0.7-0.3c0.2-0.2,0.3-0.4,0.3-0.8c0-0.3-0.1-0.6-0.3-0.8c-0.2-0.2-0.5-0.3-0.8-0.3
				c-0.4,0-0.7,0.1-1,0.2l-0.4-0.2l0.3-3h3.2c0,0.1,0,0.2,0,0.3c0,0.2-0.1,0.4-0.2,0.5c-0.1,0.1-0.3,0.2-0.6,0.2H776.7z"/>
			<path class="st14" d="M780.6,1793.9v-0.9c0.3-0.2,0.6-0.5,0.9-0.8s0.7-0.7,0.9-1c0.5-0.6,0.8-1.1,0.8-1.5c0-0.3-0.1-0.5-0.2-0.6
				c-0.2-0.1-0.4-0.2-0.6-0.2c-0.2,0-0.5,0.1-0.7,0.2c-0.2,0.1-0.5,0.3-0.7,0.5c-0.3-0.3-0.4-0.6-0.4-0.7c0-0.1,0.1-0.2,0.2-0.4
				c0.5-0.4,1.1-0.6,1.8-0.6c0.6,0,1.1,0.2,1.4,0.5c0.3,0.3,0.5,0.7,0.5,1.3c0,0.7-0.4,1.5-1.3,2.4c-0.3,0.4-0.7,0.7-0.9,0.9h1.7
				c0.2,0,0.4,0.1,0.5,0.2c0.1,0.1,0.2,0.3,0.2,0.5c0,0.1,0,0.1,0,0.2c0,0,0,0.1,0,0.2H780.6z"/>
		</g>
		<g class="st13">
			<path class="st14" d="M257.6,1792.2c0,0.6-0.2,1-0.6,1.4s-0.9,0.5-1.6,0.5c-0.7,0-1.2-0.1-1.7-0.4c-0.1,0-0.1-0.1-0.2-0.2
				c0-0.1-0.1-0.1-0.1-0.2c0-0.2,0.1-0.4,0.4-0.8c0.2,0.2,0.4,0.4,0.7,0.5c0.3,0.1,0.5,0.2,0.8,0.2c0.3,0,0.6-0.1,0.7-0.3
				c0.2-0.2,0.3-0.4,0.3-0.7c0-0.3-0.1-0.5-0.3-0.7c-0.2-0.2-0.4-0.2-0.8-0.2h-0.5v-0.9h0.5c0.2,0,0.3,0,0.5-0.1
				c0.1-0.1,0.2-0.2,0.3-0.3c0.1-0.1,0.1-0.3,0.1-0.4c0-0.5-0.3-0.7-0.9-0.7c-0.2,0-0.4,0-0.7,0.1s-0.5,0.2-0.7,0.5
				c-0.1-0.1-0.2-0.2-0.3-0.4c-0.1-0.1-0.1-0.2-0.1-0.3c0-0.1,0-0.2,0.1-0.2s0.1-0.1,0.2-0.2c0.2-0.2,0.5-0.3,0.8-0.4s0.6-0.1,1-0.1
				c0.6,0,1.1,0.1,1.4,0.4c0.3,0.3,0.5,0.6,0.5,1.1c0,0.3-0.1,0.6-0.2,0.8c-0.2,0.2-0.4,0.4-0.7,0.6c0.4,0.1,0.6,0.3,0.8,0.5
				C257.5,1791.5,257.6,1791.8,257.6,1792.2z"/>
			<path class="st14" d="M260.4,1789.9c0,0.2-0.1,0.4-0.2,0.5c-0.1,0.1-0.3,0.2-0.5,0.2c-0.2,0-0.4-0.1-0.5-0.2s-0.2-0.3-0.2-0.5
				c0-0.2,0.1-0.3,0.2-0.5s0.3-0.2,0.5-0.2c0.2,0,0.4,0.1,0.5,0.2C260.4,1789.6,260.4,1789.7,260.4,1789.9z M260.4,1793.3
				c0,0.2-0.1,0.4-0.2,0.5c-0.1,0.1-0.3,0.2-0.5,0.2c-0.2,0-0.4-0.1-0.5-0.2s-0.2-0.3-0.2-0.5c0-0.2,0.1-0.3,0.2-0.5
				s0.3-0.2,0.5-0.2c0.2,0,0.4,0.1,0.5,0.2C260.4,1793,260.4,1793.2,260.4,1793.3z"/>
			<path class="st14" d="M263.2,1788.9l-0.1,1.2c0.3-0.1,0.5-0.1,0.7-0.1c0.6,0,1.1,0.2,1.5,0.5c0.3,0.3,0.5,0.8,0.5,1.4
				c0,0.4-0.1,0.8-0.3,1.1c-0.2,0.3-0.4,0.6-0.8,0.7c-0.3,0.2-0.7,0.3-1.2,0.3c-0.3,0-0.5,0-0.7-0.1c-0.2,0-0.4-0.1-0.6-0.2
				c-0.2-0.1-0.3-0.1-0.4-0.2c-0.2-0.1-0.2-0.2-0.2-0.4c0-0.1,0-0.2,0.1-0.3c0.1-0.1,0.2-0.3,0.3-0.5c0.2,0.2,0.4,0.3,0.7,0.5
				s0.5,0.2,0.8,0.2c0.3,0,0.6-0.1,0.7-0.3c0.2-0.2,0.3-0.4,0.3-0.8c0-0.3-0.1-0.6-0.3-0.8c-0.2-0.2-0.5-0.3-0.8-0.3
				c-0.4,0-0.7,0.1-1,0.2l-0.4-0.2l0.3-3h3.2c0,0.1,0,0.2,0,0.3c0,0.2-0.1,0.4-0.2,0.5c-0.1,0.1-0.3,0.2-0.6,0.2H263.2z"/>
			<path class="st14" d="M271.3,1791.8c0,0.5-0.1,0.9-0.3,1.2c-0.2,0.3-0.4,0.6-0.7,0.8s-0.7,0.3-1.1,0.3c-0.7,0-1.2-0.2-1.6-0.7
				c-0.4-0.5-0.5-1.1-0.5-1.9c0-0.7,0.1-1.4,0.4-1.9c0.3-0.5,0.6-0.9,1.1-1.2c0.5-0.3,1-0.4,1.5-0.4c0.3,0,0.4,0,0.5,0.1
				c0.1,0.1,0.2,0.2,0.2,0.4c0,0.2,0,0.3,0,0.4c-0.1,0-0.3,0-0.5,0c-0.4,0-0.8,0.1-1.1,0.4s-0.6,0.6-0.7,1c0.1-0.1,0.3-0.2,0.5-0.3
				c0.2-0.1,0.4-0.1,0.7-0.1c0.5,0,0.9,0.2,1.2,0.5C271.1,1790.7,271.3,1791.2,271.3,1791.8z M270,1791.9c0-0.4-0.1-0.7-0.2-0.9
				c-0.1-0.2-0.3-0.3-0.6-0.3c-0.1,0-0.3,0-0.5,0.1c-0.2,0.1-0.3,0.1-0.4,0.2c0,0.1,0,0.3,0,0.5c0,1,0.3,1.5,0.9,1.5
				c0.2,0,0.4-0.1,0.6-0.3S270,1792.3,270,1791.9z"/>
			<path class="st14" d="M273.9,1789.9c0,0.2-0.1,0.4-0.2,0.5c-0.1,0.1-0.3,0.2-0.5,0.2c-0.2,0-0.4-0.1-0.5-0.2s-0.2-0.3-0.2-0.5
				c0-0.2,0.1-0.3,0.2-0.5s0.3-0.2,0.5-0.2c0.2,0,0.4,0.1,0.5,0.2C273.8,1789.6,273.9,1789.7,273.9,1789.9z M273.9,1793.3
				c0,0.2-0.1,0.4-0.2,0.5c-0.1,0.1-0.3,0.2-0.5,0.2c-0.2,0-0.4-0.1-0.5-0.2s-0.2-0.3-0.2-0.5c0-0.2,0.1-0.3,0.2-0.5
				s0.3-0.2,0.5-0.2c0.2,0,0.4,0.1,0.5,0.2C273.8,1793,273.9,1793.2,273.9,1793.3z"/>
			<path class="st14" d="M277.1,1793.9v-4.5l-1.2,0.6c-0.2-0.3-0.4-0.6-0.4-0.7c0-0.2,0.1-0.3,0.3-0.4l1.3-0.7
				c0.1-0.1,0.2-0.1,0.3-0.2c0.1,0,0.2-0.1,0.3-0.1c0.2,0,0.4,0,0.5,0.1v5.8H277.1z"/>
			<path class="st14" d="M280.6,1793.9v-0.9c0.3-0.2,0.6-0.5,0.9-0.8c0.3-0.3,0.7-0.7,0.9-1c0.5-0.6,0.8-1.1,0.8-1.5
				c0-0.3-0.1-0.5-0.2-0.6c-0.1-0.1-0.4-0.2-0.6-0.2c-0.2,0-0.5,0.1-0.7,0.2c-0.2,0.1-0.5,0.3-0.7,0.5c-0.3-0.3-0.4-0.6-0.4-0.7
				c0-0.1,0.1-0.2,0.2-0.4c0.5-0.4,1.1-0.6,1.8-0.6c0.6,0,1.1,0.2,1.4,0.5c0.3,0.3,0.5,0.7,0.5,1.3c0,0.7-0.4,1.5-1.3,2.4
				c-0.3,0.4-0.7,0.7-0.9,0.9h1.7c0.2,0,0.4,0.1,0.5,0.2c0.1,0.1,0.2,0.3,0.2,0.5c0,0.1,0,0.1,0,0.2c0,0,0,0.1,0,0.2H280.6z"/>
		</g>
		<g class="st13">
			<path class="st14" d="M955.2,1788.9l-0.1,1.2c0.3-0.1,0.5-0.1,0.7-0.1c0.6,0,1.1,0.2,1.5,0.5c0.3,0.3,0.5,0.8,0.5,1.4
				c0,0.4-0.1,0.8-0.3,1.1c-0.2,0.3-0.4,0.6-0.8,0.7c-0.3,0.2-0.7,0.3-1.2,0.3c-0.3,0-0.5,0-0.7-0.1s-0.4-0.1-0.6-0.2
				c-0.2-0.1-0.3-0.1-0.4-0.2c-0.2-0.1-0.2-0.2-0.2-0.4c0-0.1,0-0.2,0.1-0.3c0.1-0.1,0.2-0.3,0.3-0.5c0.2,0.2,0.4,0.3,0.7,0.5
				c0.3,0.1,0.5,0.2,0.8,0.2c0.3,0,0.6-0.1,0.7-0.3c0.2-0.2,0.3-0.4,0.3-0.8c0-0.3-0.1-0.6-0.3-0.8c-0.2-0.2-0.5-0.3-0.8-0.3
				c-0.4,0-0.7,0.1-1,0.2l-0.4-0.2l0.3-3h3.2c0,0.1,0,0.2,0,0.3c0,0.2-0.1,0.4-0.2,0.5c-0.1,0.1-0.3,0.2-0.6,0.2H955.2z"/>
			<path class="st14" d="M960.4,1789.9c0,0.2-0.1,0.4-0.2,0.5c-0.1,0.1-0.3,0.2-0.5,0.2c-0.2,0-0.4-0.1-0.5-0.2s-0.2-0.3-0.2-0.5
				c0-0.2,0.1-0.3,0.2-0.5s0.3-0.2,0.5-0.2c0.2,0,0.4,0.1,0.5,0.2S960.4,1789.7,960.4,1789.9z M960.4,1793.3c0,0.2-0.1,0.4-0.2,0.5
				c-0.1,0.1-0.3,0.2-0.5,0.2c-0.2,0-0.4-0.1-0.5-0.2s-0.2-0.3-0.2-0.5c0-0.2,0.1-0.3,0.2-0.5s0.3-0.2,0.5-0.2
				c0.2,0,0.4,0.1,0.5,0.2S960.4,1793.2,960.4,1793.3z"/>
			<path class="st14" d="M961.8,1793.9v-0.9c0.3-0.2,0.6-0.5,0.9-0.8c0.3-0.3,0.7-0.7,0.9-1c0.5-0.6,0.8-1.1,0.8-1.5
				c0-0.3-0.1-0.5-0.2-0.6c-0.1-0.1-0.4-0.2-0.6-0.2c-0.2,0-0.5,0.1-0.7,0.2c-0.2,0.1-0.5,0.3-0.7,0.5c-0.3-0.3-0.4-0.6-0.4-0.7
				c0-0.1,0.1-0.2,0.2-0.4c0.5-0.4,1.1-0.6,1.8-0.6c0.6,0,1.1,0.2,1.4,0.5c0.3,0.3,0.5,0.7,0.5,1.3c0,0.7-0.4,1.5-1.3,2.4
				c-0.3,0.4-0.7,0.7-0.9,0.9h1.7c0.2,0,0.4,0.1,0.5,0.2c0.1,0.1,0.2,0.3,0.2,0.5c0,0.1,0,0.1,0,0.2c0,0,0,0.1,0,0.2H961.8z"/>
			<path class="st14" d="M967.2,1793.9v-0.9c0.3-0.2,0.6-0.5,0.9-0.8s0.7-0.7,0.9-1c0.5-0.6,0.8-1.1,0.8-1.5c0-0.3-0.1-0.5-0.2-0.6
				c-0.2-0.1-0.4-0.2-0.6-0.2c-0.2,0-0.5,0.1-0.7,0.2c-0.2,0.1-0.5,0.3-0.7,0.5c-0.3-0.3-0.4-0.6-0.4-0.7c0-0.1,0.1-0.2,0.2-0.4
				c0.5-0.4,1.1-0.6,1.8-0.6c0.6,0,1.1,0.2,1.4,0.5c0.3,0.3,0.5,0.7,0.5,1.3c0,0.7-0.4,1.5-1.3,2.4c-0.3,0.4-0.7,0.7-0.9,0.9h1.7
				c0.2,0,0.4,0.1,0.5,0.2c0.1,0.1,0.2,0.3,0.2,0.5c0,0.1,0,0.1,0,0.2c0,0,0,0.1,0,0.2H967.2z"/>
			<path class="st14" d="M973.9,1789.9c0,0.2-0.1,0.4-0.2,0.5s-0.3,0.2-0.5,0.2c-0.2,0-0.4-0.1-0.5-0.2s-0.2-0.3-0.2-0.5
				c0-0.2,0.1-0.3,0.2-0.5s0.3-0.2,0.5-0.2s0.4,0.1,0.5,0.2C973.8,1789.6,973.9,1789.7,973.9,1789.9z M973.9,1793.3
				c0,0.2-0.1,0.4-0.2,0.5s-0.3,0.2-0.5,0.2c-0.2,0-0.4-0.1-0.5-0.2s-0.2-0.3-0.2-0.5c0-0.2,0.1-0.3,0.2-0.5s0.3-0.2,0.5-0.2
				s0.4,0.1,0.5,0.2C973.8,1793,973.9,1793.2,973.9,1793.3z"/>
			<path class="st14" d="M977.1,1793.9v-4.5l-1.2,0.6c-0.2-0.3-0.4-0.6-0.4-0.7c0-0.2,0.1-0.3,0.3-0.4l1.3-0.7
				c0.1-0.1,0.2-0.1,0.3-0.2c0.1,0,0.2-0.1,0.3-0.1c0.2,0,0.4,0,0.5,0.1v5.8H977.1z"/>
			<path class="st14" d="M984.8,1790.9c0,1-0.2,1.8-0.6,2.3c-0.4,0.5-0.9,0.8-1.7,0.8c-0.8,0-1.3-0.3-1.7-0.8s-0.6-1.3-0.6-2.3
				c0-1,0.2-1.8,0.6-2.3s1-0.8,1.7-0.8c0.7,0,1.3,0.3,1.6,0.8C984.7,1789.1,984.8,1789.9,984.8,1790.9z M983.6,1790.9
				c0-0.7-0.1-1.3-0.2-1.6c-0.2-0.3-0.4-0.5-0.8-0.5c-0.3,0-0.6,0.2-0.8,0.5c-0.2,0.3-0.2,0.9-0.2,1.6c0,0.7,0.1,1.2,0.2,1.6
				c0.2,0.3,0.4,0.5,0.8,0.5c0.3,0,0.6-0.2,0.8-0.5C983.5,1792.2,983.6,1791.7,983.6,1790.9z"/>
		</g>
		<g class="st13">
			<path class="st14" d="M457.6,1792.2c0,0.6-0.2,1-0.6,1.4s-0.9,0.5-1.6,0.5c-0.7,0-1.2-0.1-1.7-0.4c-0.1,0-0.1-0.1-0.2-0.2
				c0-0.1-0.1-0.1-0.1-0.2c0-0.2,0.1-0.4,0.4-0.8c0.2,0.2,0.4,0.4,0.7,0.5c0.3,0.1,0.5,0.2,0.8,0.2c0.3,0,0.6-0.1,0.7-0.3
				c0.2-0.2,0.3-0.4,0.3-0.7c0-0.3-0.1-0.5-0.3-0.7c-0.2-0.2-0.4-0.2-0.8-0.2h-0.5v-0.9h0.5c0.2,0,0.3,0,0.5-0.1
				c0.1-0.1,0.2-0.2,0.3-0.3c0.1-0.1,0.1-0.3,0.1-0.4c0-0.5-0.3-0.7-0.9-0.7c-0.2,0-0.4,0-0.7,0.1s-0.5,0.2-0.7,0.5
				c-0.1-0.1-0.2-0.2-0.3-0.4c-0.1-0.1-0.1-0.2-0.1-0.3c0-0.1,0-0.2,0.1-0.2s0.1-0.1,0.2-0.2c0.2-0.2,0.5-0.3,0.8-0.4s0.6-0.1,1-0.1
				c0.6,0,1.1,0.1,1.4,0.4c0.3,0.3,0.5,0.6,0.5,1.1c0,0.3-0.1,0.6-0.2,0.8c-0.2,0.2-0.4,0.4-0.7,0.6c0.4,0.1,0.6,0.3,0.8,0.5
				C457.5,1791.5,457.6,1791.8,457.6,1792.2z"/>
			<path class="st14" d="M460.4,1789.9c0,0.2-0.1,0.4-0.2,0.5c-0.1,0.1-0.3,0.2-0.5,0.2c-0.2,0-0.4-0.1-0.5-0.2s-0.2-0.3-0.2-0.5
				c0-0.2,0.1-0.3,0.2-0.5s0.3-0.2,0.5-0.2c0.2,0,0.4,0.1,0.5,0.2C460.4,1789.6,460.4,1789.7,460.4,1789.9z M460.4,1793.3
				c0,0.2-0.1,0.4-0.2,0.5c-0.1,0.1-0.3,0.2-0.5,0.2c-0.2,0-0.4-0.1-0.5-0.2s-0.2-0.3-0.2-0.5c0-0.2,0.1-0.3,0.2-0.5
				s0.3-0.2,0.5-0.2c0.2,0,0.4,0.1,0.5,0.2C460.4,1793,460.4,1793.2,460.4,1793.3z"/>
			<path class="st14" d="M461.8,1793.9v-0.9c0.3-0.2,0.6-0.5,0.9-0.8c0.3-0.3,0.7-0.7,0.9-1c0.5-0.6,0.8-1.1,0.8-1.5
				c0-0.3-0.1-0.5-0.2-0.6c-0.1-0.1-0.4-0.2-0.6-0.2c-0.2,0-0.5,0.1-0.7,0.2c-0.2,0.1-0.5,0.3-0.7,0.5c-0.3-0.3-0.4-0.6-0.4-0.7
				c0-0.1,0.1-0.2,0.2-0.4c0.5-0.4,1.1-0.6,1.8-0.6c0.6,0,1.1,0.2,1.4,0.5c0.3,0.3,0.5,0.7,0.5,1.3c0,0.7-0.4,1.5-1.3,2.4
				c-0.3,0.4-0.7,0.7-0.9,0.9h1.7c0.2,0,0.4,0.1,0.5,0.2c0.1,0.1,0.2,0.3,0.2,0.5c0,0.1,0,0.1,0,0.2c0,0,0,0.1,0,0.2H461.8z"/>
			<path class="st14" d="M467.2,1793.9v-0.9c0.3-0.2,0.6-0.5,0.9-0.8c0.3-0.3,0.7-0.7,0.9-1c0.5-0.6,0.8-1.1,0.8-1.5
				c0-0.3-0.1-0.5-0.2-0.6c-0.1-0.1-0.4-0.2-0.6-0.2c-0.2,0-0.5,0.1-0.7,0.2c-0.2,0.1-0.5,0.3-0.7,0.5c-0.3-0.3-0.4-0.6-0.4-0.7
				c0-0.1,0.1-0.2,0.2-0.4c0.5-0.4,1.1-0.6,1.8-0.6c0.6,0,1.1,0.2,1.4,0.5c0.3,0.3,0.5,0.7,0.5,1.3c0,0.7-0.4,1.5-1.3,2.4
				c-0.3,0.4-0.7,0.7-0.9,0.9h1.7c0.2,0,0.4,0.1,0.5,0.2c0.1,0.1,0.2,0.3,0.2,0.5c0,0.1,0,0.1,0,0.2c0,0,0,0.1,0,0.2H467.2z"/>
			<path class="st14" d="M473.9,1789.9c0,0.2-0.1,0.4-0.2,0.5c-0.1,0.1-0.3,0.2-0.5,0.2c-0.2,0-0.4-0.1-0.5-0.2s-0.2-0.3-0.2-0.5
				c0-0.2,0.1-0.3,0.2-0.5s0.3-0.2,0.5-0.2c0.2,0,0.4,0.1,0.5,0.2C473.8,1789.6,473.9,1789.7,473.9,1789.9z M473.9,1793.3
				c0,0.2-0.1,0.4-0.2,0.5c-0.1,0.1-0.3,0.2-0.5,0.2c-0.2,0-0.4-0.1-0.5-0.2s-0.2-0.3-0.2-0.5c0-0.2,0.1-0.3,0.2-0.5
				s0.3-0.2,0.5-0.2c0.2,0,0.4,0.1,0.5,0.2C473.8,1793,473.9,1793.2,473.9,1793.3z"/>
			<path class="st14" d="M475.1,1792.5v-0.8l2.3-3.2c0.1-0.2,0.3-0.3,0.4-0.4s0.3-0.1,0.5-0.1c0.1,0,0.2,0,0.3,0
				c0.1,0,0.2,0.1,0.2,0.1v3.5h0.3c0.3,0,0.5,0.1,0.5,0.4c0,0.1,0,0.1,0,0.2c0,0.1,0,0.1,0,0.1l0,0.2h-0.7v1.4h-1.2v-1.4H475.1z
				 M477.6,1791.5v-2l-1.5,2H477.6z"/>
			<path class="st14" d="M484.5,1792.2c0,0.6-0.2,1-0.6,1.4s-0.9,0.5-1.6,0.5c-0.7,0-1.2-0.1-1.7-0.4c-0.1,0-0.1-0.1-0.2-0.2
				c0-0.1-0.1-0.1-0.1-0.2c0-0.2,0.1-0.4,0.4-0.8c0.2,0.2,0.4,0.4,0.7,0.5c0.3,0.1,0.5,0.2,0.8,0.2c0.3,0,0.6-0.1,0.7-0.3
				c0.2-0.2,0.3-0.4,0.3-0.7c0-0.3-0.1-0.5-0.3-0.7c-0.2-0.2-0.4-0.2-0.8-0.2h-0.5v-0.9h0.5c0.2,0,0.3,0,0.5-0.1
				c0.1-0.1,0.2-0.2,0.3-0.3c0.1-0.1,0.1-0.3,0.1-0.4c0-0.5-0.3-0.7-0.9-0.7c-0.2,0-0.4,0-0.7,0.1s-0.5,0.2-0.7,0.5
				c-0.1-0.1-0.2-0.2-0.3-0.4c-0.1-0.1-0.1-0.2-0.1-0.3c0-0.1,0-0.2,0.1-0.2s0.1-0.1,0.2-0.2c0.2-0.2,0.5-0.3,0.8-0.4s0.6-0.1,1-0.1
				c0.6,0,1.1,0.1,1.4,0.4c0.3,0.3,0.5,0.6,0.5,1.1c0,0.3-0.1,0.6-0.2,0.8c-0.2,0.2-0.4,0.4-0.7,0.6c0.4,0.1,0.6,0.3,0.8,0.5
				C484.4,1791.5,484.5,1791.8,484.5,1792.2z"/>
		</g>
		<g class="st13">
			<path class="st14" d="M1261.6,1792.2c0,0.6-0.2,1-0.6,1.4c-0.4,0.3-0.9,0.5-1.6,0.5c-0.7,0-1.2-0.1-1.7-0.4
				c-0.1,0-0.1-0.1-0.2-0.2c0-0.1-0.1-0.1-0.1-0.2c0-0.2,0.1-0.4,0.4-0.8c0.2,0.2,0.4,0.4,0.7,0.5c0.3,0.1,0.5,0.2,0.8,0.2
				c0.3,0,0.6-0.1,0.7-0.3c0.2-0.2,0.3-0.4,0.3-0.7c0-0.3-0.1-0.5-0.3-0.7c-0.2-0.2-0.4-0.2-0.8-0.2h-0.5v-0.9h0.5
				c0.2,0,0.3,0,0.5-0.1c0.1-0.1,0.2-0.2,0.3-0.3c0.1-0.1,0.1-0.3,0.1-0.4c0-0.5-0.3-0.7-0.9-0.7c-0.2,0-0.4,0-0.7,0.1
				s-0.5,0.2-0.7,0.5c-0.1-0.1-0.2-0.2-0.3-0.4c-0.1-0.1-0.1-0.2-0.1-0.3c0-0.1,0-0.2,0.1-0.2c0-0.1,0.1-0.1,0.2-0.2
				c0.2-0.2,0.5-0.3,0.8-0.4c0.3-0.1,0.6-0.1,1-0.1c0.6,0,1.1,0.1,1.4,0.4c0.3,0.3,0.5,0.6,0.5,1.1c0,0.3-0.1,0.6-0.2,0.8
				c-0.2,0.2-0.4,0.4-0.7,0.6c0.4,0.1,0.6,0.3,0.8,0.5C1261.5,1791.5,1261.6,1791.8,1261.6,1792.2z"/>
			<path class="st14" d="M1264.4,1789.9c0,0.2-0.1,0.4-0.2,0.5s-0.3,0.2-0.5,0.2c-0.2,0-0.4-0.1-0.5-0.2c-0.1-0.1-0.2-0.3-0.2-0.5
				c0-0.2,0.1-0.3,0.2-0.5c0.1-0.1,0.3-0.2,0.5-0.2s0.4,0.1,0.5,0.2S1264.4,1789.7,1264.4,1789.9z M1264.4,1793.3
				c0,0.2-0.1,0.4-0.2,0.5s-0.3,0.2-0.5,0.2c-0.2,0-0.4-0.1-0.5-0.2c-0.1-0.1-0.2-0.3-0.2-0.5c0-0.2,0.1-0.3,0.2-0.5
				c0.1-0.1,0.3-0.2,0.5-0.2s0.4,0.1,0.5,0.2S1264.4,1793.2,1264.4,1793.3z"/>
			<path class="st14" d="M1265.8,1793.9v-0.9c0.3-0.2,0.6-0.5,0.9-0.8c0.3-0.3,0.7-0.7,0.9-1c0.5-0.6,0.8-1.1,0.8-1.5
				c0-0.3-0.1-0.5-0.2-0.6c-0.1-0.1-0.4-0.2-0.6-0.2c-0.2,0-0.5,0.1-0.7,0.2c-0.2,0.1-0.5,0.3-0.7,0.5c-0.3-0.3-0.4-0.6-0.4-0.7
				c0-0.1,0.1-0.2,0.2-0.4c0.5-0.4,1.1-0.6,1.8-0.6c0.6,0,1.1,0.2,1.4,0.5c0.3,0.3,0.5,0.7,0.5,1.3c0,0.7-0.4,1.5-1.3,2.4
				c-0.3,0.4-0.7,0.7-0.9,0.9h1.7c0.2,0,0.4,0.1,0.5,0.2c0.1,0.1,0.2,0.3,0.2,0.5c0,0.1,0,0.1,0,0.2c0,0,0,0.1,0,0.2H1265.8z"/>
			<path class="st14" d="M1272.6,1788.9l-0.1,1.2c0.3-0.1,0.5-0.1,0.7-0.1c0.6,0,1.1,0.2,1.5,0.5c0.3,0.3,0.5,0.8,0.5,1.4
				c0,0.4-0.1,0.8-0.3,1.1c-0.2,0.3-0.4,0.6-0.8,0.7c-0.3,0.2-0.7,0.3-1.2,0.3c-0.3,0-0.5,0-0.7-0.1s-0.4-0.1-0.6-0.2
				c-0.2-0.1-0.3-0.1-0.4-0.2c-0.2-0.1-0.2-0.2-0.2-0.4c0-0.1,0-0.2,0.1-0.3c0.1-0.1,0.2-0.3,0.3-0.5c0.2,0.2,0.4,0.3,0.7,0.5
				s0.5,0.2,0.8,0.2c0.3,0,0.6-0.1,0.7-0.3c0.2-0.2,0.3-0.4,0.3-0.8c0-0.3-0.1-0.6-0.3-0.8c-0.2-0.2-0.5-0.3-0.8-0.3
				c-0.4,0-0.7,0.1-1,0.2l-0.4-0.2l0.3-3h3.2c0,0.1,0,0.2,0,0.3c0,0.2-0.1,0.4-0.2,0.5c-0.1,0.1-0.3,0.2-0.6,0.2H1272.6z"/>
			<path class="st14" d="M1277.9,1789.9c0,0.2-0.1,0.4-0.2,0.5c-0.1,0.1-0.3,0.2-0.5,0.2c-0.2,0-0.4-0.1-0.5-0.2s-0.2-0.3-0.2-0.5
				c0-0.2,0.1-0.3,0.2-0.5s0.3-0.2,0.5-0.2c0.2,0,0.4,0.1,0.5,0.2C1277.8,1789.6,1277.9,1789.7,1277.9,1789.9z M1277.9,1793.3
				c0,0.2-0.1,0.4-0.2,0.5c-0.1,0.1-0.3,0.2-0.5,0.2c-0.2,0-0.4-0.1-0.5-0.2s-0.2-0.3-0.2-0.5c0-0.2,0.1-0.3,0.2-0.5
				s0.3-0.2,0.5-0.2c0.2,0,0.4,0.1,0.5,0.2C1277.8,1793,1277.9,1793.2,1277.9,1793.3z"/>
			<path class="st14" d="M1280.7,1788.9l-0.1,1.2c0.3-0.1,0.5-0.1,0.7-0.1c0.6,0,1.1,0.2,1.5,0.5c0.3,0.3,0.5,0.8,0.5,1.4
				c0,0.4-0.1,0.8-0.3,1.1c-0.2,0.3-0.4,0.6-0.8,0.7c-0.3,0.2-0.7,0.3-1.2,0.3c-0.3,0-0.5,0-0.7-0.1s-0.4-0.1-0.6-0.2
				c-0.2-0.1-0.3-0.1-0.4-0.2c-0.2-0.1-0.2-0.2-0.2-0.4c0-0.1,0-0.2,0.1-0.3c0.1-0.1,0.2-0.3,0.3-0.5c0.2,0.2,0.4,0.3,0.7,0.5
				s0.5,0.2,0.8,0.2c0.3,0,0.6-0.1,0.7-0.3c0.2-0.2,0.3-0.4,0.3-0.8c0-0.3-0.1-0.6-0.3-0.8c-0.2-0.2-0.5-0.3-0.8-0.3
				c-0.4,0-0.7,0.1-1,0.2l-0.4-0.2l0.3-3h3.2c0,0.1,0,0.2,0,0.3c0,0.2-0.1,0.4-0.2,0.5c-0.1,0.1-0.3,0.2-0.6,0.2H1280.7z"/>
			<path class="st14" d="M1284.6,1793.9v-0.9c0.3-0.2,0.6-0.5,0.9-0.8c0.3-0.3,0.7-0.7,0.9-1c0.5-0.6,0.8-1.1,0.8-1.5
				c0-0.3-0.1-0.5-0.2-0.6c-0.1-0.1-0.4-0.2-0.6-0.2c-0.2,0-0.5,0.1-0.7,0.2c-0.2,0.1-0.5,0.3-0.7,0.5c-0.3-0.3-0.4-0.6-0.4-0.7
				c0-0.1,0.1-0.2,0.2-0.4c0.5-0.4,1.1-0.6,1.8-0.6c0.6,0,1.1,0.2,1.4,0.5c0.3,0.3,0.5,0.7,0.5,1.3c0,0.7-0.4,1.5-1.3,2.4
				c-0.3,0.4-0.7,0.7-0.9,0.9h1.7c0.2,0,0.4,0.1,0.5,0.2c0.1,0.1,0.2,0.3,0.2,0.5c0,0.1,0,0.1,0,0.2c0,0,0,0.1,0,0.2H1284.6z"/>
		</g>
		<g class="st13">
			<path class="st10" d="M1049.4,1789.2c0,0.8-0.2,1.3-0.7,1.7c-0.5,0.4-1.1,0.6-2,0.6h-0.5v2.4h-1.4v-6.7c0.6-0.1,1.2-0.1,1.8-0.1
				c0.9,0,1.7,0.2,2.1,0.5C1049.1,1788,1049.4,1788.5,1049.4,1789.2z M1048,1789.2c0-0.4-0.1-0.7-0.3-0.8c-0.2-0.2-0.5-0.3-1-0.3
				c-0.2,0-0.4,0-0.5,0v2.4h0.3c0.5,0,0.9-0.1,1.1-0.3S1048,1789.7,1048,1789.2z"/>
			<path class="st10" d="M1054.1,1793.9l-0.6-1.6h-2.3l-0.5,1.6h-1.4l2.3-6.6c0.2-0.1,0.5-0.1,0.8-0.1c0.5,0,0.8,0.2,0.9,0.6
				l2.1,6.1H1054.1z M1052.4,1788.4l-0.9,2.9h1.8L1052.4,1788.4z"/>
			<path class="st10" d="M1061.3,1789.1c0,0.5-0.1,0.9-0.3,1.2c-0.2,0.3-0.5,0.6-0.9,0.7l1.6,2.8c-0.3,0.1-0.5,0.2-0.8,0.2
				c-0.2,0-0.5-0.1-0.6-0.2c-0.2-0.1-0.3-0.3-0.5-0.5l-1.1-1.9h-0.5v2.5h-1.4v-6.7c0.6-0.1,1.2-0.1,1.8-0.1c1,0,1.7,0.2,2.1,0.5
				C1061.1,1787.9,1061.3,1788.4,1061.3,1789.1z M1059.8,1789.2c0-0.4-0.1-0.7-0.3-0.9c-0.2-0.2-0.5-0.3-0.9-0.3c-0.1,0-0.2,0-0.3,0
				c-0.1,0-0.2,0-0.2,0v2.3h0.5c0.4,0,0.7-0.1,1-0.3C1059.7,1789.9,1059.8,1789.6,1059.8,1789.2z"/>
			<path class="st10" d="M1062.9,1787.2c0.2,0,0.4,0,0.5,0c0.6,0,0.9,0.3,0.9,0.8v2.4c0-0.1,0.1-0.3,0.1-0.4s0.2-0.3,0.3-0.5
				l1.4-1.8c0.1-0.2,0.3-0.3,0.4-0.4c0.1-0.1,0.3-0.1,0.5-0.1c0.2,0,0.3,0,0.5,0.1c0.1,0.1,0.3,0.1,0.4,0.2l-2.2,3l2.5,3.4
				c-0.3,0.2-0.5,0.2-0.8,0.2c-0.4,0-0.8-0.2-1.1-0.5l-1.5-1.9c-0.3-0.4-0.5-0.8-0.5-1.1v3.4h-1.4V1787.2z"/>
			<path class="st10" d="M1072.7,1789.9h2.5v-2.7c0.2,0,0.4,0,0.5,0c0.3,0,0.5,0.1,0.6,0.2s0.2,0.3,0.2,0.6v6h-1.4v-2.9h-2.5v2.9
				h-1.4v-6.7c0.2,0,0.4,0,0.5,0c0.6,0,0.9,0.3,0.9,0.8V1789.9z"/>
			<path class="st10" d="M1081.9,1792.8c0.3,0,0.5,0.1,0.6,0.2s0.2,0.3,0.2,0.5c0,0.1,0,0.1,0,0.2s0,0.1,0,0.2h-4.3v-6.7h4.2
				c0,0.1,0,0.2,0,0.4c0,0.3-0.1,0.4-0.2,0.5s-0.3,0.2-0.7,0.2h-2v1.6h2.1v1.1h-2.1v1.9H1081.9z"/>
			<path class="st10" d="M1088.6,1789.1c0,0.5-0.1,0.9-0.3,1.2c-0.2,0.3-0.5,0.6-0.9,0.7l1.7,2.8c-0.3,0.1-0.5,0.2-0.8,0.2
				c-0.2,0-0.5-0.1-0.6-0.2c-0.2-0.1-0.3-0.3-0.5-0.5l-1.1-1.9h-0.5v2.5h-1.4v-6.7c0.6-0.1,1.2-0.1,1.8-0.1c1,0,1.7,0.2,2.1,0.5
				C1088.4,1787.9,1088.6,1788.4,1088.6,1789.1z M1087.2,1789.2c0-0.4-0.1-0.7-0.3-0.9s-0.5-0.3-0.9-0.3c-0.1,0-0.2,0-0.3,0
				c-0.1,0-0.2,0-0.2,0v2.3h0.5c0.4,0,0.7-0.1,1-0.3C1087,1789.9,1087.2,1789.6,1087.2,1789.2z"/>
			<path class="st10" d="M1093.8,1792.8c0.3,0,0.5,0.1,0.6,0.2c0.1,0.1,0.2,0.3,0.2,0.5c0,0.1,0,0.1,0,0.2c0,0,0,0.1,0,0.2h-4.3
				v-6.7h4.2c0,0.1,0,0.2,0,0.4c0,0.3-0.1,0.4-0.2,0.5c-0.1,0.1-0.3,0.2-0.7,0.2h-2v1.6h2.1v1.1h-2.1v1.9H1093.8z"/>
			<path class="st10" d="M1097.5,1793.3c0,0.2-0.1,0.4-0.2,0.5c-0.1,0.1-0.3,0.2-0.5,0.2c-0.2,0-0.4-0.1-0.5-0.2
				c-0.1-0.1-0.2-0.3-0.2-0.5c0-0.2,0.1-0.4,0.2-0.5s0.3-0.2,0.5-0.2s0.4,0.1,0.5,0.2C1097.4,1792.9,1097.5,1793.1,1097.5,1793.3z
				 M1097.4,1792c-0.2,0-0.3,0-0.5,0c-0.3,0-0.5-0.1-0.7-0.2c-0.2-0.1-0.2-0.4-0.2-0.6v-4c0.2,0,0.3,0,0.5,0c0.6,0,0.9,0.3,0.9,0.8
				V1792z"/>
		</g>
	</g>
	
		<linearGradient id="Rectangle_10_1_" gradientUnits="userSpaceOnUse" x1="1.4583" y1="1824.0387" x2="0.6173" y2="1824.0127" gradientTransform="matrix(793 0 0 -199 156 364706)">
		<stop  offset="0" style="stop-color:#FFFFFF"/>
		<stop  offset="1" style="stop-color:#FFFFFF;stop-opacity:0"/>
	</linearGradient>
	<rect id="Rectangle_10" x="648.2" y="1624.9" class="st15" width="793" height="199"/>
	
		<linearGradient id="Rectangle_11_1_" gradientUnits="userSpaceOnUse" x1="0.783" y1="1824.0387" x2="1.624" y2="1824.0127" gradientTransform="matrix(793 0 0 -199 -493 364706)">
		<stop  offset="0" style="stop-color:#FFFFFF"/>
		<stop  offset="1" style="stop-color:#FFFFFF;stop-opacity:0"/>
	</linearGradient>
	<rect id="Rectangle_11" x="-0.8" y="1624.9" class="st16" width="793" height="199"/>
</g>
</svg>
